{
.appVersion = "3257";
.formatVersion = 3;
DisplayStrings = (
"kerning/CR/CR oo/zero.osf 0/zero.osf/zero.osf/one.osf/zero.osf/zero.osf/two.osf/zero.osf/zero.osf/three.osf/zero.osf/four.osf/zero.osf/zero.osf/five.osf/zero.osf/zero.osf/six.osf/zero.osf/seven.osf/zero.osf/eight.osf/zero.osf/nine.osf/zero.osf/CR/CR 0000 /CR *010020030030405006007080090     /CR *112131415161718191    22324252627228292   /CR *33435363738393     445464748494/CR *5565758595   66768696     778797     8898     99  /CR/CR *0'0'1'1'2'2'3'3'4'4'5'5'6'6'7'7'8'8'9'9'/CR *31' 32' 33' 34' 35' 36' 37' 38' 39' 30'/CR *31° 32°  33° 34° 35° 36° 37° 38° 39° 30°/CR/CR *$12 $22 $32 $42 $52 $62 $72 $82 $92 $02  /CR/CR *1¢ 2¢ 3¢ 4¢ 5¢ 6¢ 7¢ 8¢ 9¢ 0¢ /CR/CR *£12 £22 £32 £42 £52 £62 £72 £82 £92 £02/CR/CR *¥12 ¥22 ¥32 ¥42 ¥52 ¥62 ¥72 ¥82 ¥92 ¥02/CR/CR *€12 €22 €32 €42 €52 €62 €72 €82 €92 €02/CR/CR *21% 22% 23% 24% 205% 26% 27% 28% 29% 20%/CR/CR *·0·1·2·3·4·5·6·7·8·9·    .1.2.3.4.5.6.7.8.9.0.    /CR/CR *-1-2-3-4-5-6-7-8-9-0-//1//2//3//4//5//6//7//8//9//0//     /CR/CR */backslash/backslash 1/backslash/backslash 2/backslash/backslash 3/backslash/backslash 4/backslash/backslash 5/backslash/backslash 6/backslash/backslash 7/backslash/backslash 8/backslash/backslash 9/backslash/backslash 0/backslash/backslash/CR/CR",
"Lowercase to Lowercase   

aabacagqdeoadaeaofagahaiajakalamanaoapaqargqadao
aoxsooqgdaooatauavawax
ceoeoayanobpzqgadceogdaceovogdaqeogqda
affﬁiiaﬂaßwvaæaœaðaþała 
bbcbdbebfbgbhbibjbkblbmbnbobpbqbrbsbtbubvbwbxbybzb
bﬁbﬂbßbæbœbfðbþbłb 
ccecdcecfcgchcicjckclcmcnconcpcqcrcsctcucvcwcxcyczc
cﬁcﬂcßcæcœcofðoocþcłc 
ddedfdgdhdidjdkdldmdndodpdqdrdsdtdudvdwdxdydzd
dﬁdﬂdßdædœdðdþdłd 
eefegeheiejekelemeneoepeqereseteuevewexeyeze
eﬁeﬂeßeæeœeðeþełe 
ffgfhfifjfkflfmfnfofpfqfrfsftfufvfwfxfyfzfﬁfﬂfßfæfœfłf 
gghgigjgkglgmgngognpgqgnrgsgtgugvgwgxgygzg
gﬁgﬂgßgægœgłg 
hhihjhkhlhmhnhohphqhrhshthuhvhwhxhyhzhﬁhﬂhßhæhœhłh 
ijikiliminioipiqirisitiuiviwixiyiziﬁiﬂißooiæiœiłi 
jjkjljmjnjojpjqjrjsjtjujvjwjxjyjzjﬁjﬂjßjæjœjłj 

glyphs = (
{
glyphname = A;
kernLeft = _A;
kernRight = _A;
lastChange = "2024-05-29 20:43:43 +0000";
layers = (
{
anchors = (
{
name = top;
pos = (801,1456);
}
);
guides = (
{
pos = (0,1456);
showMeasurement = 1;
}
);
layerId = "E4F99366-6C9B-4FE4-BFF6-3C09ACD21B57";
shapes = (
{
closed = 1;
nodes = (
(207,0,l),
(348.355,298,l),
(768.355,298,l),
(785,0,l),
(1096,0,l),
(963.546,1456,l),
(633.546,1456,l),
(-115,0,l)
);
},
{
closed = 1;
nodes = (
(686.002,1016,l),
(729.537,1122,l),
(735.537,1122,l),
(733.789,1015,l),
(754.229,542,l),
(465.229,542,l)
);
}
);
width = 1216;
},
{
anchors = (
{
name = top;
pos = (803,1456);
}
);
layerId = "4B48D498-D91D-4DFD-A68C-F91EB5F77E01";
shapes = (
{
closed = 1;
nodes = (
(117,0,l),
(313,371,l),
(850,371,l),
(888,0,l),
(1086,0,l),
(896,1456,l),
(714,1456,l),
(-101,0,l)
);
},
{
closed = 1;
nodes = (
(711,1109,l),
(759,1220,l),
(765,1220,l),
(770,1108,l),
(830,526,l),
(398,526,l)
);
}
);
width = 1211;
},
{
anchors = (
{
name = top;
pos = (802,1456);
}
);
layerId = "7E1A2F3E-9482-4B58-A0D1-B49E7A5F97A9";
shapes = (
{
closed = 1;
nodes = (
(40,0,l),
(283,426,l),
(901,426,l),
(962,0,l),
(1054,0,l),
(835,1456,l),
(772,1456,l),
(-62,0,l)
);
},
{
closed = 1;
nodes = (
(702,1177,l),
(777,1326,l),
(783,1326,l),
(796,1175,l),
(891,495,l),
(320,495,l)
);
}
);
width = 1208;
}
);
unicode = 65;
},
{
glyphname = AE;
kernRight = _E;
lastChange = "2024-05-29 19:39:47 +0000";
layers = (
{
guides = (
{
angle = 90;
pos = (-3950.24,0);
}
);
layerId = "E4F99366-6C9B-4FE4-BFF6-3C09ACD21B57";
shapes = (
{
closed = 1;
nodes = (
(230.76,0,l),
(447.76,334,l),
(803.76,334,l),
(745.76,0,l),
(1578.76,0,l),
(1631.76,247,l),
(1098.76,247,l),
(1162.76,622,l),
(1578.76,622,l),
(1631.76,869,l),
(1206.76,869,l),
(1265.76,1208,l),
(1778.76,1208,l),
(1830.76,1456,l),
(876.76,1456,l),
(-119.24,0,l)
);
},
{
closed = 1;
nodes = (
(940.76,1115,l),
(946.76,1115,l),
(844.76,580,l),
(605.76,580,l)
);
}
);
width = 1768.5;
},
{
guides = (
{
angle = 90;
pos = (-2040.99,0);
}
);
layerId = "4B48D498-D91D-4DFD-A68C-F91EB5F77E01";
shapes = (
{
closed = 1;
nodes = (
(130.01,0,l),
(400.01,371,l),
(878.01,371,l),
(814.01,0,l),
(1637.01,0,l),
(1669.01,154,l),
(1039.01,154,l),
(1131.01,678,l),
(1649.01,678,l),
(1682.01,833,l),
(1158.01,833,l),
(1239.01,1300,l),
(1856.01,1300,l),
(1889.01,1456,l),
(990.01,1456,l),
(-110.99,0,l)
);
},
{
closed = 1;
nodes = (
(1020.01,1219,l),
(1024.01,1217,l),
(904.01,526,l),
(513.01,526,l)
);
}
);
width = 1819.01;
},
{
layerId = "7E1A2F3E-9482-4B58-A0D1-B49E7A5F97A9";
shapes = (
{
closed = 1;
nodes = (
(7.45,0,l),
(359.45,427,l),
(957.45,427,l),
(884.45,0,l),
(1648.45,0,l),
(1663.45,70,l),
(985.45,70,l),
(1099.45,727,l),
(1681.45,727,l),
(1696.45,797,l),
(1111.45,797,l),
(1210.45,1386,l),
(1906.45,1386,l),
(1921.45,1456,l),
(1096.45,1456,l),
(-107.55,0,l)
);
},
{
closed = 1;
nodes = (
(1118.45,1379,l),
(1121.45,1371,l),
(970.45,496,l),
(414.45,496,l)
);
}
);
width = 1827.12;
}
);
unicode = 198;
},
{
glyphname = B;
lastChange = "2024-05-27 15:08:00 +0000";
layers = (
{
guides = (
{
pos = (0,760);
}
);
layerId = "E4F99366-6C9B-4FE4-BFF6-3C09ACD21B57";
shapes = (
{
closed = 1;
nodes = (
(557,0,ls),
(926,0,o),
(1174,189,o),
(1174,475,cs),
(1174,599,o),
(1100,718,o),
(982,751,c),
(1128,796,o),
(1240,939,o),
(1240,1119,cs),
(1240,1327,o),
(1108,1456,o),
(793,1456,cs),
(340,1456,l),
(31,0,l)
);
},
{
closed = 1;
nodes = (
(479,633,l),
(699,633,ls),
(807,633,o),
(856,558,o),
(856,478,cs),
(856,347,o),
(763,243,o),
(609,243,cs),
(396,243,l)
);
},
{
closed = 1;
nodes = (
(602,1212,l),
(757,1212,ls),
(878,1212,o),
(934,1157,o),
(934,1070,cs),
(934,948,o),
(844,848,o),
(689,845,c),
(524,845,l)
);
}
);
width = 1279;
},
{
guides = (
{
pos = (0,760);
}
);
layerId = "4B48D498-D91D-4DFD-A68C-F91EB5F77E01";
shapes = (
{
closed = 1;
nodes = (
(533,0,ls,{
name = hr01;
}),
(874,0,o),
(1126,170,o),
(1126,462,cs),
(1126,614,o),
(1038,740,o),
(895,764,c),
(1066,799,o),
(1181,943,o),
(1181,1137,cs),
(1181,1310,o),
(1065,1456,o),
(799,1456,cs),
(381,1456,l),
(72,0,l)
);
},
{
closed = 1;
nodes = (
(416,678,l),
(702,678,ls),
(847,678,o),
(926,598,o),
(926,468,cs),
(926,308,o),
(810,154,o),
(575,154,cs),
(304,154,l)
);
},
{
closed = 1;
nodes = (
(548,1300,l),
(762,1300,ls),
(914,1300,o),
(977,1234,o),
(977,1102,cs),
(977,977,o),
(882,833,o),
(685,833,c,{
name = hr02;
}),
(449,833,l)
);
}
);
width = 1244;
},
{
guides = (
{
angle = 78.14;
pos = (-177,0);
showMeasurement = 1;
},
{
angle = 78.14;
pos = (1010,0);
}
);
layerId = "7E1A2F3E-9482-4B58-A0D1-B49E7A5F97A9";
shapes = (
{
closed = 1;
nodes = (
(568,0,ls),
(860,0,o),
(1078,150,o),
(1078,447,cs),
(1078,632,o),
(966,732,o),
(836,771,c,{
name = hr03;
}),
(1011,808,o),
(1143,944,o),
(1143,1142,cs),
(1143,1293,o),
(1088,1456,o),
(783,1456,cs),
(418,1456,l),
(108,0,l)
);
},
{
closed = 1;
nodes = (
(355,737,l),
(667,737,ls),
(831,737,o),
(990,659,o),
(990,445,cs,{
name = hr02;
}),
(990,189,o),
(787,70,o),
(588,70,cs),
(213,70,l)
);
},
{
closed = 1;
nodes = (
(493,1386,l),
(768,1386,ls,{
name = hr01;
}),
(941,1386,o),
(1056,1319,o),
(1056,1143,cs),
(1056,902,o),
(837,804,o),
(685,807,c),
(370,807,l)
);
}
);
width = 1230;
}
);
unicode = 66;
},
{
glyphname = C;
kernLeft = _C;
kernRight = _C;
lastChange = "2024-05-29 18:09:20 +0000";
layers = (
{
layerId = "E4F99366-6C9B-4FE4-BFF6-3C09ACD21B57";
shapes = (
{
closed = 1;
nodes = (
(764,-20,o),
(926,77,o),
(995,135,c),
(936,344,l),
(815,272,o),
(732,244,o),
(652,244,cs),
(501,244,o),
(432,337,o),
(432,518,cs),
(432,855,o),
(603,1223,o),
(869,1223,cs),
(989,1223,o),
(1065,1174,o),
(1114,1136,c),
(1246,1308,l),
(1190,1368,o),
(1065,1478,o),
(875,1478,cs),
(340,1478,o),
(104,943,o),
(104,487,cs),
(104,159,o),
(294,-20,o),
(552,-20,c)
);
}
);
width = 1123;
},
{
layerId = "4B48D498-D91D-4DFD-A68C-F91EB5F77E01";
shapes = (
{
closed = 1;
nodes = (
(753.67,-21,o),
(901.67,78,o),
(952.67,117,c),
(906.67,260,l),
(854.67,220,o),
(706.67,141,o),
(576.67,141,cs),
(374.67,141,o),
(336.67,314,o),
(336.67,447,cs),
(336.67,933,o),
(568.67,1316,o),
(850.67,1316,cs),
(970.67,1316,o),
(1077.67,1252,o),
(1114.67,1215,c),
(1206.67,1340,l),
(1177.67,1369,o),
(1051.67,1477,o),
(849.67,1477,cs),
(365.67,1477,o),
(132.67,935,o),
(132.67,426,cs),
(132.67,186,o),
(239.67,-21,o),
(551.67,-21,cs)
);
}
);
width = 1116.79;
},
{
guides = (
{
pos = (0,1516);
},
{
pos = (0,-21);
},
{
pos = (0,2291);
}
);
layerId = "7E1A2F3E-9482-4B58-A0D1-B49E7A5F97A9";
shapes = (
{
closed = 1;
nodes = (
(692,-21,o),
(833,63,o),
(908,123,c),
(882,182,l),
(811,132,o),
(692,55,o),
(540,55,cs),
(384,55,o),
(233,203,o),
(233,499,cs),
(233,994,o),
(517,1402,o),
(853,1402,cs),
(1001,1402,o),
(1077,1326,o),
(1117,1288,c),
(1155,1342,l),
(1117,1386,o),
(1022,1477,o),
(843,1477,cs),
(433,1477,o),
(145,998,o),
(145,512,cs),
(145,239,o),
(246,-21,o),
(534,-21,cs)
);
}
);
width = 1035;
}
);
unicode = 67;
},
{
glyphname = Ccedilla;
kernLeft = _C;
kernRight = _C;
lastChange = "2024-05-27 15:08:00 +0000";
layers = (
{
layerId = "E4F99366-6C9B-4FE4-BFF6-3C09ACD21B57";
shapes = (
{
closed = 1;
nodes = (
(473,-516,o),
(720,-364,o),
(720,-213,cs),
(720,-141,o),
(677,-96,o),
(619,-79,c),
(653,-13,l),
(815,11,o),
(937,87,o),
(995,135,c),
(936,344,l),
(815,272,o),
(732,244,o),
(652,244,cs),
(501,244,o),
(432,337,o),
(432,518,cs),
(432,855,o),
(603,1223,o),
(869,1223,cs),
(989,1223,o),
(1065,1174,o),
(1114,1136,c),
(1246,1308,l),
(1190,1368,o),
(1065,1478,o),
(875,1478,cs),
(340,1478,o),
(104,943,o),
(104,487,cs),
(104,201,o),
(248,29,o),
(456,-11,c),
(386,-157,l),
(451,-160,o),
(496,-188,o),
(496,-229,cs),
(496,-316,o),
(382,-350,o),
(311,-350,c),
(284,-514,l)
);
}
);
width = 1123;
},
{
layerId = "4B48D498-D91D-4DFD-A68C-F91EB5F77E01";
shapes = (
{
closed = 1;
nodes = (
(481.43,-494,o),
(672.43,-399,o),
(672.43,-227,cs),
(672.43,-151,o),
(626.43,-103,o),
(563.43,-84,c),
(596.23,-19.394,l),
(775.344,-6.475,o),
(905.498,80.928,o),
(952.67,117,c),
(906.67,260,l),
(854.67,220,o),
(706.67,141,o),
(576.67,141,cs),
(374.67,141,o),
(336.67,314,o),
(336.67,447,cs),
(336.67,933,o),
(568.67,1316,o),
(850.67,1316,cs),
(970.67,1316,o),
(1077.67,1252,o),
(1114.67,1215,c),
(1206.67,1340,l),
(1177.67,1369,o),
(1051.67,1477,o),
(849.67,1477,cs),
(365.67,1477,o),
(132.67,935,o),
(132.67,426,cs),
(132.67,212.659,o),
(217.22,25.393,o),
(455.155,-13.576,c),
(383.43,-164,l),
(473.43,-168,o),
(516.43,-209,o),
(500.43,-270,cs),
(480.43,-347,o),
(390.43,-388,o),
(310.43,-388,c),
(292.43,-499,l)
);
}
);
width = 1116.79;
},
{
layerId = "7E1A2F3E-9482-4B58-A0D1-B49E7A5F97A9";
shapes = (
{
closed = 1;
nodes = (
(523,-488,o),
(640,-409,o),
(640,-249,cs),
(640,-169,o),
(582,-120,o),
(512,-114,c),
(559,-20,l),
(707,-12,o),
(837,66,o),
(908,123,c),
(882,182,l),
(811,132,o),
(692,55,o),
(540,55,cs),
(384,55,o),
(233,197,o),
(233,488,cs),
(233,993,o),
(517,1402,o),
(853,1402,cs),
(1001,1402,o),
(1077,1326,o),
(1117,1288,c),
(1155,1342,l),
(1117,1386,o),
(1022,1477,o),
(843,1477,cs),
(433,1477,o),
(145,998,o),
(145,512,cs),
(145,255,o),
(234,10,o),
(485,-18,c),
(411,-167,l),
(496,-175,o),
(556,-200,o),
(556,-268,cs),
(556,-378,o),
(442,-434,o),
(339,-434,c),
(328,-492,l)
);
}
);
width = 1035;
}
);
unicode = 199;
},
{
glyphname = D;
kernLeft = _D;
kernRight = _D;
lastChange = "2024-05-27 15:08:00 +0000";
layers = (
{
layerId = "E4F99366-6C9B-4FE4-BFF6-3C09ACD21B57";
shapes = (
{
closed = 1;
nodes = (
(495,0,ls),
(1020,0,o),
(1296.815,472.999,o),
(1293,976,cs),
(1290.815,1263.999,o),
(1131,1456,o),
(782,1456,cs),
(340,1456,l),
(31,0,l)
);
},
{
closed = 1;
nodes = (
(602,1212,l),
(713,1212,ls),
(908,1212,o),
(977.65,1108.997,o),
(979,951,cs),
(981.65,640.997,o),
(829,243,o),
(507,243,cs),
(396,243,l)
);
}
);
width = 1328;
},
{
layerId = "4B48D498-D91D-4DFD-A68C-F91EB5F77E01";
shapes = (
{
closed = 1;
nodes = (
(450,0,ls),
(897,0,o),
(1264,360,o),
(1264,956,cs),
(1264,1283,o),
(1081,1456,o),
(695,1456,cs),
(381,1456,l),
(72,0,l)
);
},
{
closed = 1;
nodes = (
(548,1300,l),
(708,1300,ls),
(995,1300,o),
(1060,1129,o),
(1060,929,cs),
(1060,474,o),
(777,154,o),
(478,154,cs),
(304,154,l)
);
}
);
width = 1317;
},
{
guides = (
{
angle = 90;
pos = (535,0);
}
);
layerId = "7E1A2F3E-9482-4B58-A0D1-B49E7A5F97A9";
shapes = (
{
closed = 1;
nodes = (
(525,0,ls),
(880,0,o),
(1250.251,347,o),
(1247,957,cs),
(1245.545,1229.996,o),
(1145,1456,o),
(742,1456,cs),
(418,1456,l),
(108,0,l)
);
},
{
closed = 1;
nodes = (
(493,1386,l),
(732,1386,ls),
(1035,1386,o),
(1157.377,1230.995,o),
(1159,957,cs),
(1162.251,408,o),
(845,70,o),
(492,70,cs),
(213,70,l)
);
}
);
width = 1323;
}
);
unicode = 68;
},
{
glyphname = Eth;
kernLeft = _D;
kernRight = _D;
lastChange = "2024-05-27 15:08:00 +0000";
layers = (
{
layerId = "E4F99366-6C9B-4FE4-BFF6-3C09ACD21B57";
shapes = (
{
closed = 1;
nodes = (
(520,-11,ls),
(1045,-11,o),
(1320,462,o),
(1316,965,cs),
(1314,1253,o),
(1156,1445,o),
(807,1445,cs),
(365,1445,l),
(238.72,850,l),
(101,850,l),
(49,606,l),
(186.94,606,l),
(56,-11,l)
);
},
{
closed = 1;
nodes = (
(500.51,606,l),
(739,606,l),
(791,850,l),
(552.38,850,l),
(627,1201,l),
(738,1201,ls),
(933,1201,o),
(1001,1098,o),
(1002,940,cs),
(1005,630,o),
(854,232,o),
(532,232,cs),
(421,232,l)
);
}
);
width = 1353;
},
{
layerId = "4B48D498-D91D-4DFD-A68C-F91EB5F77E01";
shapes = (
{
closed = 1;
nodes = (
(436,0,ls),
(880,0,o),
(1274,360,o),
(1274,956,cs),
(1274,1275,o),
(1072,1456,o),
(705,1456,cs),
(391,1456,l),
(255,814,l),
(108,814,l),
(76,666,l),
(223,666,l),
(82,0,l)
);
},
{
closed = 1;
nodes = (
(423,666,l),
(674,666,l),
(706,814,l),
(454,814,l),
(558,1300,l),
(718,1300,ls),
(996,1300,o),
(1070,1121,o),
(1070,929,cs),
(1070,474,o),
(760,154,o),
(464,154,cs),
(314,154,l)
);
}
);
width = 1311;
},
{
guides = (
{
pos = (0,774);
},
{
pos = (0,704);
}
);
layerId = "7E1A2F3E-9482-4B58-A0D1-B49E7A5F97A9";
shapes = (
{
closed = 1;
nodes = (
(549,0,ls),
(904,0,o),
(1271,327,o),
(1271,942,cs),
(1271,1230,o),
(1169,1456,o),
(766,1456,cs),
(442,1456,l),
(297,774,l),
(131,774,l),
(116,704,l),
(282,704,l),
(132,0,l)
);
},
{
closed = 1;
nodes = (
(372,704,l),
(674,704,l),
(689,774,l),
(387,774,l),
(517,1386,l),
(756,1386,ls),
(1059,1386,o),
(1183,1231,o),
(1183,942,cs),
(1183,388,o),
(869,70,o),
(516,70,cs),
(237,70,l)
);
}
);
width = 1347;
}
);
unicode = 208;
},
{
glyphname = E;
kernLeft = _E;
kernRight = _E;
lastChange = "2024-05-27 15:09:31 +0000";
layers = (
{
anchors = (
{
name = top;
pos = (795,1456);
}
);
layerId = "E4F99366-6C9B-4FE4-BFF6-3C09ACD21B57";
shapes = (
{
closed = 1;
nodes = (
(960,0,l),
(1011.874,244,l),
(393.874,244,l),
(476.151,631,l),
(990.151,631,l),
(1041.812,874,l),
(527.812,874,l),
(599.671,1212,l),
(1207.671,1212,l),
(1259.546,1456,l),
(339.546,1456,l),
(30,0,l)
);
}
);
width = 1153;
},
{
anchors = (
{
name = top;
pos = (825,1456);
}
);
layerId = "4B48D498-D91D-4DFD-A68C-F91EB5F77E01";
shapes = (
{
closed = 1;
nodes = (
(960,0,l),
(992,154,l),
(304,154,l),
(415,675,l),
(1009,675,l),
(1042,830,l),
(448,830,l),
(548,1300,l),
(1227,1300,l),
(1260,1456,l),
(381,1456,l),
(72,0,l)
);
}
);
width = 1162;
},
{
anchors = (
{
name = top;
pos = (831,1456);
}
);
guides = (
{
pos = (0,808);
},
{
angle = 78.14;
pos = (960,0);
},
{
angle = 78.14;
pos = (-459,0);
}
);
layerId = "7E1A2F3E-9482-4B58-A0D1-B49E7A5F97A9";
shapes = (
{
closed = 1;
nodes = (
(948,0,l),
(963,70,l),
(213,70,l),
(353,727,l),
(986,727,l),
(1001,797,l),
(368,797,l),
(493,1386,l),
(1229,1386,l),
(1244,1456,l),
(418,1456,l),
(108,0,l)
);
}
);
width = 1138;
}
);
unicode = 69;
},
{
glyphname = F;
lastChange = "2024-05-27 15:08:00 +0000";
layers = (
{
layerId = "E4F99366-6C9B-4FE4-BFF6-3C09ACD21B57";
shapes = (
{
closed = 1;
nodes = (
(344,0,l),
(470,595,l),
(963,595,l),
(1015,839,l),
(522,839,l),
(602,1212,l),
(1200,1212,l),
(1251,1456,l),
(340,1456,l),
(31,0,l)
);
}
);
width = 1089;
},
{
layerId = "4B48D498-D91D-4DFD-A68C-F91EB5F77E01";
shapes = (
{
closed = 1;
nodes = (
(272,0,l),
(409,645,l),
(968,645,l),
(1001,800,l),
(442,800,l),
(548,1300,l),
(1201,1300,l),
(1234,1456,l),
(381,1456,l),
(72,0,l)
);
}
);
width = 1077;
},
{
guides = (
{
pos = (0,720);
}
);
layerId = "7E1A2F3E-9482-4B58-A0D1-B49E7A5F97A9";
shapes = (
{
closed = 1;
nodes = (
(198,0,l),
(344,686,l),
(951,686,l),
(966,756,l),
(358,756,l),
(493,1386,l),
(1194,1386,l),
(1209,1456,l),
(418,1456,l),
(108,0,l)
);
}
);
width = 1057;
}
);
unicode = 70;
},
{
glyphname = G;
kernLeft = _O;
lastChange = "2024-05-29 19:57:21 +0000";
layers = (
{
guides = (
{
pos = (0,138);
},
{
pos = (0,250);
}
);
layerId = "E4F99366-6C9B-4FE4-BFF6-3C09ACD21B57";
shapes = (
{
closed = 1;
nodes = (
(809.535,-21,o),
(984.709,88,o),
(1098.221,208,c),
(1217.852,766,l),
(708.852,766,l),
(655.977,522,l),
(865.977,522,l),
(818.993,301,l),
(769.489,261,o),
(694.197,222,o),
(619.197,222,cs),
(468.197,222,o),
(422.583,332,o),
(422.198,476,cs),
(421.812,747,o),
(548.285,1229,o),
(893.285,1229,c),
(1013.285,1229,o),
(1109.781,1189,o),
(1188.514,1136,c),
(1317.506,1310,l),
(1265.711,1358,o),
(1138.01,1477,o),
(873.01,1477,cs),
(359.01,1477,o),
(100.545,948,o),
(101.135,471,cs),
(101.693,182,o),
(276.535,-21,o),
(544.535,-21,cs)
);
}
);
width = 1286;
},
{
guides = (
{
pos = (0,138);
},
{
pos = (0,1194);
},
{
pos = (0,250);
}
);
layerId = "4B48D498-D91D-4DFD-A68C-F91EB5F77E01";
shapes = (
{
closed = 1;
nodes = (
(851,-21,o),
(1050,171,o),
(1067,200,c),
(1180,732,l),
(696,732,l),
(663,577,l),
(947,577,l),
(882,267,l),
(803,189,o),
(687,138,o),
(570,138,cs),
(359,138,o),
(334,345,o),
(334,429,cs),
(334,908,o),
(536,1316,o),
(880,1316,cs),
(990,1316,o),
(1082,1289,o),
(1197,1206,c),
(1289,1331,l),
(1218,1389,o),
(1093,1477,o),
(868,1477,cs),
(458,1477,o),
(132,1086,o),
(132,426,cs),
(132,225,o),
(224,-21,o),
(539,-21,cs)
);
}
);
width = 1284;
},
{
guides = (
{
pos = (0,654);
},
{
pos = (0,2045);
}
);
layerId = "7E1A2F3E-9482-4B58-A0D1-B49E7A5F97A9";
shapes = (
{
closed = 1;
nodes = (
(846,-21,o),
(983,128,o),
(1035,192,c),
(1141,690,l),
(695,690,l),
(681,624,l),
(1039,624,l),
(950,205,l),
(889,126,o),
(764,48,o),
(604,48,cs),
(291,48,o),
(233,292,o),
(233,515,cs),
(233,994,o),
(536,1402,o),
(887,1402,c),
(1041,1404,o),
(1155,1340,o),
(1210,1295,c),
(1247,1351,l),
(1202,1388,o),
(1090,1477,o),
(889,1477,cs),
(467,1477,o),
(145,1011,o),
(145,510,cs),
(145,296,o),
(199,-21,o),
(590,-21,cs)
);
}
);
width = 1267;
}
);
unicode = 71;
},
{
glyphname = H;
lastChange = "2024-05-27 15:08:00 +0000";
layers = (
{
layerId = "E4F99366-6C9B-4FE4-BFF6-3C09ACD21B57";
shapes = (
{
closed = 1;
nodes = (
(344,0,l),
(474,610,l),
(966,610,l),
(836,0,l),
(1149,0,l),
(1458,1456,l),
(1145,1456,l),
(1018,854,l),
(526,854,l),
(653,1456,l),
(340,1456,l),
(31,0,l)
);
}
);
width = 1419;
},
{
layerId = "4B48D498-D91D-4DFD-A68C-F91EB5F77E01";
shapes = (
{
closed = 1;
nodes = (
(272,0,l),
(408,642,l),
(1041,642,l),
(905,0,l),
(1104,0,l),
(1413,1456,l),
(1214,1456,l),
(1074,797,l),
(441,797,l),
(581,1456,l),
(381,1456,l),
(72,0,l)
);
}
);
width = 1406;
},
{
layerId = "7E1A2F3E-9482-4B58-A0D1-B49E7A5F97A9";
shapes = (
{
closed = 1;
nodes = (
(198,0,l),
(345,690,l),
(1111,690,l),
(964,0,l),
(1054,0,l),
(1364,1456,l),
(1274,1456,l),
(1126,760,l),
(360,760,l),
(508,1456,l),
(418,1456,l),
(108,0,l)
);
}
);
width = 1388;
}
);
unicode = 72;
},
{
glyphname = I;
lastChange = "2024-05-27 15:13:59 +0000";
layers = (
{
anchors = (
{
name = top;
pos = (499,1456);
}
);
guides = (
{
angle = 78.14;
pos = (193,0);
}
);
layerId = "E4F99366-6C9B-4FE4-BFF6-3C09ACD21B57";
shapes = (
{
closed = 1;
nodes = (
(348,0,l),
(657.546,1456,l),
(344.546,1456,l),
(35,0,l)
);
}
);
width = 624;
},
{
anchors = (
{
name = top;
pos = (479,1456);
}
);
guides = (
{
angle = 78.14;
pos = (174,0);
}
);
layerId = "4B48D498-D91D-4DFD-A68C-F91EB5F77E01";
shapes = (
{
closed = 1;
nodes = (
(272,0,l),
(581,1456,l),
(381,1456,l),
(72,0,l)
);
}
);
width = 574;
},
{
anchors = (
{
name = top;
pos = (463,1456);
}
);
guides = (
{
angle = 78.14;
pos = (157,0);
}
);
layerId = "7E1A2F3E-9482-4B58-A0D1-B49E7A5F97A9";
shapes = (
{
closed = 1;
nodes = (
(198,0,l),
(508,1456,l),
(418,1456,l),
(108,0,l)
);
}
);
width = 532;
}
);
unicode = 73;
},
{
color = (153,254,255,255);
glyphname = Imacron;
lastChange = "2024-05-27 15:08:00 +0000";
layers = (
{
layerId = "E4F99366-6C9B-4FE4-BFF6-3C09ACD21B57";
shapes = (
{
closed = 1;
nodes = (
(853.949,1632,l),
(896.043,1830,l),
(268.043,1830,l),
(225.949,1632,l)
);
},
{
alignment = -1;
ref = I;
}
);
width = 624;
},
{
layerId = "4B48D498-D91D-4DFD-A68C-F91EB5F77E01";
shapes = (
{
closed = 1;
nodes = (
(798.628,1694,l),
(830.093,1842,l),
(297.093,1842,l),
(265.628,1694,l)
);
},
{
alignment = -1;
ref = I;
}
);
width = 574;
},
{
guides = (
{
angle = 78.14;
pos = (132,0);
}
);
layerId = "7E1A2F3E-9482-4B58-A0D1-B49E7A5F97A9";
shapes = (
{
closed = 1;
nodes = (
(742.958,1752,l),
(758.265,1824,l),
(324.265,1824,l),
(308.958,1752,l)
);
},
{
alignment = -1;
ref = I;
}
);
width = 532;
}
);
unicode = 298;
},
{
glyphname = J;
lastChange = "2024-05-29 18:16:40 +0000";
layers = (
{
guides = (
{
pos = (0,139);
showMeasurement = 1;
}
);
layerId = "E4F99366-6C9B-4FE4-BFF6-3C09ACD21B57";
shapes = (
{
closed = 1;
nodes = (
(602,-54,o),
(746.975,141,o),
(809.975,434,cs),
(1029.975,1456,l),
(716.975,1456,l),
(497.975,439,ls),
(460.203,263.593,o),
(392.974,188.804,o),
(281.999,190.01,cs),
(168,191.249,o),
(74.711,315.606,o),
(54.827,344.853,c),
(-94.914,182,l),
(-10.731,49.986,o),
(133.386,-54,o),
(306,-54,cs)
);
}
);
width = 1034;
},
{
guides = (
{
pos = (0,139);
}
);
layerId = "4B48D498-D91D-4DFD-A68C-F91EB5F77E01";
shapes = (
{
closed = 1;
nodes = (
(489,-21,o),
(681,87,o),
(760,458,cs),
(973,1456,l),
(773,1456,l),
(569,495,ls),
(514,235,o),
(399,140,o),
(267,140,cs),
(170,140,o),
(81,202,o),
(15,297,c),
(-93,181,l),
(4,45,o),
(129,-21,o),
(276,-21,cs)
);
}
);
width = 941;
},
{
guides = (
{
pos = (0,43);
}
);
layerId = "7E1A2F3E-9482-4B58-A0D1-B49E7A5F97A9";
shapes = (
{
closed = 1;
nodes = (
(463,-21,o),
(638,42,o),
(708,370,cs),
(939,1456,l),
(849,1456,l),
(618,370,ls),
(566,124,o),
(437,53,o),
(306,53,cs),
(156,53,o),
(23,189,o),
(1,220,c),
(-43,169,l),
(13,92,o),
(141,-21,o),
(315,-21,cs)
);
}
);
width = 962;
}
);
unicode = 74;
},
{
glyphname = K;
lastChange = "2024-05-29 16:20:21 +0000";
layers = (
{
layerId = "E4F99366-6C9B-4FE4-BFF6-3C09ACD21B57";
shapes = (
{
closed = 1;
nodes = (
(344,0,l),
(475,614,l),
(523,614,ls),
(575,614,o),
(597,601,o),
(619,540,cs),
(817,0,l),
(1180,0,l),
(846,736,l),
(1458,1456,l),
(1077,1456,l),
(613,858,l),
(526,858,l),
(653,1456,l),
(340,1456,l),
(31,0,l)
);
}
);
width = 1265;
},
{
layerId = "4B48D498-D91D-4DFD-A68C-F91EB5F77E01";
shapes = (
{
closed = 1;
nodes = (
(272,0,l),
(412,659,l),
(490,659,ls),
(541,659,o),
(569,648,o),
(599,591,c),
(885,0,l),
(1130,0,l),
(722,760,l),
(1401,1456,l),
(1131,1456,l),
(547,814,l),
(445,814,l),
(581,1456,l),
(381,1456,l),
(72,0,l)
);
}
);
width = 1218;
},
{
layerId = "7E1A2F3E-9482-4B58-A0D1-B49E7A5F97A9";
shapes = (
{
closed = 1;
nodes = (
(198,0,l),
(347,702,l),
(501,702,ls),
(542,702,o),
(557,685,o),
(581,650,c),
(961,0,l),
(1071,0,l),
(613,749,l),
(1301,1456,l),
(1192,1456,l),
(531,772,l),
(362,772,l),
(508,1456,l),
(418,1456,l),
(108,0,l)
);
}
);
width = 1189;
}
);
unicode = 75;
},
{
glyphname = L;
lastChange = "2024-05-29 17:19:26 +0000";
layers = (
{
layerId = "E4F99366-6C9B-4FE4-BFF6-3C09ACD21B57";
shapes = (
{
closed = 1;
nodes = (
(917,0,l),
(969,243,l),
(396,243,l),
(653,1456,l),
(340,1456,l),
(31,0,l)
);
}
);
width = 1043;
},
{
layerId = "4B48D498-D91D-4DFD-A68C-F91EB5F77E01";
shapes = (
{
closed = 1;
nodes = (
(881,0,l),
(913,155,l),
(304,155,l),
(581,1456,l),
(381,1456,l),
(72,0,l)
);
}
);
width = 1008;
},
{
guides = (
{
angle = 78.14;
pos = (871,0);
}
);
layerId = "7E1A2F3E-9482-4B58-A0D1-B49E7A5F97A9";
shapes = (
{
closed = 1;
nodes = (
(845,0,l),
(860,70,l),
(213,70,l),
(508,1456,l),
(418,1456,l),
(108,0,l)
);
}
);
width = 1009;
}
);
unicode = 76;
},
{
glyphname = Lslash;
lastChange = "2024-05-27 15:16:11 +0000";
layers = (
{
layerId = "E4F99366-6C9B-4FE4-BFF6-3C09ACD21B57";
shapes = (
{
closed = 1;
nodes = (
(169.535,525.55,l),
(58,0,l),
(944,0,l),
(996,243,l),
(423,243,l),
(511.528,660.84,l),
(881,807,l),
(934,1067,l),
(566.806,921.741,l),
(680,1456,l),
(367,1456,l),
(224.913,786.491,l),
(72,726,l),
(19,466,l)
);
}
);
width = 1070;
},
{
layerId = "4B48D498-D91D-4DFD-A68C-F91EB5F77E01";
shapes = (
{
closed = 1;
nodes = (
(202.533,586.796,l),
(78,0,l),
(887,0,l),
(919,155,l),
(310,155,l),
(420.882,675.786,l),
(787,825,l),
(820,985,l),
(455.096,836.481,l),
(587,1456,l),
(387,1456,l),
(236.654,747.573,l),
(78,683,l),
(46,523,l)
);
}
);
width = 1014;
},
{
guides = (
{
angle = 78.14;
pos = (871,0);
}
);
layerId = "7E1A2F3E-9482-4B58-A0D1-B49E7A5F97A9";
shapes = (
{
closed = 1;
nodes = (
(246.319,649.655,l),
(108,0,l),
(845,0,l),
(860,70,l),
(213,70,l),
(345.117,690.725,l),
(697,837,l),
(713,917,l),
(362.244,771.193,l),
(508,1456,l),
(418,1456,l),
(263.453,730.126,l),
(114,668,l),
(98,588,l)
);
}
);
width = 1009;
}
);
unicode = 321;
},
{
glyphname = M;
lastChange = "2024-05-27 15:08:00 +0000";
layers = (
{
guides = (
{
pos = (0,1226);
},
{
pos = (0,1065);
}
);
layerId = "E4F99366-6C9B-4FE4-BFF6-3C09ACD21B57";
shapes = (
{
closed = 1;
nodes = (
(344,0,l),
(427,392,l),
(538,1063,l),
(544,1064,l),
(633,0,l),
(855,0,l),
(1390,1065,l),
(1396,1064,l),
(1217,392,l),
(1134,0,l),
(1447,0,l),
(1756,1456,l),
(1346,1456,l),
(818,396,l),
(812,396,l),
(747,1456,l),
(340,1456,l),
(31,0,l)
);
}
);
width = 1717;
},
{
guides = (
{
pos = (0,1226);
}
);
layerId = "4B48D498-D91D-4DFD-A68C-F91EB5F77E01";
shapes = (
{
closed = 1;
nodes = (
(271,0,l),
(391,567,l),
(505,1175,l),
(511,1175,l),
(667,0,l),
(799,0,l),
(1462,1177,l),
(1467,1176,l),
(1317,567,l),
(1197,0,l),
(1396,0,l),
(1705,1456,l),
(1442,1456,l),
(787,272,l),
(781,272,l),
(644,1456,l),
(381,1456,l),
(72,0,l)
);
}
);
width = 1698;
},
{
guides = (
{
pos = (0,1230);
},
{
pos = (0,1325);
},
{
pos = (0,562);
}
);
layerId = "7E1A2F3E-9482-4B58-A0D1-B49E7A5F97A9";
shapes = (
{
closed = 1;
nodes = (
(198,0,l),
(276,366,l),
(466,1325,l),
(470,1325,l),
(695,0,l),
(767,0,l),
(1549,1325,l),
(1553,1325,l),
(1333,367,l),
(1255,0,l),
(1344,0,l),
(1654,1456,l),
(1546,1456,l),
(756,127,l),
(750,127,l),
(525,1456,l),
(418,1456,l),
(108,0,l)
);
}
);
width = 1678;
}
);
unicode = 77;
},
{
glyphname = N;
lastChange = "2024-05-27 15:17:07 +0000";
layers = (
{
anchors = (
{
name = top;
pos = (895,1456);
}
);
guides = (
{
angle = 78.14;
pos = (589,0);
}
);
layerId = "E4F99366-6C9B-4FE4-BFF6-3C09ACD21B57";
shapes = (
{
closed = 1;
nodes = (
(344,0,l),
(425.701,389,l),
(519.828,1034,l),
(525.254,1036,l),
(848,0,l),
(1149,0,l),
(1458.546,1456,l),
(1145.546,1456,l),
(1067.395,1079,l),
(974.379,411,l),
(967.953,409,l),
(640.546,1456,l),
(339.546,1456,l),
(30,0,l)
);
}
);
width = 1420;
},
{
anchors = (
{
name = top;
pos = (898,1456);
}
);
guides = (
{
angle = 78.14;
pos = (592,0);
}
);
layerId = "4B48D498-D91D-4DFD-A68C-F91EB5F77E01";
shapes = (
{
closed = 1;
nodes = (
(272,0,l),
(394,553,l),
(503,1144,l),
(509,1146,l),
(907,0,l),
(1104,0,l),
(1413,1456,l),
(1214,1456,l),
(1094,915,l),
(982,313,l),
(976,311,l),
(579,1456,l),
(381,1456,l),
(72,0,l)
);
}
);
width = 1406;
},
{
anchors = (
{
name = top;
pos = (896,1456);
}
);
guides = (
{
angle = 90;
pos = (-1536,0);
},
{
angle = 78.14;
pos = (590,0);
}
);
layerId = "7E1A2F3E-9482-4B58-A0D1-B49E7A5F97A9";
shapes = (
{
closed = 1;
nodes = (
(198,0,l),
(333,617,l),
(478,1316,l),
(479,1316,l),
(967,0,l),
(1055,0,l),
(1365,1456,l),
(1277,1456,l),
(1148,861,l),
(1000,146,l),
(1000,148,l),
(508,1456,l),
(418,1456,l),
(108,0,l)
);
}
);
width = 1389;
}
);
unicode = 78;
},
{
glyphname = O;
kernLeft = _O;
kernRight = _O;
lastChange = "2024-05-29 18:09:12 +0000";
layers = (
{
anchors = (
{
name = top;
pos = (855,1456);
}
);
guides = (
{
pos = (0,1477);
},
{
angle = 78.14;
pos = (549,0);
}
);
layerId = "E4F99366-6C9B-4FE4-BFF6-3C09ACD21B57";
shapes = (
{
closed = 1;
nodes = (
(1093.535,-21,o),
(1301.985,602,o),
(1302.403,1032,cs),
(1302.868,1307,o),
(1153.01,1477,o),
(855.01,1477,cs),
(316.01,1477,o),
(105.576,887,o),
(95.072,466,cs),
(87.465,148,o),
(240.535,-21,o),
(538.535,-21,cs)
);
},
{
closed = 1;
nodes = (
(473.41,223,o),
(409.205,302,o),
(407.308,453,cs),
(405.017,668,o),
(515.923,1232,o),
(802.923,1232,cs),
(918.923,1232,o),
(985.191,1158,o),
(986.088,1007,cs),
(987.379,792,o),
(877.41,223,o),
(590.41,223,cs)
);
}
);
width = 1326;
},
{
anchors = (
{
name = top;
pos = (864,1456);
}
);
guides = (
{
angle = 78.14;
pos = (557,0);
}
);
layerId = "4B48D498-D91D-4DFD-A68C-F91EB5F77E01";
shapes = (
{
closed = 1;
nodes = (
(1041.111,-21,o),
(1274.373,566.016,o),
(1278.111,1012,cs),
(1280.449,1291,o),
(1142.111,1477,o),
(880.449,1477,cs),
(366.449,1477,o),
(133.186,889.984,o),
(129.449,444,cs),
(127.111,165,o),
(265.449,-21,o),
(529.449,-21,cs)
);
},
{
closed = 1;
nodes = (
(379.323,139,o),
(331.693,293.002,o),
(332.449,436,cs),
(334.574,838,o),
(550.236,1317,o),
(845.236,1317,cs),
(1022.236,1317,o),
(1075.867,1162.998,o),
(1075.111,1020,cs),
(1072.985,618,o),
(856.323,139,o),
(562.323,139,cs)
);
}
);
width = 1330.09;
},
{
anchors = (
{
name = top;
pos = (852.38,1456);
}
);
guides = (
{
pos = (0.38,1577);
},
{
pos = (0.38,-187);
},
{
pos = (0.38,727);
},
{
angle = 90;
pos = (181.38,0);
},
{
angle = 90;
pos = (1201.38,0);
},
{
angle = 90;
pos = (693.38,0);
},
{
angle = 78.14;
pos = (546.38,0);
}
);
layerId = "7E1A2F3E-9482-4B58-A0D1-B49E7A5F97A9";
shapes = (
{
closed = 1;
nodes = (
(949.38,-21,o),
(1249.805,463,o),
(1249.805,969,cs),
(1249.805,1219,o),
(1179.38,1477,o),
(852.38,1477,cs),
(442.38,1477,o),
(141.38,982,o),
(141.38,490,cs),
(141.38,257,o),
(199.38,-21,o),
(539.38,-21,cs)
);
},
{
closed = 1;
nodes = (
(366.38,50,o),
(229.38,183,o),
(229.38,459,c),
(229.38,980,o),
(512.38,1407,o),
(859.38,1407,cs),
(1028.38,1407,o),
(1161.38,1270,o),
(1161.38,998,cs),
(1161.38,459,o),
(868.38,50,o),
(528.38,50,cs)
);
}
);
width = 1322.35;
}
);
unicode = 79;
},
{
glyphname = Oslash;
kernLeft = _O;
kernRight = _O;
lastChange = "2024-05-29 19:41:57 +0000";
layers = (
{
layerId = "E4F99366-6C9B-4FE4-BFF6-3C09ACD21B57";
shapes = (
{
closed = 1;
nodes = (
(300,-137,l),
(391.45,-4.49,l),
(435.85,-15.45,o),
(485.05,-21,o),
(539,-21,cs),
(1094,-21,o),
(1302,602,o),
(1302,1032,c),
(1302.48,1163.38,o),
(1268.46,1270.77,o),
(1200.33,1347.13,c),
(1365,1587,l),
(1098,1587,l),
(1009.42,1458.84,l),
(963.33,1470.78,o),
(911.88,1477,o),
(855,1477,cs),
(316,1477,o),
(106,887,o),
(95,466,cs),
(91.03,308.05,o),
(127.04,186.88,o),
(200.79,104.9,c),
(34,-137,l)
);
},
{
closed = 1;
nodes = (
(473,223,o),
(409,302,o),
(407,453,cs),
(405,668,o),
(516,1232,o),
(803,1232,cs),
(919,1232,o),
(985,1158,o),
(986,1007,cs),
(987,792,o),
(877,223,o),
(590,223,cs)
);
}
);
width = 1325.66;
},
{
layerId = "4B48D498-D91D-4DFD-A68C-F91EB5F77E01";
shapes = (
{
closed = 1;
nodes = (
(206.06,-137,l),
(321.06,24,l),
(373.06,-4,o),
(438.06,-21,o),
(516.06,-21,cs),
(1043.06,-21,o),
(1280.06,566,o),
(1280.06,1020,cs),
(1280.06,1137,o),
(1252.06,1241,o),
(1196.06,1321,c),
(1385.06,1586,l),
(1182.06,1586,l),
(1071.06,1431,l),
(1015.06,1460,o),
(947.06,1477,o),
(868.06,1477,cs),
(297.06,1477,o),
(131.06,820,o),
(131.06,416,cs),
(131.06,314,o),
(152.06,216,o),
(199.06,140,c),
(3.06,-137,l)
);
},
{
closed = 1;
nodes = (
(422.06,138,o),
(329.06,245,o),
(329.06,427,cs),
(329.06,737,o),
(493.06,1316,o),
(839.06,1316,cs),
(1022.06,1316,o),
(1077.06,1163,o),
(1077.06,994,cs),
(1077.06,628,o),
(858.06,138,o),
(558.06,138,cs)
);
}
);
width = 1332.52;
},
{
guides = (
{
pos = (-10.42,2190);
}
);
layerId = "7E1A2F3E-9482-4B58-A0D1-B49E7A5F97A9";
shapes = (
{
closed = 1;
nodes = (
(137.58,-137,l),
(288.58,71,l),
(350.58,14,o),
(430.58,-21,o),
(552.58,-21,cs),
(962.58,-21,o),
(1252.58,461,o),
(1252.58,947,cs),
(1252.58,1069,o),
(1241.58,1188,o),
(1193.58,1283,c),
(1399.58,1566,l),
(1305.58,1566,l),
(1145.58,1350,l),
(1083.58,1428,o),
(987.58,1477,o),
(845.58,1477,cs),
(435.58,1477,o),
(144.58,982,o),
(144.58,510,cs),
(144.58,374,o),
(163.58,232,o),
(233.58,128,c),
(38.58,-137,l)
);
},
{
closed = 1;
nodes = (
(379.58,50,o),
(232.58,183,o),
(232.58,479,cs),
(232.58,980,o),
(505.58,1407,o),
(859.58,1407,cs),
(1021.58,1407,o),
(1164.58,1270,o),
(1164.58,978,cs),
(1164.58,459,o),
(881.58,50,o),
(535.58,50,cs)
);
}
);
width = 1328.75;
}
);
unicode = 216;
},
{
glyphname = OE;
kernLeft = _O;
kernRight = _E;
lastChange = "2024-05-29 19:42:14 +0000";
layers = (
{
layerId = "E4F99366-6C9B-4FE4-BFF6-3C09ACD21B57";
shapes = (
{
closed = 1;
nodes = (
(630.55,-22,o),
(702.65,-14.02,o),
(765.76,-1,c),
(1701,-1,l),
(1753,243,l),
(1129,243,l),
(1211,630,l),
(1731,630,l),
(1783,873,l),
(1263,873,l),
(1335,1211,l),
(1949,1211,l),
(2000,1455,l),
(1082.6,1455,l),
(1025.75,1468.26,o),
(956.55,1476,o),
(875,1476,cs),
(340,1476,o),
(104,941,o),
(104,485,cs),
(104,157,o),
(294,-22,o),
(552,-22,cs)
);
},
{
closed = 1;
nodes = (
(501,241,o),
(432,335,o),
(432,516,cs),
(432,853,o),
(603,1221,o),
(869,1221,cs),
(929.2,1221,o),
(978.32,1209.67,o),
(1018.52,1193.58,c),
(823.3,273.72,l),
(758.31,248.33,o),
(704.51,241,o),
(652,241,cs)
);
}
);
width = 1894;
},
{
layerId = "4B48D498-D91D-4DFD-A68C-F91EB5F77E01";
shapes = (
{
closed = 1;
nodes = (
(651.26,-21,o),
(787.26,-1,o),
(798.26,0,c),
(1683.26,0,l),
(1715.26,154,l),
(1027.26,154,l),
(1138.26,675,l),
(1732.26,675,l),
(1765.26,830,l,{
name = hr01;
}),
(1171.26,830,l),
(1271.26,1300,l),
(1950.26,1300,l),
(1983.26,1456,l),
(1104.26,1456,l),
(1073.26,1462,o),
(967.26,1477,o),
(865.26,1477,cs),
(416.26,1477,o),
(135.26,1015,o),
(135.26,437,cs),
(135.26,113,o),
(299.26,-21,o),
(547.26,-21,cs)
);
},
{
closed = 1;
nodes = (
(424.26,138,o),
(337.26,248,o),
(337.26,444,cs),
(337.26,937,o),
(562.26,1316,o),
(861.26,1316,cs),
(963.26,1316,o),
(1044.26,1294,o),
(1067.26,1281,c),
(831.26,170,l),
(821.26,169,o),
(723.26,138,o),
(601.26,138,cs)
);
}
);
width = 1885.26;
},
{
guides = (
{
pos = (0.7,-20);
}
);
layerId = "7E1A2F3E-9482-4B58-A0D1-B49E7A5F97A9";
shapes = (
{
closed = 1;
nodes = (
(678.7,-21,o),
(739.7,-17,o),
(795.7,0,c),
(1634.7,0,l),
(1649.7,70,l),
(899.7,70,l),
(1039.7,727,l),
(1672.7,727,l),
(1687.7,797,l),
(1054.7,797,l),
(1179.7,1386,l,{
name = hr02;
}),
(1915.7,1386,l),
(1930.7,1456,l,{
name = hr01;
}),
(1104.7,1456,l),
(1058.7,1468,o),
(994.7,1477,o),
(913.7,1477,cs),
(423.7,1477,o),
(145.7,995,o),
(145.7,509,cs),
(145.7,236,o),
(246.7,-21,o),
(626.7,-21,cs)
);
},
{
closed = 1;
nodes = (
(384.7,55,o),
(233.7,198,o),
(233.7,509,cs),
(233.7,998,o),
(517.7,1402,o),
(913.7,1402,cs,{
name = hr03;
}),
(963.7,1402,o),
(1029.7,1392,o),
(1086.7,1374,c),
(811.7,81,l),
(756.7,59,o),
(697.7,55,o),
(641.7,55,cs,{
name = hr04;
})
);
}
);
width = 1824.7;
}
);
unicode = 338;
},
{
glyphname = P;
lastChange = "2024-05-27 15:08:00 +0000";
layers = (
{
layerId = "E4F99366-6C9B-4FE4-BFF6-3C09ACD21B57";
shapes = (
{
closed = 1;
nodes = (
(344,0,l),
(452,510,l),
(646,510,ls),
(1012,510,o),
(1315,698,o),
(1315,1087,cs),
(1315,1319,o),
(1149,1456,o),
(809,1456,cs),
(340,1456,l),
(31,0,l)
);
},
{
closed = 1;
nodes = (
(602,1212,l),
(793,1212,ls),
(937,1212,o),
(997,1143,o),
(997,1044,cs),
(997,870,o),
(873,754,o),
(698,754,cs),
(504,754,l)
);
}
);
width = 1260;
},
{
layerId = "4B48D498-D91D-4DFD-A68C-F91EB5F77E01";
shapes = (
{
closed = 1;
nodes = (
(272,0,l),
(395,579,l),
(678,579,ls),
(1008,579,o),
(1264,768,o),
(1264,1109,cs),
(1264,1319,o),
(1097,1456,o),
(834,1456,cs),
(381,1456,l),
(72,0,l)
);
},
{
closed = 1;
nodes = (
(548,1300,l),
(811,1300,ls),
(985,1300,o),
(1060,1223,o),
(1060,1082,cs),
(1060,881,o),
(900,734,o),
(691,734,cs),
(428,734,l)
);
}
);
width = 1187;
},
{
guides = (
{
pos = (0,648);
}
);
layerId = "7E1A2F3E-9482-4B58-A0D1-B49E7A5F97A9";
shapes = (
{
closed = 1;
nodes = (
(198,0,l),
(330.529,638,l),
(595,638,ls),
(961,638,o),
(1194.144,826.996,o),
(1193.275,1111,cs),
(1192.59,1334.996,o),
(1066,1456,o),
(776,1456,cs),
(418,1456,l),
(108,0,l)
);
},
{
closed = 1;
nodes = (
(493,1386,l),
(751,1386,ls),
(991,1386,o),
(1105.85,1302,o),
(1105,1095,cs),
(1104.228,907.002,o),
(948,708,o),
(610,708,cs),
(345.485,708,l)
);
}
);
width = 1168;
}
);
unicode = 80;
},
{
glyphname = Thorn;
lastChange = "2024-05-27 15:08:00 +0000";
layers = (
{
layerId = "E4F99366-6C9B-4FE4-BFF6-3C09ACD21B57";
shapes = (
{
closed = 1;
nodes = (
(343,0,l),
(403,283,l),
(584,283,ls),
(916,283,o),
(1209,486,o),
(1209,821,cs),
(1209,1056,o),
(1058,1193,o),
(778,1193,cs),
(597,1193,l),
(652,1456,l),
(340,1456,l),
(31,0,l)
);
},
{
closed = 1;
nodes = (
(545,950,l),
(722,949,ls),
(840,948,o),
(891,885,o),
(891,786,cs),
(891,650,o),
(790,526,o),
(632,526,cs),
(455,526,l)
);
}
);
width = 1202;
},
{
layerId = "4B48D498-D91D-4DFD-A68C-F91EB5F77E01";
shapes = (
{
closed = 1;
nodes = (
(272,0,l),
(338,311,l),
(538,311,ls),
(911,311,o),
(1143,539,o),
(1143,822,cs),
(1143,1016,o),
(1008,1164,o),
(719,1164,cs),
(519,1164,l),
(581,1456,l),
(381,1456,l),
(72,0,l)
);
},
{
closed = 1;
nodes = (
(486,1010,l),
(686,1010,ls,{
name = hr02;
}),
(872,1010,o),
(938,923,o),
(938,809,cs),
(938,636,o),
(806,465,o),
(550,465,cs,{
name = hr01;
}),
(370,465,l)
);
}
);
width = 1133;
},
{
guides = (
{
pos = (0,321);
},
{
pos = (0,1155);
}
);
layerId = "7E1A2F3E-9482-4B58-A0D1-B49E7A5F97A9";
shapes = (
{
closed = 1;
nodes = (
(198,0,l),
(266,321,l),
(435,321,ls),
(927,321,o),
(1114,538,o),
(1114,808,cs),
(1114,1046,o),
(969,1155,o),
(673,1155,cs),
(444,1155,l),
(508,1456,l),
(418,1456,l),
(108,0,l)
);
},
{
closed = 1;
nodes = (
(429,1085,l),
(658,1085,ls),
(911,1085,o),
(1026,999,o),
(1026,801,cs),
(1026,582,o),
(868,391,o),
(450,391,cs),
(281,391,l)
);
}
);
width = 1164;
}
);
unicode = 222;
},
{
glyphname = Q;
kernLeft = _O;
kernRight = _O;
lastChange = "2024-05-29 17:13:04 +0000";
layers = (
{
guides = (
{
angle = 90;
pos = (824,0);
}
);
layerId = "E4F99366-6C9B-4FE4-BFF6-3C09ACD21B57";
shapes = (
{
closed = 1;
nodes = (
(855,-438,o),
(922,-424,o),
(1003,-397,c),
(993,-180,l),
(950,-192,o),
(883,-205,o),
(852,-205,cs),
(713,-205,o),
(665,-96,o),
(510,-91,c),
(767.692,18.633,ls),
(1161.182,186.04,o),
(1302,671.569,o),
(1302,1032,cs),
(1302,1307,o),
(1153,1477,o),
(855,1477,cs),
(316,1477,o),
(106,887,o),
(95,466,cs),
(88.28,198.81,o),
(195.95,36.85,o),
(407.28,-8.1,c),
(174,-140,l),
(196,-358,l),
(274,-313,o),
(344,-300,o),
(392,-300,cs),
(536,-300,o),
(577,-438,o),
(799,-438,cs)
);
},
{
closed = 1;
nodes = (
(473,223,o),
(409,302,o),
(407,453,cs),
(405,668,o),
(516,1232,o),
(803,1232,cs),
(919,1232,o),
(985,1158,o),
(986,1007,cs),
(987,792,o),
(877,223,o),
(590,223,cs)
);
}
);
width = 1326;
},
{
guides = (
{
angle = 90;
pos = (1114,0);
}
);
layerId = "4B48D498-D91D-4DFD-A68C-F91EB5F77E01";
shapes = (
{
closed = 1;
nodes = (
(881,-436,o),
(935,-424,o),
(979,-408,c),
(973,-257,l),
(966,-260,o),
(903,-273,o),
(866,-273,cs),
(726,-273,o),
(687,-96,o),
(532,-65,c),
(711.785,1.714,ls),
(1100.739,146.046,o),
(1274.827,620.229,o),
(1278.111,1012,cs),
(1280.449,1291,o),
(1142.111,1477,o),
(880.449,1477,cs),
(366.449,1477,o),
(133.186,889.984,o),
(129.449,444,cs),
(127.42,201.915,o),
(231.304,29.849,o),
(431.292,-11.447,c),
(193,-139,l),
(213,-298,l),
(286,-243,o),
(363,-213,o),
(421,-213,cs),
(590,-213,o),
(619,-436,o),
(837,-436,cs)
);
},
{
closed = 1;
nodes = (
(379.323,139,o),
(331.693,293.002,o),
(332.449,436,cs),
(334.574,838,o),
(550.236,1317,o),
(845.236,1317,cs),
(1022.236,1317,o),
(1075.867,1162.998,o),
(1075.111,1020,cs),
(1072.985,618,o),
(856.323,139,o),
(562.323,139,cs)
);
}
);
width = 1330.29;
},
{
guides = (
{
angle = 90;
pos = (-2052,0);
},
{
angle = 90;
pos = (-2052,0);
},
{
angle = 90;
pos = (1150,0);
}
);
layerId = "7E1A2F3E-9482-4B58-A0D1-B49E7A5F97A9";
shapes = (
{
closed = 1;
nodes = (
(904,-434,o),
(941,-422,o),
(979,-400,c),
(975,-339,l),
(941,-353,o),
(912,-361,o),
(886,-361,cs),
(740,-361,o),
(704,-83,o),
(478,-83,c),
(690,-4,ls),
(1052,125,o),
(1245,507,o),
(1253,947,cs),
(1258,1217,o),
(1173,1477,o),
(846,1477,cs),
(436,1477,o),
(145,982,o),
(145,510,cs),
(145,275,o),
(204,18,o),
(485,-17,c,{
name = hr01;
}),
(235,-138,l),
(251,-208,l),
(322,-163,o),
(382,-151,o),
(432,-151,cs),
(634,-151,o),
(674,-434,o),
(872,-434,cs)
);
},
{
closed = 1;
nodes = (
(380,50,o),
(233,183,o),
(233,479,cs),
(233,980,o),
(506,1407,o),
(860,1407,cs),
(1022,1407,o),
(1165,1270,o),
(1165,978,cs),
(1165,459,o),
(882,50,o),
(536,50,cs)
);
}
);
width = 1328.8;
}
);
unicode = 81;
},
{
glyphname = R;
lastChange = "2024-05-27 15:08:00 +0000";
layers = (
{
layerId = "E4F99366-6C9B-4FE4-BFF6-3C09ACD21B57";
shapes = (
{
closed = 1;
nodes = (
(344,0,l),
(465,568,l),
(564,568,ls),
(620,568,o),
(641,536,o),
(650,497,cs),
(766,0,l),
(1109,0,l),
(910,632,l),
(1121,698,o),
(1282,872,o),
(1282,1105,cs),
(1282,1317,o),
(1132,1455,o),
(789,1455,cs),
(340,1455,l),
(31,0,l)
);
},
{
closed = 1;
nodes = (
(602,1212,l),
(765,1212,ls),
(895,1212,o),
(963,1151,o),
(963,1054,cs),
(963,931,o),
(854,812,o),
(698,812,cs),
(517,812,l)
);
}
);
width = 1256;
},
{
layerId = "4B48D498-D91D-4DFD-A68C-F91EB5F77E01";
shapes = (
{
closed = 1;
nodes = (
(272,0,l),
(405,630,l),
(594,630,ls),
(650,630,o),
(672,600,o),
(682,562,cs),
(838,0,l),
(1067,0,l),
(844,658,l),
(1071,724,o),
(1242,864,o),
(1242,1124,cs),
(1242,1329,o),
(1089,1455,o),
(837,1455,cs),
(381,1455,l),
(72,0,l)
);
},
{
closed = 1;
nodes = (
(548,1300,l),
(804,1300,ls),
(983,1300,o),
(1037,1199,o),
(1037,1099,cs),
(1037,923,o),
(890,785,o),
(675,785,cs),
(438,785,l)
);
}
);
width = 1230;
},
{
guides = (
{
pos = (0,702);
}
);
layerId = "7E1A2F3E-9482-4B58-A0D1-B49E7A5F97A9";
shapes = (
{
closed = 1;
nodes = (
(198,0,l),
(341,672,l),
(589,672,ls),
(625,672,o),
(671,675,o),
(689,623,cs),
(907,0,l),
(1007,0,l),
(754,678,l),
(1089,733,o),
(1194.826,941,o),
(1194.826,1134,cs),
(1194.826,1314,o),
(1075,1455,o),
(781,1455,cs),
(418,1455,l),
(108,0,l)
);
},
{
closed = 1;
nodes = (
(493,1385,l),
(766,1385,ls),
(1000,1385,o),
(1107.826,1296,o),
(1107.826,1114,cs),
(1107.826,922,o),
(946,742,o),
(662,742,cs),
(356,742,l)
);
}
);
width = 1211;
}
);
unicode = 82;
},
{
glyphname = S;
lastChange = "2024-05-29 18:11:47 +0000";
layers = (
{
anchors = (
{
name = top;
pos = (722,1456);
}
);
guides = (
{
pos = (0,1309);
},
{
pos = (0,149);
},
{
angle = 78.14;
pos = (423,0);
}
);
layerId = "E4F99366-6C9B-4FE4-BFF6-3C09ACD21B57";
shapes = (
{
closed = 1;
nodes = (
(771.535,-20,o),
(1002.913,180.7,o),
(1007.922,471,cs),
(1011.631,686,o),
(867.916,780.764,o),
(698.088,881,cs),
(590.744,944.357,o),
(491.213,993.805,o),
(489.545,1076,cs),
(487.743,1164.845,o),
(554.145,1227.954,o),
(694.774,1237,cs),
(788.049,1243,o),
(914.141,1194,o),
(1004.684,1126,c),
(1122.656,1307,l),
(1045.963,1379,o),
(891.223,1479,o),
(672.01,1478,cs),
(343.693,1476.502,o),
(180.105,1238.982,o),
(177.702,1025,cs),
(175.198,801.982,o),
(356.58,693.672,o),
(508.473,610,cs),
(632.543,541.656,o),
(693.918,496.161,o),
(697.435,421.727,cs),
(702.694,310.418,o),
(601.622,225,o),
(458.622,225,cs),
(327.622,225,o),
(151.481,309,o),
(91.662,371,c),
(-28.669,186,l),
(67.496,88,o),
(244.535,-20,o),
(480.535,-20,cs)
);
}
);
width = 1099;
},
{
anchors = (
{
name = top;
pos = (750.42,1456);
}
);
guides = (
{
pos = (-0.58,1309);
},
{
pos = (-0.58,149);
},
{
angle = 78.14;
pos = (432.42,0);
}
);
layerId = "4B48D498-D91D-4DFD-A68C-F91EB5F77E01";
shapes = (
{
closed = 1;
nodes = (
(801.214,-40,o),
(975.993,169,o),
(975.427,402,cs),
(975.001,577,o),
(899.623,683.086,o),
(651.852,813,cs),
(476.772,904.8,o),
(432.581,977.945,o),
(433.188,1067.999,cs),
(434.032,1193.006,o),
(530.214,1293,o),
(723.214,1293,cs),
(867.214,1293,o),
(997.214,1209,o),
(1044.214,1165,c),
(1144.214,1288,l),
(1042.576,1385,o),
(877.214,1456,o),
(726.214,1456,cs),
(446.214,1456,o),
(234.214,1313,o),
(234.214,1028,cs),
(234.214,866,o),
(315.574,757.07,o),
(586.001,610,cs),
(714.599,540.063,o),
(776.364,483,o),
(777.024,368.001,cs),
(777.869,221.003,o),
(637.214,123,o),
(454.214,123,cs),
(282.214,123,o),
(150.214,202,o),
(105.214,252,c),
(4.214,128,l),
(89.214,47,o),
(258.214,-40,o),
(470.214,-40,cs)
);
}
);
width = 1106.35;
},
{
anchors = (
{
name = top;
pos = (748,1456);
}
);
guides = (
{
pos = (0,746);
},
{
pos = (0,1120);
},
{
angle = 90;
pos = (988,0);
},
{
angle = 90;
pos = (112,0);
},
{
angle = 90;
pos = (-1289,0);
},
{
angle = 90;
pos = (-304,0);
},
{
angle = 78.14;
pos = (444,0);
}
);
layerId = "7E1A2F3E-9482-4B58-A0D1-B49E7A5F97A9";
shapes = (
{
closed = 1;
nodes = (
(745,-21,o),
(959,141,o),
(959,377,cs),
(959,558,o),
(845,663,o),
(662,777,cs),
(458,904,o),
(371,970,o),
(371,1124,cs),
(371,1303,o),
(548,1404,o),
(743,1404,cs),
(891,1404,o),
(1038,1338,o),
(1106,1276,c),
(1141,1333,l),
(1076,1403,o),
(910,1477,o),
(741,1477,cs),
(514,1477,o),
(283,1375,o),
(283,1094,cs),
(283,956,o),
(362,859,o),
(586,716,cs),
(792,585,o),
(871,501,o),
(871,364,cs),
(871,181,o),
(680,55,o),
(468,55,cs),
(263,55,o),
(121,164,o),
(87,201,c),
(46,141,l),
(122,69,o),
(277,-21,o),
(465,-21,cs)
);
}
);
width = 1125;
}
);
unicode = 83;
},
{
glyphname = T;
lastChange = "2024-05-29 18:15:21 +0000";
layers = (
{
layerId = "E4F99366-6C9B-4FE4-BFF6-3C09ACD21B57";
shapes = (
{
closed = 1;
nodes = (
(551,0,l),
(809,1212,l),
(1161,1212,l),
(1212,1456,l),
(195,1456,l),
(144,1212,l),
(496,1212,l),
(238,0,l)
);
}
);
width = 1029;
},
{
layerId = "4B48D498-D91D-4DFD-A68C-F91EB5F77E01";
shapes = (
{
closed = 1;
nodes = (
(509,0,l),
(785,1301,l),
(1206,1301,l),
(1239,1456,l),
(198,1456,l),
(165,1301,l),
(585,1301,l),
(309,0,l)
);
}
);
width = 1049;
},
{
layerId = "7E1A2F3E-9482-4B58-A0D1-B49E7A5F97A9";
shapes = (
{
closed = 1;
nodes = (
(487,0,l),
(782,1386,l),
(1254,1386,l),
(1269,1456,l),
(238,1456,l),
(223,1386,l),
(692,1386,l),
(397,0,l)
);
}
);
width = 1113;
}
);
unicode = 84;
},
{
glyphname = U;
kernLeft = _U;
kernRight = _U;
lastChange = "2024-05-29 16:34:32 +0000";
layers = (
{
anchors = (
{
name = top;
pos = (857,1456);
}
);
guides = (
{
angle = 78.14;
pos = (553,0);
}
);
layerId = "E4F99366-6C9B-4FE4-BFF6-3C09ACD21B57";
shapes = (
{
closed = 1;
nodes = (
(876.535,-53,o),
(1118.725,89,o),
(1196.111,453,cs),
(1410.349,1456,l),
(1097.349,1456,l),
(883.111,453,ls),
(844.63,272,o),
(736.197,190,o),
(597.197,190,cs),
(451.197,190,o),
(382.268,275,o),
(420.111,453,cs),
(634.349,1456,l),
(321.349,1456,l),
(107.111,453,ls),
(39.292,134,o),
(228.535,-53,o),
(546.535,-53,cs)
);
}
);
width = 1351;
},
{
anchors = (
{
name = top;
pos = (856,1456);
}
);
guides = (
{
angle = 78.14;
pos = (552,0);
}
);
layerId = "4B48D498-D91D-4DFD-A68C-F91EB5F77E01";
shapes = (
{
closed = 1;
nodes = (
(879,-21,o),
(1088,139,o),
(1165,500,cs),
(1368,1456,l),
(1169,1456,l),
(966,500,ls),
(907,222,o),
(744.434,133,o),
(586,133,cs),
(410,133,o),
(291.977,223.205,o),
(351.091,500.273,cs),
(555,1456,l),
(356,1456,l),
(152.546,500,ls),
(73.396,128.09,o),
(314.612,-21,o),
(551,-21,cs)
);
}
);
width = 1336;
},
{
anchors = (
{
name = top;
pos = (876,1456);
}
);
guides = (
{
angle = 78.14;
pos = (572,0);
}
);
layerId = "7E1A2F3E-9482-4B58-A0D1-B49E7A5F97A9";
shapes = (
{
closed = 1;
nodes = (
(879,-21,o),
(1063,120,o),
(1130,433,cs),
(1348,1456,l),
(1260,1456,l),
(1042,433,ls),
(985,166,o),
(811,49,o),
(601,49,cs),
(377,49,o),
(238,183,o),
(291,433,cs),
(509,1456,l),
(419,1456,l),
(201,433,ls),
(139,140,o),
(321,-21,o),
(586,-21,cs)
);
}
);
width = 1371;
}
);
unicode = 85;
},
{
glyphname = V;
lastChange = "2024-05-29 18:17:11 +0000";
layers = (
{
layerId = "E4F99366-6C9B-4FE4-BFF6-3C09ACD21B57";
shapes = (
{
closed = 1;
nodes = (
(658,0,l),
(1408,1456,l),
(1068,1456,l),
(581,403,l),
(549,319,l),
(543,319,l),
(547,403,l),
(505,1456,l),
(190,1456,l),
(327,0,l)
);
}
);
width = 1223;
},
{
layerId = "4B48D498-D91D-4DFD-A68C-F91EB5F77E01";
shapes = (
{
closed = 1;
nodes = (
(565,0,l),
(1364,1456,l),
(1146,1456,l),
(563,341,l),
(518,242,l),
(512,242,l),
(507,342,l),
(418,1456,l),
(203,1456,l),
(383,0,l)
);
}
);
width = 1185;
},
{
layerId = "7E1A2F3E-9482-4B58-A0D1-B49E7A5F97A9";
shapes = (
{
closed = 1;
nodes = (
(505,0,l),
(1340,1456,l),
(1239,1456,l),
(571,279,l),
(500,130,l),
(493,130,l),
(483,281,l),
(323,1456,l),
(226,1456,l),
(442,0,l)
);
}
);
width = 1184;
}
);
unicode = 86;
},
{
glyphname = W;
lastChange = "2024-05-29 18:17:00 +0000";
layers = (
{
anchors = (
{
name = top;
pos = (1022,1456);
}
);
guides = (
{
pos = (0,236);
},
{
pos = (0,1195);
}
);
layerId = "E4F99366-6C9B-4FE4-BFF6-3C09ACD21B57";
shapes = (
{
closed = 1;
nodes = (
(501,0,l),
(877,843,l),
(929,992,l),
(935,992,l),
(928,843,l),
(949,0,l),
(1242,0,l),
(1857,1456,l),
(1548,1456,l),
(1222,615,l),
(1160,404,l),
(1154,404,l),
(1165,615,l),
(1140,1456,l),
(903,1456,l),
(529,615,l),
(453,404,l),
(447,404,l),
(473,616,l),
(504,1456,l),
(202,1456,l),
(207,0,l)
);
}
);
width = 1692;
},
{
anchors = (
{
name = top;
pos = (1018,1456);
}
);
guides = (
{
pos = (0,236);
},
{
pos = (0,1195);
}
);
layerId = "4B48D498-D91D-4DFD-A68C-F91EB5F77E01";
shapes = (
{
closed = 1;
nodes = (
(435,0,l),
(877,948,l),
(966,1197,l),
(972,1197,l),
(961,948,l),
(1004,0,l),
(1186,0,l),
(1817,1456,l),
(1617,1456,l),
(1224,520,l),
(1136,236,l,{
name = hr01;
}),
(1130,236,l),
(1143,537,l),
(1100,1456,l),
(933,1456,l),
(508,530,l),
(404,236,l),
(398,236,l),
(426,530,l),
(427,1456,l),
(226,1456,l),
(254,0,l)
);
}
);
width = 1670;
},
{
anchors = (
{
name = top;
pos = (1008,1456);
}
);
guides = (
{
pos = (0,915);
},
{
pos = (0,134);
},
{
angle = 90;
pos = (809,0);
}
);
layerId = "7E1A2F3E-9482-4B58-A0D1-B49E7A5F97A9";
shapes = (
{
closed = 1;
nodes = (
(377,0,l),
(887,1113,l),
(988,1364,l),
(994,1364,l,{
name = hr01;
}),
(1001,1113,l),
(1050,0,l),
(1131,0,l),
(1764,1456,l),
(1667,1456,l),
(1211,385,l),
(1121,132,l),
(1115,132,l),
(1115,385,l),
(1067,1456,l),
(953,1456,l),
(465,385,l),
(365,134,l),
(359,134,l),
(371,385,l),
(361,1456,l),
(264,1456,l),
(296,0,l)
);
}
);
width = 1650;
}
);
unicode = 87;
},
{
glyphname = X;
lastChange = "2024-05-29 18:17:30 +0000";
layers = (
{
anchors = (
{
name = top;
pos = (772,1456);
}
);
guides = (
{
angle = 78.14;
pos = (468,0);
}
);
layerId = "E4F99366-6C9B-4FE4-BFF6-3C09ACD21B57";
shapes = (
{
closed = 1;
nodes = (
(257,0,l),
(588,510,l),
(712,0,l),
(1073,0,l),
(815,734,l),
(1355,1456,l),
(978,1456,l),
(652,947,l),
(540,1456,l),
(196,1456,l),
(429,734,l),
(-124,0,l)
);
}
);
width = 1189;
},
{
anchors = (
{
name = top;
pos = (748,1456);
}
);
guides = (
{
angle = 78.14;
pos = (444,0);
}
);
layerId = "4B48D498-D91D-4DFD-A68C-F91EB5F77E01";
shapes = (
{
closed = 1;
nodes = (
(143,0,l),
(576,583,l),
(762,0,l),
(992,0,l),
(708,725,l),
(1288,1456,l),
(1040,1456,l),
(620,883,l),
(441,1456,l),
(212,1456,l),
(488,744,l),
(-107,0,l)
);
}
);
width = 1115;
},
{
anchors = (
{
name = top;
pos = (702,1456);
}
);
guides = (
{
angle = 78.14;
pos = (398,0);
}
);
layerId = "7E1A2F3E-9482-4B58-A0D1-B49E7A5F97A9";
shapes = (
{
closed = 1;
nodes = (
(0,0,l),
(537,681,l),
(799,0,l),
(901,0,l),
(603,741,l),
(1203,1456,l),
(1093,1456,l),
(558,803,l),
(308,1456,l),
(205,1456,l),
(494,748,l),
(-114,0,l)
);
}
);
width = 1048;
}
);
unicode = 88;
},
{
glyphname = Y;
kernLeft = _Y;
kernRight = _Y;
lastChange = "2024-05-29 18:18:09 +0000";
layers = (
{
anchors = (
{
name = top;
pos = (757,1456);
}
);
guides = (
{
angle = 78.14;
pos = (453,0);
}
);
layerId = "E4F99366-6C9B-4FE4-BFF6-3C09ACD21B57";
shapes = (
{
closed = 1;
nodes = (
(621,-1,l),
(730.489,514,l),
(1386.546,1455,l),
(1034.546,1455,l),
(616.23,795,l),
(497.546,1455,l),
(169.546,1455,l),
(421.103,531,l),
(308,-1,l)
);
}
);
width = 1178;
},
{
anchors = (
{
name = top;
pos = (726,1456);
}
);
guides = (
{
angle = 78.14;
pos = (422,0);
}
);
layerId = "4B48D498-D91D-4DFD-A68C-F91EB5F77E01";
shapes = (
{
closed = 1;
nodes = (
(528,0,l),
(638,518,l),
(1307,1456,l),
(1078,1456,l),
(565,704,l),
(397,1456,l),
(175,1456,l),
(441,531,l),
(329,0,l)
);
}
);
width = 1090;
},
{
anchors = (
{
name = top;
pos = (717,1456);
}
);
guides = (
{
angle = 90;
pos = (1140,0);
},
{
angle = 90;
pos = (-3,0);
},
{
angle = 90;
pos = (522,0);
},
{
angle = 78.14;
pos = (413,0);
}
);
layerId = "7E1A2F3E-9482-4B58-A0D1-B49E7A5F97A9";
shapes = (
{
closed = 1;
nodes = (
(465,0,l),
(570,519,l),
(1232,1456,l),
(1124,1456,l),
(539,605,l),
(282,1456,l),
(183,1456,l),
(483,530,l),
(370,0,l)
);
}
);
width = 1051;
}
);
unicode = 89;
},
{
glyphname = Z;
lastChange = "2024-05-29 18:18:49 +0000";
layers = (
{
anchors = (
{
name = top;
pos = (706,1456);
}
);
layerId = "E4F99366-6C9B-4FE4-BFF6-3C09ACD21B57";
shapes = (
{
closed = 1;
nodes = (
(900,0,l),
(951.662,243,l),
(370.662,243,l),
(1174.356,1314,l),
(1204.546,1456,l),
(223.546,1456,l),
(171.671,1212,l),
(746.671,1212,l),
(-58.748,147,l),
(-90,0,l)
);
}
);
width = 1051;
},
{
anchors = (
{
name = top;
pos = (682,1456);
}
);
layerId = "4B48D498-D91D-4DFD-A68C-F91EB5F77E01";
shapes = (
{
closed = 1;
nodes = (
(873,0,l),
(905,154,l),
(202,154,l),
(1127,1325,l),
(1155,1456,l),
(241,1456,l),
(208,1301,l),
(875,1301,l),
(-47,135,l),
(-75,0,l)
);
}
);
width = 1028;
},
{
anchors = (
{
name = top;
pos = (706,1456);
}
);
guides = (
{
pos = (0,1388);
},
{
angle = 90;
pos = (68,0);
},
{
angle = 90;
pos = (-1297,0);
},
{
angle = 90;
pos = (-312,0);
},
{
angle = 90;
pos = (1343,0);
},
{
angle = 90;
pos = (2270,0);
},
{
angle = 90;
pos = (966,0);
}
);
layerId = "7E1A2F3E-9482-4B58-A0D1-B49E7A5F97A9";
shapes = (
{
closed = 1;
nodes = (
(862,0,l),
(877,70,l),
(100,70,l),
(1145,1391,l),
(1159,1456,l),
(284,1456,l),
(269,1386,l),
(1032,1386,l),
(-22,59,l),
(-35,0,l)
);
}
);
width = 1052;
}
);
unicode = 90;
},
{
color = (255,153,254,255);
glyphname = Saltillo;
kernLeft = _saltillo;
kernRight = _saltillo;
lastChange = "2024-05-27 15:08:00 +0000";
layers = (
{
layerId = "E4F99366-6C9B-4FE4-BFF6-3C09ACD21B57";
shapes = (
{
closed = 1;
nodes = (
(300.268,547,l),
(562.482,1456,l),
(241.27,1455,l),
(213.595,1019,l),
(120.268,547,l)
);
}
);
width = 482;
},
{
layerId = "4B48D498-D91D-4DFD-A68C-F91EB5F77E01";
shapes = (
{
closed = 1;
nodes = (
(252.355,538,l),
(494.482,1456,l),
(273.482,1456,l),
(234.658,1024,l),
(132.355,538,l)
);
}
);
width = 471;
},
{
layerId = "7E1A2F3E-9482-4B58-A0D1-B49E7A5F97A9";
shapes = (
{
closed = 1;
nodes = (
(207.481,548,l),
(420.27,1455,l),
(312.27,1455,l),
(254.122,1045,l),
(146.481,548,l)
);
}
);
width = 384;
}
);
unicode = 42891;
},
{
color = 2;
glyphname = Oslash.light;
kernLeft = _O;
kernRight = _O;
lastChange = "2024-05-29 14:18:08 +0000";
layers = (
{
layerId = "7E1A2F3E-9482-4B58-A0D1-B49E7A5F97A9";
shapes = (
{
closed = 1;
nodes = (
(949.38,-21,o),
(1249.805,463,o),
(1249.805,969,cs),
(1249.805,1094.875,o),
(1231.951,1222.777,o),
(1172.484,1318.755,c),
(1371.011,1585,l,{
name = ._.105553357323824;
}),
(1286.011,1585,l),
(1128.89,1375.102,l),
(1068.369,1437.779,o),
(979.877,1477,o),
(852.38,1477,cs),
(442.38,1477,o),
(141.38,982,o),
(141.38,490,cs),
(141.38,374.453,o),
(155.644,247.839,o),
(211.49,149.551,c),
(-3.011,-137,l,{
name = ._.105553357357536;
}),
(86.989,-137,l),
(255.218,88.612,l),
(315.326,22.113,o),
(405.486,-21,o),
(539.38,-21,cs)
);
},
{
closed = 1;
nodes = (
(443.177,50,o),
(364.889,86.79,o),
(309.811,161.826,c),
(1113.786,1240.035,l),
(1143.986,1177.076,o),
(1161.38,1096.366,o),
(1161.38,998,cs),
(1161.38,459,o),
(868.38,50,o),
(528.38,50,cs)
);
},
{
closed = 1;
nodes = (
(229.38,980,o),
(512.38,1407,o),
(859.38,1407,cs),
(944.49,1407,o),
(1020.47,1372.254,o),
(1074.929,1303.017,c),
(271.279,229.423,l),
(244.749,290.157,o),
(229.38,366.557,o),
(229.38,459,cs)
);
}
);
width = 1307.35;
},
{
layerId = "4B48D498-D91D-4DFD-A68C-F91EB5F77E01";
shapes = (
{
closed = 1;
nodes = (
(1041.111,-21,o),
(1274.373,566.016,o),
(1278.111,1012,cs),
(1279.166,1137.943,o),
(1251.556,1244.935,o),
(1196.877,1324.423,c),
(1377.117,1586,l),
(1202.117,1586,l),
(1090.748,1424.373,l),
(1033.288,1458.484,o),
(963.007,1477,o),
(880.449,1477,cs),
(366.449,1477,o),
(133.186,889.984,o),
(129.449,444,cs),
(128.429,322.26,o),
(154.193,218.227,o),
(205.493,139.627,c),
(14.883,-137,l),
(189.883,-137,l),
(309.472,36.556,l),
(368.72,-0.697,o),
(442.226,-21,o),
(529.449,-21,cs)
);
},
{
closed = 1;
nodes = (
(497.503,139,o),
(449.667,158.322,o),
(414.949,189.632,c),
(1063.471,1130.815,l),
(1071.831,1095.064,o),
(1075.307,1057.16,o),
(1075.111,1020,cs),
(1072.985,618,o),
(856.323,139,o),
(562.323,139,cs)
);
},
{
closed = 1;
nodes = (
(334.574,838,o),
(550.236,1317,o),
(845.236,1317,cs),
(904.947,1317,o),
(950.618,1299.474,o),
(984.898,1270.756,c),
(340.931,336.184,l),
(334.731,368.657,o),
(332.273,402.628,o),
(332.449,436,cs)
);
}
);
width = 1330.09;
},
{
layerId = "E4F99366-6C9B-4FE4-BFF6-3C09ACD21B57";
shapes = (
{
closed = 1;
nodes = (
(1093.535,-21,o),
(1301.985,602,o),
(1302.403,1032,cs),
(1302.619,1159.661,o),
(1270.44,1264.694,o),
(1206.085,1340.597,c),
(1364.224,1587,l,{
name = ._.105553357314304;
}),
(1121.224,1587,l),
(1034.38,1451.685,l),
(982.178,1468.311,o),
(922.38,1477,o),
(855.01,1477,cs),
(316.01,1477,o),
(105.576,887,o),
(95.072,466,cs),
(91.603,320.972,o),
(121.553,206.935,o),
(183.43,125.786,c),
(14.776,-137,l,{
name = ._.105553357315344;
}),
(257.776,-137,l),
(350.504,7.483,l),
(404.82,-11.415,o),
(467.568,-21,o),
(538.535,-21,cs)
);
},
{
closed = 1;
nodes = (
(556.392,223,o),
(526.667,229.679,o),
(501.569,242.864,c),
(988.095,1000.938,l),
(988.065,992.736,o),
(987.878,984.06,o),
(987.533,974.957,cs),
(978.637,740.539,o),
(864.124,223,o),
(590.41,223,cs)
);
},
{
closed = 1;
nodes = (
(419.963,745.395,o),
(536.341,1232,o),
(802.923,1232,cs),
(833.199,1232,o),
(860.224,1226.959,o),
(883.648,1216.823,c),
(405.384,471.621,l),
(405.563,481.779,o),
(405.963,492.55,o),
(406.589,503.858,cs)
);
}
);
width = 1325.78;
}
);
},
{
glyphname = a;
kernLeft = _a;
kernRight = _a;
lastChange = "2024-05-29 16:46:03 +0000";
layers = (
{
anchors = (
{
name = top;
pos = (689,1122);
}
);
guides = (
{
pos = (0,-20);
},
{
angle = 78.14;
pos = (457,0);
}
);
layerId = "E4F99366-6C9B-4FE4-BFF6-3C09ACD21B57";
shapes = (
{
closed = 1;
nodes = (
(497,-20,o),
(590,64,o),
(660,165,c),
(660,62,o),
(763,-6,o),
(808,-20,c),
(976,105,l),
(961,133,o),
(948,178,o),
(948,243,cs),
(948,246,o),
(950,285,o),
(954,303,cs),
(1129,1122,l,{
name = hr01;
}),
(873,1122,l),
(800.93,988.59,l),
(760.65,1093.71,o),
(665.27,1142,o),
(567,1142,cs),
(279,1142,o),
(60,773,o),
(54,354,cs),
(51,119,o),
(173,-20,o),
(358,-20,cs)
);
},
{
closed = 1;
nodes = (
(409,210,o),
(369,256,o),
(369,400,cs),
(369,609,o),
(476,902,o),
(632,902,cs),
(695.26,902,o),
(727.48,857.89,o),
(745.65,791.83,c),
(678,475,l),
(634,297,o),
(564,210,o),
(477,210,cs)
);
}
);
width = 1139;
},
{
anchors = (
{
name = top;
pos = (682.424,1082);
}
);
guides = (
{
pos = (-0.8,-20);
},
{
angle = 90;
pos = (636.2,0);
},
{
angle = 90;
pos = (659.2,0);
},
{
angle = 78.14;
pos = (463.2,0);
}
);
layerId = "4B48D498-D91D-4DFD-A68C-F91EB5F77E01";
shapes = (
{
closed = 1;
nodes = (
(520.2,-21,o),
(640.2,45,o),
(712.2,141,c),
(711.2,61,o),
(798.2,-9,o),
(832.2,-20,c),
(947.2,79,l),
(917.2,111,o),
(905.2,150,o),
(905.2,190,cs),
(905.2,208,o),
(908.2,227,o),
(912.2,245,cs),
(1090.2,1082,l,{
name = hr01;
}),
(925.2,1082,l),
(874.2,946,l),
(817.2,1048,o),
(720.2,1102,o),
(628.2,1102,cs),
(282.2,1102,o),
(82.2,710,o),
(82.2,344,cs),
(82.2,109,o),
(236.2,-21,o),
(401.2,-21,cs)
);
},
{
closed = 1;
nodes = (
(365.2,133,o),
(286.2,183,o),
(286.2,372,cs),
(286.2,586,o),
(411.2,943,o),
(645.2,943,cs),
(734.2,943,o),
(804.2,872,o),
(824.2,773,c),
(759.2,468,ls),
(708.2,232,o),
(544.2,133,o),
(451.2,133,cs)
);
}
);
width = 1155.2;
},
{
anchors = (
{
name = top;
pos = (663.394,1059);
}
);
guides = (
{
pos = (0,-20);
},
{
pos = (0,1082);
},
{
angle = 78.14;
pos = (441,0);
}
);
layerId = "7E1A2F3E-9482-4B58-A0D1-B49E7A5F97A9";
shapes = (
{
closed = 1;
nodes = (
(565,-20,o),
(680,60,o),
(755,180,c),
(744,58,o),
(787,4,o),
(826,-15,c),
(872,31,l),
(841,57,o),
(830,93,o),
(831,146,cs),
(832,182,o),
(838,225,o),
(850,279,cs),
(1020,1059,l,{
name = hr01;
}),
(951,1059,l),
(900.267,916.989,l),
(867.267,1005.989,o),
(764,1082,o),
(641,1082,cs),
(326,1082,o),
(122,740,o),
(122,357,cs),
(122,122,o),
(267,-20,o),
(423,-20,cs)
);
},
{
closed = 1;
nodes = (
(273,54,o),
(209.375,229.044,o),
(213,377,cs),
(221.502,724,o),
(391,1010,o),
(648,1010,cs),
(760,1010,o),
(844,938,o),
(877,827,c),
(780,376,ls),
(746,212,o),
(615,54,o),
(436.053,54,cs)
);
}
);
width = 1129;
}
);
unicode = 97;
},
{
color = (153,254,255,255);
glyphname = amacron;
kernLeft = _a;
kernRight = _a;
lastChange = "2024-05-29 19:43:40 +0000";
layers = (
{
background = {
shapes = (
{
closed = 1;
nodes = (
(596,902,o),
(489,609,o),
(489,400,cs),
(489,256,o),
(529,210,o),
(597,210,cs),
(684,210,o),
(754,297,o),
(798,475,c),
(865.65,791.83,l),
(847.48,857.89,o),
(815.26,902,o),
(752,902,cs)
);
},
{
closed = 1;
nodes = (
(180,773,o),
(399,1142,o),
(687,1142,cs),
(785.27,1142,o),
(880.65,1093.71,o),
(920.93,988.59,c),
(993,1122,l),
(1249,1122,l,{
name = hr01;
}),
(1074,303,ls),
(1070,285,o),
(1068,246,o),
(1068,243,cs),
(1068,178,o),
(1081,133,o),
(1096,105,c),
(928,-20,l),
(887,-4,o),
(780,60,o),
(780,165,c),
(710,64,o),
(617,-20,o),
(478,-20,cs),
(293,-20,o),
(171,119,o),
(174,354,cs)
);
},
{
closed = 1;
nodes = (
(1217.006,1297,l),
(466.006,1297,l),
(508.101,1495,l),
(1259.101,1495,l)
);
}
);
};
guides = (
{
pos = (0,-20);
}
);
layerId = "E4F99366-6C9B-4FE4-BFF6-3C09ACD21B57";
shapes = (
{
alignment = -1;
ref = a;
},
{
alignment = -1;
pos = (95.264,0);
ref = macron;
}
);
width = 1139;
},
{
guides = (
{
pos = (0,-20);
},
{
angle = 90;
pos = (637,0);
},
{
angle = 90;
pos = (660,0);
}
);
layerId = "4B48D498-D91D-4DFD-A68C-F91EB5F77E01";
shapes = (
{
ref = a;
},
{
pos = (123.439,0);
ref = macron;
}
);
width = 1155.2;
},
{
guides = (
{
pos = (0,-20);
},
{
pos = (0,1082);
}
);
layerId = "7E1A2F3E-9482-4B58-A0D1-B49E7A5F97A9";
shapes = (
{
ref = a;
},
{
pos = (185.908,0);
ref = macron;
}
);
width = 1129;
}
);
unicode = 257;
},
{
glyphname = ae;
kernRight = _e;
lastChange = "2024-05-29 15:30:34 +0000";
layers = (
{
layerId = "E4F99366-6C9B-4FE4-BFF6-3C09ACD21B57";
shapes = (
{
closed = 1;
nodes = (
(488,-12,o),
(616,81,o),
(691,188,c),
(747,62,o),
(861,-20,o),
(1028,-20,cs),
(1205,-20,o),
(1379,76,o),
(1462,147,c),
(1361,333,l),
(1271,269,o),
(1182,222,o),
(1086,222,cs),
(1031,222,o),
(940,251,o),
(937,407,cs),
(937,428,o),
(938,448,o),
(939,469,c),
(1003,453,o),
(1080,444,o),
(1139,444,cs),
(1440,444,o),
(1621,598,o),
(1620,837,cs),
(1620,1043,o),
(1464,1142,o),
(1277,1142,cs),
(1138,1142,o),
(1012,1081,o),
(911,986,c),
(855,1122,o),
(719,1142,o),
(613,1142,cs,{
name = hr02;
}),
(436,1142,o),
(272,1065,o),
(226,1035,c),
(288,832,l),
(315,852,o),
(420,916,o),
(529,917,cs),
(642,918,o),
(702,874,o),
(702,785,cs),
(702,761,o),
(698,734,o),
(689,703,c),
(661,706,o),
(601,715,o),
(551,715,cs,{
name = hr01;
}),
(217,715,o),
(12,536,o),
(12,282,cs),
(12,144,o),
(108,-12,o),
(328,-12,cs)
);
},
{
closed = 1;
nodes = (
(366,222,o),
(315,257,o),
(315,335,cs),
(315,431,o),
(404,518,o),
(525,518,cs,{
name = hr03;
}),
(573,518,o),
(617,513,o),
(633,510,c),
(616,442,ls),
(578,290,o),
(504,222,o),
(423,222,cs)
);
},
{
closed = 1;
nodes = (
(1064,651,o),
(1020,656,o),
(983,666,c),
(1031,798,o),
(1115,908,o),
(1225,908,cs),
(1279,908,o),
(1322,873,o),
(1323,817,cs),
(1324,730,o),
(1237,651,o),
(1106,651,cs)
);
}
);
width = 1623;
},
{
layerId = "4B48D498-D91D-4DFD-A68C-F91EB5F77E01";
shapes = (
{
closed = 1;
nodes = (
(466,-21,o),
(615,43,o),
(731,208,c),
(763,76,o),
(864,-21,o),
(1049,-21,cs),
(1202,-21,o),
(1337,36,o),
(1420,108,c),
(1356,232,l),
(1267,168,o),
(1180,133,o),
(1092,133,cs),
(956,133,o),
(891,202,o),
(891,379,cs),
(891,416,o),
(895,446,o),
(903,489,c),
(916,485,o),
(1019,469,o),
(1120,469,cs),
(1374,469,o),
(1603,614,o),
(1603,832,cs),
(1603,1007,o),
(1475,1102,o),
(1278,1102,cs),
(1113,1102,o),
(1002,1035,o),
(921,933,c),
(870,1062,o),
(760,1102,o),
(645,1102,cs,{
name = hr02;
}),
(441,1102,o),
(302,1010,o),
(241,967,c),
(284,832,l),
(358,882,o),
(466,946,o),
(590,947,cs),
(707,948,o),
(764,885,o),
(756,794,cs),
(752,750,o),
(743,706,o),
(733,660,c),
(705,663,o),
(653,671,o),
(591,671,cs,{
name = hr01;
}),
(266,671,o),
(31,532,o),
(31,259,cs),
(31,125,o),
(120,-21,o),
(322,-21,cs)
);
},
{
closed = 1;
nodes = (
(277,139,o),
(236,224,o),
(236,294,cs),
(236,466,o),
(395,523,o),
(572,523,cs,{
name = hr03;
}),
(640,523,o),
(689,516,o),
(705,513,c),
(682,412,ls),
(636,209,o),
(479,139,o),
(383,139,cs)
);
},
{
closed = 1;
nodes = (
(1024,620,o),
(969,629,o),
(940,633,c),
(1004,806,o),
(1117,948,o),
(1265,948,cs),
(1332,948,o),
(1399,911,o),
(1399,822,cs),
(1399,691,o),
(1270,620,o),
(1105,620,cs)
);
}
);
width = 1618;
},
{
guides = (
{
pos = (0,240);
},
{
pos = (0,54);
}
);
layerId = "7E1A2F3E-9482-4B58-A0D1-B49E7A5F97A9";
shapes = (
{
closed = 1;
nodes = (
(546,-21,o),
(724,79,o),
(795,259,c),
(808,124,o),
(900,-21,o),
(1107,-21,cs),
(1260,-21,o),
(1376,52,o),
(1438,108,c),
(1403,162,l),
(1318,92,o),
(1214,55,o),
(1136,55,cs),
(954,55,o),
(872,136,o),
(872,405,cs),
(872,442,o),
(879,474,o),
(887,517,c),
(917,505,o),
(1049,484,o),
(1180,484,cs,{
name = hr01;
}),
(1434,484,o),
(1611,612,o),
(1611,830,cs),
(1611,985,o),
(1493,1082,o),
(1316,1082,cs),
(1137,1082,o),
(992,977,o),
(905,805,c),
(924,1023,o),
(804,1083,o),
(650,1083,cs),
(470,1083,o),
(346,1003,o),
(281,956,c),
(306,902,l),
(381,957,o),
(504,1012,o),
(618,1014,cs),
(835,1019,o),
(847,897,o),
(828,724,cs),
(824,684,o),
(817,644,o),
(811,604,c),
(727,621,o),
(643,630,o),
(563,630,cs),
(294,630,o),
(70,528,o),
(70,264,cs),
(70,83,o),
(219,-21,o),
(389,-21,cs)
);
},
{
closed = 1;
nodes = (
(265,52,o),
(159,125,o),
(159,272,cs),
(159,473,o),
(337,557,o),
(572,557,cs),
(644,557,o),
(721,549,o),
(800,534,c),
(787,456,ls),
(741,178,o),
(545,52,o),
(415,52,cs)
);
},
{
closed = 1;
nodes = (
(1112,556,o),
(979,569,o),
(901,587,c),
(949,753,o),
(1059,1011,o),
(1316,1011,cs),
(1468,1011,o),
(1518,914,o),
(1518,825,cs),
(1518,624,o),
(1314,556,o),
(1193,556,cs)
);
}
);
width = 1663;
}
);
unicode = 230;
},
{
glyphname = b;
kernLeft = _b;
kernRight = _b;
lastChange = "2024-05-27 18:05:29 +0000";
layers = (
{
layerId = "E4F99366-6C9B-4FE4-BFF6-3C09ACD21B57";
shapes = (
{
closed = 1;
nodes = (
(857,-20,o),
(1076,350,o),
(1082,769,cs),
(1085,1004,o),
(963,1142,o),
(778,1142,cs),
(678,1142,o),
(601,1099,o),
(540,1037,c),
(652,1560,l),
(339,1560,l),
(8,0,l),
(266,0,l),
(336,133,l),
(376,29,o),
(471,-20,o),
(569,-20,cs)
);
},
{
closed = 1;
nodes = (
(441,221,o),
(409,265,o),
(391,330,c),
(458,648,ls),
(494,819,o),
(572,913,o),
(659,913,cs),
(727,913,o),
(767,867,o),
(767,723,cs),
(767,514,o),
(660,221,o),
(504,221,cs)
);
}
);
width = 1138;
},
{
layerId = "4B48D498-D91D-4DFD-A68C-F91EB5F77E01";
shapes = (
{
closed = 1;
nodes = (
(864,-20,o),
(1064,362,o),
(1064,718,cs),
(1064,973,o),
(910,1101,o),
(745,1101,cs),
(618,1101,o),
(519,1045,o),
(453,953,c),
(587,1559,l),
(387,1559,l),
(54,0,l),
(220,0,l),
(272,142,l),
(317,65,o),
(414,-20,o),
(538,-20,cs)
);
},
{
closed = 1;
nodes = (
(412,136,o),
(331,218,o),
(322,311,c,{
name = hr01;
}),
(388,617,ls),
(431,813,o),
(572,942,o),
(695,942,cs),
(781,942,o),
(860,879,o),
(860,690,cs),
(860,486,o),
(735,136,o),
(511,136,cs)
);
}
);
width = 1149;
},
{
guides = (
{
pos = (0,1558);
},
{
pos = (0,1082);
},
{
pos = (0,-20);
},
{
angle = 78.14;
pos = (124,0);
},
{
angle = 78.14;
pos = (214,0);
}
);
layerId = "7E1A2F3E-9482-4B58-A0D1-B49E7A5F97A9";
shapes = (
{
closed = 1;
nodes = (
(789,-20,o),
(993,322,o),
(993,705,cs),
(993,940,o),
(848,1082,o),
(692,1082,cs),
(564.696,1082,o),
(459.093,1017.703,o),
(384.557,917.929,c),
(520,1558,l,{
name = hr02;
}),
(430,1558,l),
(98,0,l,{
name = hr01;
}),
(167,0,l),
(216.47,148.15,l),
(249.47,59.15,o),
(351,-20,o),
(474,-20,cs)
);
},
{
closed = 1;
nodes = (
(355,52,o),
(271,124,o),
(238,235,c),
(335,686,ls),
(369.028,850.134,o),
(500.177,1008,o),
(678.95,1008,cs),
(842,1008,o),
(905.63,832.96,o),
(902,685,cs),
(893.5,338,o),
(724,52,o),
(467,52,cs)
);
}
);
width = 1113;
}
);
unicode = 98;
},
{
glyphname = c;
kernLeft = _c;
kernRight = _c;
lastChange = "2024-05-29 16:46:13 +0000";
layers = (
{
layerId = "E4F99366-6C9B-4FE4-BFF6-3C09ACD21B57";
shapes = (
{
closed = 1;
nodes = (
(601,-20,o),
(748,42,o),
(838,117,c),
(751,304,l),
(674,253,o),
(602,220,o),
(524,221,cs),
(432,222,o),
(373,286,o),
(373,411,cs),
(373,664,o),
(515,913,o),
(687,913,cs),
(773,913,o),
(825,883,o),
(891,828,c),
(1016,1000,l),
(942,1079,o),
(839,1148,o),
(685,1149,cs),
(275,1150,o),
(56,762,o),
(61,379,cs),
(64,163,o),
(201,-20,o),
(447,-20,cs)
);
}
);
width = 938;
},
{
layerId = "4B48D498-D91D-4DFD-A68C-F91EB5F77E01";
shapes = (
{
closed = 1;
nodes = (
(595,-20,o),
(730,36,o),
(813,108,c),
(749,232,l),
(660,168,o),
(573,136,o),
(485,136,cs),
(349,136,o),
(284,203,o),
(284,380,cs),
(284,593,o),
(417,942,o),
(678,942,cs),
(766,942,o),
(848,875,o),
(880,847,c),
(969,977,l),
(933,1014,o),
(833,1101,o),
(671,1101,cs),
(261,1101,o),
(83,691,o),
(83,342,cs),
(83,148,o),
(199,-20,o),
(442,-20,cs)
);
}
);
width = 938.04;
},
{
guides = (
{
pos = (0,1082);
},
{
pos = (0,-156);
},
{
pos = (0,62);
}
);
layerId = "7E1A2F3E-9482-4B58-A0D1-B49E7A5F97A9";
shapes = (
{
closed = 1;
nodes = (
(607,-21,o),
(722,55,o),
(785,107,c),
(750,163,l),
(666,90,o),
(572,55,o),
(477,55,cs),
(326,55,o),
(221,130,o),
(221,391,cs),
(221,751,o),
(386,1006,o),
(655,1006,cs),
(731,1006,o),
(822,979,o),
(890,924,c),
(927,979,l),
(879,1021,o),
(786,1082,o),
(658,1082,cs),
(265,1082,o),
(125,698,o),
(125,349,cs),
(125,155,o),
(222,-21,o),
(454,-21,cs)
);
}
);
width = 915;
}
);
unicode = 99;
},
{
glyphname = ccedilla;
kernLeft = _c;
kernRight = _c;
lastChange = "2024-05-27 17:32:07 +0000";
layers = (
{
layerId = "E4F99366-6C9B-4FE4-BFF6-3C09ACD21B57";
shapes = (
{
closed = 1;
nodes = (
(401,-516,o),
(612,-388,o),
(612,-213,cs),
(612,-141,o),
(569,-96,o),
(511,-79,c),
(545.92,-11.72,l),
(662.22,7.56,o),
(767.56,58.3,o),
(838,117,c),
(751,304,l),
(674,253,o),
(602,220,o),
(524,221,cs),
(432,222,o),
(373,286,o),
(373,411,cs),
(373,664,o),
(515,913,o),
(687,913,cs),
(773,913,o),
(825,883,o),
(891,828,c),
(1016,1000,l),
(942,1079,o),
(839,1148,o),
(685,1149,cs),
(275,1150,o),
(56,762,o),
(61,379,cs),
(63.57,193.78,o),
(164.7,32.86,o),
(348.58,-9.25,c),
(278,-157,l),
(343,-160,o),
(388,-188,o),
(388,-229,cs),
(388,-316,o),
(274,-350,o),
(203,-350,c),
(176,-514,l)
);
}
);
width = 938;
},
{
layerId = "4B48D498-D91D-4DFD-A68C-F91EB5F77E01";
shapes = (
{
closed = 1;
nodes = (
(377,-494,o),
(568,-399,o),
(568,-227,cs),
(568,-151,o),
(522,-103,o),
(459,-84,c),
(493,-18,l),
(625,-7,o),
(739,44,o),
(813,108,c),
(749,232,l),
(660,168,o),
(573,136,o),
(485,136,cs),
(349,136,o),
(284,202,o),
(284,379,cs),
(284,592,o),
(417,942,o),
(678,942,cs),
(766,942,o),
(848,875,o),
(880,847,c),
(969,977,l),
(933,1014,o),
(833,1101,o),
(671,1101,cs),
(261,1101,o),
(83,691,o),
(83,342,cs),
(83,173,o),
(170,25,o),
(352,-11,c),
(279,-164,l),
(369,-168,o),
(412,-209,o),
(396,-270,cs),
(376,-347,o),
(286,-388,o),
(206,-388,c),
(188,-499,l)
);
}
);
width = 938.04;
},
{
layerId = "7E1A2F3E-9482-4B58-A0D1-B49E7A5F97A9";
shapes = (
{
closed = 1;
nodes = (
(440,-488,o),
(557,-409,o),
(557,-249,cs),
(557,-169,o),
(499,-120,o),
(429,-114,c),
(475,-20,l),
(618,-14,o),
(725,57,o),
(785,107,c),
(750,163,l),
(666,90,o),
(572,55,o),
(477,55,cs),
(326,55,o),
(221,130,o),
(221,391,cs),
(221,750,o),
(386,1006,o),
(655,1006,cs),
(731,1006,o),
(822,979,o),
(890,924,c),
(927,979,l),
(879,1021,o),
(786,1082,o),
(658,1082,cs),
(267,1082,o),
(125,698,o),
(125,349,cs),
(125,170,o),
(207,6,o),
(402,-18,c),
(328,-167,l),
(413,-175,o),
(473,-200,o),
(473,-268,cs),
(473,-378,o),
(359,-434,o),
(256,-434,c),
(245,-492,l)
);
}
);
width = 915;
}
);
unicode = 231;
},
{
glyphname = d;
lastChange = "2024-05-29 16:46:28 +0000";
layers = (
{
guides = (
{
pos = (0,1438);
}
);
layerId = "E4F99366-6C9B-4FE4-BFF6-3C09ACD21B57";
shapes = (
{
closed = 1;
nodes = (
(497,-20,o),
(590,64,o),
(660,165,c),
(660,60,o),
(767,-4,o),
(808,-20,c),
(976,105,l),
(961,133,o),
(947,178,o),
(947,243,cs),
(947,252,o),
(948,277,o),
(953,300,cs),
(1225,1560,l),
(912,1560,l),
(793,1007,l),
(749,1099,o),
(659,1142,o),
(567,1142,cs),
(279,1142,o),
(60,773,o),
(54,354,cs),
(51,119,o),
(173,-20,o),
(358,-20,cs)
);
},
{
closed = 1;
nodes = (
(409,210,o),
(369,256,o),
(369,400,cs),
(369,609,o),
(476,902,o),
(632,902,cs),
(696,902,o),
(728,857,o),
(746,790,c),
(678,475,ls),
(641,304,o),
(564,210,o),
(477,210,cs)
);
}
);
width = 1139;
},
{
guides = (
{
pos = (-0.83,-21);
},
{
pos = (-0.83,1438);
},
{
pos = (-0.83,772);
}
);
layerId = "4B48D498-D91D-4DFD-A68C-F91EB5F77E01";
shapes = (
{
closed = 1;
nodes = (
(520.17,-21,o),
(640.17,45,o),
(712.17,141,c),
(711.17,61,o),
(801.17,-8,o),
(832.17,-20,c),
(947.17,79,l),
(917.17,111,o),
(905.17,150,o),
(905.17,190,cs),
(905.17,208,o),
(908.17,227,o),
(912.17,245,cs),
(1191.17,1559,l),
(991.17,1559,l),
(865.17,967,l),
(826.17,1037,o),
(732.17,1101,o),
(628.17,1101,cs),
(282.17,1101,o),
(82.17,710,o),
(82.17,344,cs),
(82.17,109,o),
(236.17,-21,o),
(401.17,-21,cs)
);
},
{
closed = 1;
nodes = (
(365.17,133,o),
(286.17,183,o),
(286.17,372,cs),
(286.17,586,o),
(411.17,942,o),
(645.17,942,cs),
(732.17,942,o),
(804.17,874,o),
(824.17,773,c),
(759.17,468,ls),
(708.17,232,o),
(544.17,133,o),
(451.17,133,cs)
);
}
);
width = 1156.17;
},
{
guides = (
{
pos = (0,-15);
showMeasurement = 1;
},
{
pos = (0,1557);
},
{
pos = (0,772);
},
{
pos = (0,1082);
},
{
angle = 78.14;
pos = (817,0);
},
{
angle = 78.14;
pos = (725,0);
}
);
layerId = "7E1A2F3E-9482-4B58-A0D1-B49E7A5F97A9";
shapes = (
{
closed = 1;
nodes = (
(565,-20,o),
(680,60,o),
(755,180,c),
(744,58,o),
(787,4,o),
(826,-15,c),
(872,31,l),
(841,57,o),
(828,93,o),
(829,146,cs),
(830,182,o),
(836,225,o),
(848,279,cs),
(1123,1557,l),
(1031,1557,l),
(896,920,l),
(863,1009,o),
(764,1082,o),
(641,1082,cs),
(326,1082,o),
(122,740,o),
(122,357,cs),
(122,122,o),
(267,-20,o),
(423,-20,cs)
);
},
{
closed = 1;
nodes = (
(273,54,o),
(209.375,229.044,o),
(213,377,cs),
(221.502,724,o),
(391,1010,o),
(648,1010,cs),
(760,1010,o),
(844,938,o),
(877,827,c),
(780,376,ls),
(746,212,o),
(615,54,o),
(436.053,54,cs)
);
}
);
width = 1131;
}
);
unicode = 100;
},
{
glyphname = dcroat;
lastChange = "2024-05-28 01:07:40 +0000";
layers = (
{
guides = (
{
pos = (0,1438);
}
);
layerId = "E4F99366-6C9B-4FE4-BFF6-3C09ACD21B57";
shapes = (
{
closed = 1;
nodes = (
(845.076,1249,l),
(793,1007,l),
(749,1099,o),
(659,1142,o),
(567,1142,cs),
(279,1142,o),
(60,773,o),
(54,354,cs),
(51,119,o),
(173,-20,o),
(358,-20,cs),
(497,-20,o),
(590,64,o),
(660,165,c),
(660,60,o),
(767,-5,o),
(808,-20,c),
(976,105,l),
(961,133,o),
(947,178,o),
(947,243,cs),
(947,252,o),
(948,277,o),
(953,300,cs),
(1157.863,1249,l),
(1278,1249,l),
(1315,1427,l),
(1196.289,1427,l),
(1225,1560,l),
(912,1560,l),
(883.38,1427,l),
(592,1427,l),
(555,1249,l)
);
},
{
closed = 1;
nodes = (
(409,210,o),
(369,256,o),
(369,400,cs),
(369,609,o),
(476,902,o),
(632,902,cs),
(696,902,o),
(728,857,o),
(746,790,c),
(678,475,ls),
(641,304,o),
(564,210,o),
(477,210,cs)
);
}
);
width = 1137;
},
{
guides = (
{
pos = (0,-21);
},
{
pos = (0,1438);
},
{
pos = (0,772);
}
);
layerId = "4B48D498-D91D-4DFD-A68C-F91EB5F77E01";
shapes = (
{
closed = 1;
nodes = (
(927.723,1257,l),
(866,967,l),
(827,1037,o),
(733,1101,o),
(629,1101,cs),
(283,1101,o),
(83,710,o),
(83,344,cs),
(83,109,o),
(237,-21,o),
(402,-21,cs),
(521,-21,o),
(641,45,o),
(713,141,c),
(712,61,o),
(802,-8,o),
(833,-20,c),
(948,79,l),
(918,111,o),
(906,150,o),
(906,190,cs),
(906,208,o),
(909,227,o),
(913,245,cs),
(1127.877,1257,l),
(1272,1257,l),
(1300,1388,l),
(1155.692,1388,l),
(1192,1559,l),
(992,1559,l),
(955.605,1388,l),
(649,1388,l),
(621,1257,l)
);
},
{
closed = 1;
nodes = (
(366,133,o),
(287,183,o),
(287,372,cs),
(287,586,o),
(412,942,o),
(646,942,cs),
(733,942,o),
(805,874,o),
(825,773,c),
(760,468,ls),
(709,232,o),
(545,133,o),
(452,133,cs)
);
}
);
width = 1163;
},
{
guides = (
{
pos = (-3.16,-15);
},
{
pos = (-3.16,1557);
},
{
pos = (-3.16,772);
},
{
pos = (-3.16,1082);
},
{
angle = 78.14;
pos = (816.84,0);
},
{
angle = 78.14;
pos = (724.84,0);
}
);
layerId = "7E1A2F3E-9482-4B58-A0D1-B49E7A5F97A9";
shapes = (
{
closed = 1;
nodes = (
(971.075,1275,l),
(895.84,920,l),
(862.84,1009,o),
(763.84,1082,o),
(650.84,1082,cs),
(325.84,1082,o),
(121.84,740,o),
(121.84,357,cs),
(121.84,122,o),
(266.84,-20,o),
(422.84,-20,cs),
(564.84,-20,o),
(679.84,60,o),
(754.84,180,c),
(743.84,58,o),
(786.84,4,o),
(825.84,-15,c),
(871.84,31,l),
(840.84,57,o),
(827.84,93,o),
(828.84,146,cs),
(829.84,182,o),
(835.84,225,o),
(847.84,279,cs),
(1062.159,1275,l),
(1208.84,1275,l),
(1222.84,1342,l),
(1076.576,1342,l),
(1122.84,1557,l),
(1030.84,1557,l),
(985.275,1342,l),
(678.84,1342,l),
(664.84,1275,l)
);
},
{
closed = 1;
nodes = (
(272.84,54,o),
(209.215,229.044,o),
(212.84,377,cs),
(221.342,724,o),
(391.84,1010,o),
(658.84,1010,cs),
(760.84,1010,o),
(843.84,938,o),
(876.84,827,c),
(779.84,376,ls),
(745.84,212,o),
(614.84,54,o),
(435.893,54,cs)
);
}
);
width = 1134.84;
}
);
unicode = 273;
},
{
glyphname = eth;
lastChange = "2024-05-29 15:06:57 +0000";
layers = (
{
layerId = "E4F99366-6C9B-4FE4-BFF6-3C09ACD21B57";
shapes = (
{
closed = 1;
nodes = (
(888.98,-19,o),
(1135.98,432,o),
(1135.98,887,cs),
(1135.98,1057.74,o),
(1100.132,1206.795,o),
(1012.437,1326.947,c),
(1187.522,1420.125,l),
(1123.98,1558,l),
(911.798,1446.292,l),
(854.979,1496.651,o),
(766.308,1547.592,o),
(668.98,1570,c),
(548.275,1378.749,l),
(591.24,1361.467,o),
(632.711,1341.42,o),
(666.55,1318.026,c),
(448.544,1199.795,l),
(511.522,1061.125,l),
(770.854,1202.442,l),
(815.859,1136.348,o),
(828.716,987.184,o),
(814.98,886,c),
(765.98,931,o),
(671.98,964,o),
(597.98,964,cs),
(287.98,964,o),
(51.98,711,o),
(51.98,383,cs),
(51.98,140,o),
(210.98,-19,o),
(469.98,-19,cs)
);
},
{
closed = 1;
nodes = (
(423.98,224,o),
(366.98,296,o),
(366.98,400,cs),
(366.98,574,o),
(467.98,739,o),
(628.98,739,cs),
(700.98,739,o),
(762.98,690,o),
(792.98,644,c),
(787.98,621,o),
(782.98,598,o),
(777.98,575,cs),
(735.98,384,o),
(650.98,224,o),
(499.98,224,cs)
);
}
);
width = 1170.98;
},
{
layerId = "4B48D498-D91D-4DFD-A68C-F91EB5F77E01";
shapes = (
{
closed = 1;
nodes = (
(894.61,-21,o),
(1074.61,513,o),
(1074.61,888,cs),
(1074.61,1090,o),
(1036.61,1224,o),
(968.61,1333,c),
(1178.61,1453,l),
(1124.61,1561,l),
(894.61,1428,l),
(836.61,1489,o),
(764.61,1538,o),
(682.61,1570,c),
(601.791,1434.898,l),
(652.791,1413.898,o),
(702.45,1379.711,o),
(741.45,1343.711,c),
(491.61,1199,l),
(545.61,1091,l),
(814.61,1248,l),
(880.61,1143,o),
(894.61,968,o),
(881.61,847,c),
(821.61,910,o),
(709.61,973,o),
(585.61,973,cs),
(298.61,973,o),
(80.61,723,o),
(80.61,369,cs),
(80.61,154,o),
(242.61,-21,o),
(444.61,-21,cs)
);
},
{
closed = 1;
nodes = (
(342.61,133,o),
(283.61,243,o),
(283.61,376,cs),
(283.61,547,o),
(380.61,820,o),
(613.61,820,cs),
(724.61,820,o),
(829.61,751,o),
(856.61,658,c),
(855.61,640,o),
(842.61,579,o),
(832.61,541,cs),
(781.61,352,o),
(629.61,133,o),
(460.61,133,cs)
);
}
);
width = 1149.61;
},
{
layerId = "7E1A2F3E-9482-4B58-A0D1-B49E7A5F97A9";
shapes = (
{
closed = 1;
nodes = (
(828,-21,o),
(1041,466,o),
(1041,984,cs),
(1041,1144,o),
(1009,1287,o),
(957,1361,c),
(1202,1501,l),
(1173,1558,l),
(921,1416,l),
(863,1489,o),
(785,1542,o),
(699,1572,c),
(670,1514,l),
(744,1487,o),
(804,1435,o),
(852,1376,c),
(536,1202,l),
(564,1142,l),
(889,1321,l),
(952,1213,o),
(978,1011,o),
(948,831,c),
(896,921,o),
(771,990,o),
(648,990,cs),
(304,990,o),
(113,702,o),
(113,361,cs),
(113,177,o),
(201,-21,o),
(455,-21,cs)
);
},
{
closed = 1;
nodes = (
(290,49,o),
(206,185,o),
(206,381,cs),
(206,672,o),
(352,919,o),
(646,919,cs),
(783,919,o),
(911,802,o),
(932,714,c),
(931,695,o),
(915,623,o),
(904,573,cs),
(835,254,o),
(629,49,o),
(459,49,cs)
);
}
);
width = 1125;
}
);
unicode = 240;
},
{
glyphname = e;
kernLeft = _e;
kernRight = _e;
lastChange = "2024-05-29 16:45:57 +0000";
layers = (
{
anchors = (
{
name = top;
pos = (697,1122);
}
);
guides = (
{
angle = 78.233;
pos = (444,-90);
}
);
layerId = "E4F99366-6C9B-4FE4-BFF6-3C09ACD21B57";
shapes = (
{
closed = 1;
nodes = (
(641.35,-20,o),
(814.67,76,o),
(898.427,147,c),
(797.172,333,l),
(707.292,269,o),
(618.115,222,o),
(522.115,222,cs),
(467.115,222,o),
(375.607,251,o),
(372.877,407,cs),
(372.455,431.15,o),
(373.649,456.62,o),
(376.362,482.73,c),
(439.808,460.14,o),
(516.58,444,o),
(575.23,444,cs),
(876.23,444,o),
(1056.535,598,o),
(1056.352,837,cs),
(1055.747,1043,o),
(900.015,1142,o),
(698.015,1142,cs),
(264.015,1142,o),
(58.84,752,o),
(59.245,386,cs),
(59.305,154,o),
(221.35,-20,o),
(464.35,-20,cs)
);
},
{
closed = 1;
nodes = (
(501.492,653,o),
(460.779,664.6,o),
(424.399,681.19,c),
(473.398,806.38,o),
(555.24,908,o),
(661.11,908,cs),
(715.11,908,o),
(757.722,873,o),
(758.702,817,cs),
(760.225,730,o),
(672.572,653,o),
(541.572,653,cs)
);
}
);
width = 1059;
},
{
anchors = (
{
name = top;
pos = (662.139,1082);
}
);
guides = (
{
angle = 78.233;
pos = (418,-90);
}
);
layerId = "4B48D498-D91D-4DFD-A68C-F91EB5F77E01";
shapes = (
{
closed = 1;
nodes = (
(595,-21,o),
(730,36,o),
(813,108,c),
(749,232,l),
(660,168,o),
(573,133,o),
(485,133,cs),
(349,133,o),
(287,202,o),
(287,379,cs),
(287,416,o),
(290,458,o),
(298,501,c),
(311,497,o),
(394,462,o),
(515,462,cs),
(769,462,o),
(996,614,o),
(996,832,cs),
(996,1007,o),
(868,1102,o),
(671,1102,cs),
(261,1102,o),
(83,691,o),
(83,342,cs),
(83,148,o),
(199,-21,o),
(442,-21,cs)
);
},
{
closed = 1;
nodes = (
(420,606,o),
(360,629,o),
(339,645,c),
(400,807,o),
(510,948,o),
(658,948,cs),
(725,948,o),
(792,911,o),
(792,822,cs),
(792,691,o),
(636,606,o),
(501,606,cs)
);
}
);
width = 1011;
},
{
anchors = (
{
name = top;
pos = (661.348,1059);
}
);
guides = (
{
pos = (0,1082);
},
{
pos = (0,-21);
},
{
pos = (0,560);
},
{
angle = 90;
pos = (151,0);
},
{
angle = 90;
pos = (986,0);
},
{
angle = 78.233;
pos = (422,-90);
}
);
layerId = "7E1A2F3E-9482-4B58-A0D1-B49E7A5F97A9";
shapes = (
{
closed = 1;
nodes = (
(607,-21,o),
(723,52,o),
(785,108,c),
(750,162,l),
(665,92,o),
(561,55,o),
(483,55,cs),
(301,55,o),
(219,141,o),
(219,410,cs),
(219,447,o),
(226,516,o),
(234,559,c),
(264,547,o),
(396,509,o),
(527,509,cs),
(781,509,o),
(958,612,o),
(958,830,cs),
(958,985,o),
(840,1082,o),
(663,1082,cs),
(261,1082,o),
(125,703,o),
(125,354,cs),
(125,160,o),
(211,-21,o),
(454,-21,cs)
);
},
{
closed = 1;
nodes = (
(459,581,o),
(287,612,o),
(248,632,c),
(296,806,o),
(409,1011,o),
(662,1011,cs),
(814,1011,o),
(865,914,o),
(865,825,cs),
(865,624,o),
(661,581,o),
(540,581,cs)
);
}
);
width = 1011;
}
);
unicode = 101;
},
{
glyphname = f;
kernLeft = _f;
kernRight = _f;
lastChange = "2024-05-29 19:23:26 +0000";
layers = (
{
guides = (
{
pos = (0.22,-416);
},
{
angle = 90;
pos = (-4727.78,0);
},
{
pos = (0.22,-437);
}
);
layerId = "E4F99366-6C9B-4FE4-BFF6-3C09ACD21B57";
shapes = (
{
closed = 1;
nodes = (
(111.22,-437,o),
(272.22,-328,o),
(336.22,-30,cs),
(539.91,902,l),
(723.22,902,l),
(771.22,1122,l),
(587.99,1122,l),
(607.22,1210,ls),
(626.22,1298,o),
(661.22,1350,o),
(759.22,1350,cs),
(784.22,1350,o),
(821.22,1338,o),
(836.22,1333,c),
(906.22,1536,l),
(845.22,1565,o),
(774.22,1580,o),
(715.22,1580,cs),
(508.22,1580,o),
(347.22,1471,o),
(283.22,1173,cs),
(272.07,1122,l),
(140.22,1122,l),
(90.22,902,l),
(223.99,902,l),
(12.22,-67,ls),
(-6.78,-155,o),
(-41.78,-207,o),
(-139.78,-207,cs),
(-164.78,-207,o),
(-201.78,-195,o),
(-216.78,-190,c),
(-286.78,-393,l),
(-225.78,-422,o),
(-154.78,-437,o),
(-95.78,-437,cs)
);
}
);
width = 670.22;
},
{
guides = (
{
pos = (2.2,-437.634);
},
{
angle = 90;
pos = (-1779,0);
},
{
pos = (0,1580);
}
);
layerId = "4B48D498-D91D-4DFD-A68C-F91EB5F77E01";
shapes = (
{
closed = 1;
nodes = (
(80.594,-438.328,o),
(241.499,-245.308,o),
(288.594,-22.328,cs),
(491,936,l),
(716,936,l),
(747,1082,l),
(522,1082,l),
(552,1220,ls),
(579,1349,o),
(645,1421,o),
(748,1421,cs),
(781,1421,o),
(811,1415,o),
(835,1410,c),
(889,1560,l),
(861,1569,o),
(800,1581,o),
(757,1581,cs),
(549,1581,o),
(400,1448,o),
(352,1220,cs),
(322,1082,l),
(167,1082,l),
(136,936,l),
(291,936,l),
(89.594,-17.328,ls),
(62.958,-143.405,o),
(-10.406,-278.328,o),
(-122.406,-278.328,cs),
(-155.406,-278.328,o),
(-185.406,-272.328,o),
(-209.406,-267.328,c),
(-263.406,-417.328,l),
(-235.406,-426.328,o),
(-174.406,-438.328,o),
(-131.406,-438.328,cs)
);
}
);
width = 652;
},
{
guides = (
{
pos = (0,1570);
},
{
pos = (0,992);
},
{
pos = (0,999);
},
{
pos = (0,-447);
},
{
angle = 90;
pos = (-1798,0);
}
);
layerId = "7E1A2F3E-9482-4B58-A0D1-B49E7A5F97A9";
shapes = (
{
closed = 1;
nodes = (
(33.576,-446.707,o),
(138.251,-308.64,o),
(196.576,-36.707,cs),
(417,991,l),
(652,991,l),
(663,1059,l),
(428,1059,l),
(459,1220,ls),
(486,1349,o),
(527,1499,o),
(690,1499,cs),
(723,1499,o),
(752,1494,o),
(776,1487,c),
(799,1552,l),
(771,1561,o),
(727,1570,o),
(684,1570,cs),
(496,1570,o),
(414,1448,o),
(369,1220,cs),
(338,1059,l),
(159,1059,l),
(148,991,l),
(325,991,l),
(110.576,-36.707,ls),
(78.249,-191.644,o),
(11.576,-374.707,o),
(-137.424,-374.707,cs),
(-150.424,-374.707,o),
(-179.424,-371.707,o),
(-197.424,-366.707,c),
(-215.424,-431.707,l),
(-187.424,-440.707,o),
(-161.424,-446.707,o),
(-118.424,-446.707,cs)
);
}
);
width = 574;
}
);
unicode = 102;
},
{
glyphname = g;
lastChange = "2024-05-29 19:23:02 +0000";
layers = (
{
anchors = (
{
name = top;
pos = (679,1122);
}
);
guides = (
{
pos = (0,-437);
},
{
angle = 90;
pos = (-721,0);
},
{
angle = 90;
pos = (-771,0);
},
{
angle = 78.14;
pos = (-1219,0);
}
);
layerId = "E4F99366-6C9B-4FE4-BFF6-3C09ACD21B57";
shapes = (
{
closed = 1;
nodes = (
(604,-437,o),
(827,-295,o),
(907,82,cs),
(1129,1122,l),
(873,1122,l),
(800.74,988.07,l),
(760.35,1092.89,o),
(665.12,1142,o),
(567,1142,cs),
(279,1142,o),
(60,772,o),
(54,353,cs),
(51,118,o),
(173,-20,o),
(358,-20,cs),
(458.23,-20,o),
(534.53,23.15,o),
(595.55,85.09,c),
(525.79,-165.06,o),
(399.11,-203,o),
(267,-203,cs),
(132,-203,o),
(15,-147,o),
(-41,-102,c),
(-159,-288,l),
(-33,-378,o),
(119,-437,o),
(320,-437,cs)
);
},
{
closed = 1;
nodes = (
(409,209,o),
(369,255,o),
(369,399,cs),
(369,608,o),
(476,901,o),
(632,901,cs),
(695.3,901,o),
(727.52,856.84,o),
(745.68,790.72,c),
(678.49,470.99,ls),
(640,293,o),
(563.67,209,o),
(477,209,cs)
);
}
);
width = 1138;
},
{
anchors = (
{
name = top;
pos = (682.424,1082);
}
);
guides = (
{
pos = (1.81,-437);
},
{
angle = 90;
pos = (469.81,0);
},
{
angle = 90;
pos = (419.81,0);
},
{
angle = 78.14;
pos = (-28.19,0);
}
);
layerId = "4B48D498-D91D-4DFD-A68C-F91EB5F77E01";
shapes = (
{
closed = 1;
nodes = (
(572.81,-437,o),
(794.81,-305,o),
(874.81,72,cs),
(1089.81,1082,l),
(924.81,1082,l),
(873.81,945,l),
(816.81,1047,o),
(719.81,1101,o),
(627.81,1101,cs),
(281.81,1101,o),
(81.81,709,o),
(81.81,343,cs),
(81.81,108,o),
(235.81,-22,o),
(400.81,-22,cs),
(504.81,-22,o),
(608.81,28,o),
(681.81,104,c),
(597.81,-225,o),
(431.81,-283,o),
(313.81,-283,cs),
(155.81,-283,o),
(27.81,-200,o),
(-4.19,-172,c),
(-93.19,-302,l),
(-53.071,-337.207,o),
(107.81,-437,o),
(320.81,-437,cs)
);
},
{
closed = 1;
nodes = (
(364.81,132,o),
(285.81,182,o),
(285.81,371,cs,{
name = hr01;
}),
(285.81,585,o),
(410.81,942,o),
(644.81,942,cs),
(731.81,942,o),
(802.81,874,o),
(823.81,772,c,{
name = hr02;
}),
(758.81,467,ls),
(707.81,231,o),
(543.81,132,o),
(450.81,132,cs)
);
}
);
width = 1139.81;
},
{
anchors = (
{
name = top;
pos = (663.394,1059);
}
);
guides = (
{
pos = (-2.16,-447);
},
{
pos = (-2.16,1082);
},
{
pos = (-2.16,-138);
},
{
angle = 90;
pos = (1047.84,0);
},
{
angle = 78.14;
pos = (726.84,0);
},
{
angle = 78.14;
pos = (973.04,0);
}
);
layerId = "7E1A2F3E-9482-4B58-A0D1-B49E7A5F97A9";
shapes = (
{
closed = 1;
nodes = (
(618.84,-446.867,o),
(726.896,-300.666,o),
(805.84,67,cs,{
name = hr01;
}),
(1018.84,1059,l),
(950.84,1059,l),
(900.84,918,l),
(867.84,1007,o),
(763.84,1082,o),
(640.84,1082,cs),
(325.84,1082,o),
(122.84,740,o),
(122.84,357,cs),
(122.84,122,o),
(267.84,-20,o),
(423.84,-20,cs),
(552.386,-20,o),
(659.855,50.476,o),
(733.865,152.851,c),
(677.025,-156.319,o),
(605.292,-369.867,o),
(334.84,-369.867,cs),
(166.84,-369.867,o),
(60.84,-282.867,o),
(28.84,-256.867,c),
(-12.16,-311.867,l),
(25.545,-349.331,o),
(163.84,-446.867,o),
(346.84,-446.867,cs)
);
},
{
closed = 1;
nodes = (
(273.84,54,o),
(210.21,229.04,o),
(213.84,377,cs),
(222.34,724,o),
(391.84,1010,o),
(648.84,1010,cs),
(760.84,1010,o),
(844.84,938,o),
(877.84,827,c),
(780.84,376,ls),
(746.813,211.868,o),
(615.664,54,o),
(436.89,54,cs)
);
}
);
width = 1126.84;
}
);
unicode = 103;
},
{
glyphname = h;
kernRight = _n_dir;
lastChange = "2024-05-28 01:03:20 +0000";
layers = (
{
layerId = "E4F99366-6C9B-4FE4-BFF6-3C09ACD21B57";
shapes = (
{
closed = 1;
nodes = (
(953,263,o),
(954,276,o),
(957,291,cs),
(984,438,o),
(1017,562,o),
(1046,709,cs),
(1057,767,o),
(1063,819,o),
(1063,865,cs),
(1063,1017,o),
(994,1142,o),
(829,1142,cs),
(708.75,1142,o),
(597.9,1071.28,o),
(531.09,1004.11,c),
(652,1560,l),
(339,1560,l),
(7,0,l),
(320,0,l),
(447,616,l),
(483,784,o),
(583,897,o),
(670,897,cs),
(717,897,o),
(740,870,o),
(740,792,cs),
(740,759,o),
(734,712,o),
(725,665,cs),
(695,514,o),
(640,315,o),
(640,198,cs),
(640,51,o),
(754.124,-1,o),
(857,-20,c),
(990,125,l),
(953,150,o),
(948,199,o),
(952,249,cs,{
name = hr03;
})
);
}
);
width = 1137;
},
{
layerId = "4B48D498-D91D-4DFD-A68C-F91EB5F77E01";
shapes = (
{
closed = 1;
nodes = (
(911,219,o),
(912,232,o),
(915,245,c),
(941,392,o),
(980,530,o),
(1008,677,cs),
(1019,735,o),
(1025,787,o),
(1025,833,cs),
(1025,1017,o),
(936,1101,o),
(765,1101,cs),
(629,1101,o),
(509,1030,o),
(452,953,c),
(586,1559,l),
(386,1559,l),
(53,0,l,{
name = hr01;
}),
(253,0,l),
(386,616,l),
(430,813,o),
(551,941,o),
(697,942,cs),
(784,943,o),
(821,898,o),
(821,796,cs),
(821,762,o),
(817,721,o),
(809,674,cs),
(779,497,o),
(717,296,o),
(717,172,cs),
(717,54,o),
(780.474,1,o),
(864,-21,c),
(967,90,l),
(925,118,o),
(911,162,o),
(911,206,cs,{
name = hr03;
})
);
}
);
width = 1140;
},
{
guides = (
{
pos = (0,1560);
},
{
angle = 78.14;
pos = (122,0);
},
{
angle = 78.14;
pos = (212,0);
}
);
layerId = "7E1A2F3E-9482-4B58-A0D1-B49E7A5F97A9";
shapes = (
{
closed = 1;
nodes = (
(846.804,169.919,o),
(857,228,o),
(860,243,cs),
(887,390,o),
(923,517,o),
(949,667,cs),
(959,725,o),
(961,743,o),
(966,787,cs,{
name = hr01;
}),
(988,967,o),
(920,1082,o),
(733,1082,cs),
(579,1082,o),
(426,959,o),
(374,880,c),
(518,1560,l),
(428,1560,l),
(98,0,l),
(186,0,l),
(332,677,ls),
(354,787,o),
(509,1009,o),
(723,1009,cs),
(885,1009,o),
(896,877,o),
(878,763,cs),
(873,731,o),
(871,710,o),
(861,663,cs),
(829,513,o),
(762,245,o),
(758,134,cs),
(754,40,o),
(781.379,4.62,o),
(835,-16,c),
(876,38,l),
(837,67,o),
(838,102,o),
(845,156,cs,{
name = hr02;
})
);
}
);
width = 1128;
}
);
unicode = 104;
},
{
glyphname = i;
lastChange = "2024-05-28 01:04:34 +0000";
layers = (
{
guides = (
{
angle = 78.459;
pos = (380,0);
}
);
layerId = "E4F99366-6C9B-4FE4-BFF6-3C09ACD21B57";
shapes = (
{
closed = 1;
nodes = (
(591,1299,l),
(645,1560,l),
(332,1560,l),
(278,1299,l)
);
},
{
closed = 1;
nodes = (
(428,124,l),
(390,151,o),
(364,204,o),
(369,250,cs,{
name = hr03;
}),
(370,260,o),
(372,279,o),
(375,294,cs),
(402,441,o),
(522,975,o),
(551,1122,c),
(238,1122,l),
(208,972,o),
(60,326,o),
(60,212,cs),
(60,61,o),
(176.635,4.023,o),
(295,-21,c)
);
}
);
width = 563;
},
{
layerId = "4B48D498-D91D-4DFD-A68C-F91EB5F77E01";
shapes = (
{
closed = 1;
nodes = (
(535,1362,l),
(577,1560,l),
(377,1560,l),
(335,1362,l)
);
},
{
closed = 1;
nodes = (
(350,90,l),
(309,120,o),
(294,160,o),
(294,203,cs),
(294,217,o),
(295,231,o),
(298,245,c),
(356,521,o),
(417,806,o),
(475,1082,c),
(275,1082,l),
(217,779,o),
(100,304,o),
(100,172,cs,{
name = hr01;
}),
(100,51,o),
(160.553,6.203,o),
(247,-21,c)
);
}
);
width = 534;
},
{
guides = (
{
pos = (0,1555);
}
);
layerId = "7E1A2F3E-9482-4B58-A0D1-B49E7A5F97A9";
shapes = (
{
closed = 1;
nodes = (
(483,1443,l),
(506,1555,l),
(408,1555,l),
(384,1443,l)
);
},
{
closed = 1;
nodes = (
(267,38,l),
(223.536,68.68,o),
(219.91,107.352,o),
(225,168,cs),
(225.425,172.976,o),
(227,188,o),
(231,216,c),
(288,494,o),
(346,781,o),
(403,1059,c),
(314,1059,l),
(256,756,o),
(147.988,304,o),
(139,172,cs),
(130.607,48.74,o),
(174.19,5.518,o),
(226,-17,c)
);
}
);
width = 508;
}
);
unicode = 105;
},
{
glyphname = idotless;
lastChange = "2024-05-28 01:05:10 +0000";
layers = (
{
anchors = (
{
name = top;
pos = (392,1122);
}
);
layerId = "E4F99366-6C9B-4FE4-BFF6-3C09ACD21B57";
shapes = (
{
closed = 1;
nodes = (
(428,124,l),
(390,151,o),
(364,204,o),
(369,250,cs,{
name = hr03;
}),
(370,260,o),
(372,279,o),
(375,294,cs),
(402,441,o),
(522,975,o),
(551,1122,c),
(238,1122,l),
(208,972,o),
(60,326,o),
(60,212,cs),
(60,61,o),
(176.635,4.023,o),
(295,-21,c)
);
}
);
width = 563;
},
{
anchors = (
{
name = top;
pos = (374,1082);
}
);
layerId = "4B48D498-D91D-4DFD-A68C-F91EB5F77E01";
shapes = (
{
closed = 1;
nodes = (
(350,90,l),
(309,120,o),
(294,160,o),
(294,203,cs),
(294,217,o),
(295,231,o),
(298,245,c),
(356,521,o),
(417,806,o),
(475,1082,c),
(275,1082,l),
(217,779,o),
(100,304,o),
(100,172,cs,{
name = hr01;
}),
(100,51,o),
(160.553,6.203,o),
(247,-21,c)
);
}
);
width = 534;
},
{
anchors = (
{
name = top;
pos = (357,1059);
}
);
guides = (
{
pos = (0,1555);
}
);
layerId = "7E1A2F3E-9482-4B58-A0D1-B49E7A5F97A9";
shapes = (
{
closed = 1;
nodes = (
(267,38,l),
(223.536,68.68,o),
(219.91,107.352,o),
(225,168,cs),
(225.425,172.976,o),
(227,188,o),
(231,216,c),
(288,494,o),
(346,781,o),
(403,1059,c),
(314,1059,l),
(256,756,o),
(147.988,304.001,o),
(139,172,cs),
(130.607,48.74,o),
(174.19,5.518,o),
(226,-17,c)
);
}
);
width = 508;
}
);
unicode = 305;
},
{
glyphname = iacute;
lastChange = "2024-05-27 17:45:41 +0000";
layers = (
{
guides = (
{
angle = 78.459;
pos = (380,0);
}
);
layerId = "E4F99366-6C9B-4FE4-BFF6-3C09ACD21B57";
shapes = (
{
closed = 1;
nodes = (
(415,1227,l),
(870,1559,l),
(480,1559,l),
(157,1227,l)
);
},
{
alignment = -1;
ref = idotless;
}
);
width = 563;
},
{
guides = (
{
angle = 90;
pos = (390,0);
}
);
layerId = "4B48D498-D91D-4DFD-A68C-F91EB5F77E01";
shapes = (
{
closed = 1;
nodes = (
(427,1211,l),
(860,1543,l),
(575,1543,l),
(250,1211,l)
);
},
{
alignment = -1;
ref = idotless;
}
);
width = 535;
},
{
guides = (
{
angle = 78.14;
pos = (-1652,0);
},
{
angle = 78.14;
pos = (113,0);
},
{
angle = 90;
pos = (426,0);
},
{
pos = (0,1558);
}
);
layerId = "7E1A2F3E-9482-4B58-A0D1-B49E7A5F97A9";
shapes = (
{
closed = 1;
nodes = (
(368,1226,l),
(764,1558,l),
(627,1558,l),
(295,1226,l)
);
},
{
alignment = -1;
ref = idotless;
}
);
width = 505;
}
);
unicode = 237;
},
{
glyphname = icircumflex;
lastChange = "2024-05-29 18:42:08 +0000";
layers = (
{
guides = (
{
angle = 78.459;
pos = (284,0);
},
{
pos = (0,1565);
},
{
pos = (0,1211);
}
);
layerId = "E4F99366-6C9B-4FE4-BFF6-3C09ACD21B57";
shapes = (
{
closed = 1;
nodes = (
(278,1233,l),
(445,1373,l),
(548,1233,l),
(790,1233,l),
(601,1565,l),
(356,1565,l),
(32,1233,l)
);
},
{
alignment = -1;
ref = idotless;
}
);
width = 563;
},
{
guides = (
{
angle = 90;
pos = (390,0);
},
{
pos = (0,1565);
},
{
pos = (0,1211);
}
);
layerId = "4B48D498-D91D-4DFD-A68C-F91EB5F77E01";
shapes = (
{
closed = 1;
nodes = (
(213,1212,l),
(438,1374,l),
(582,1212,l),
(738,1212,l),
(531,1541,l),
(390,1541,l),
(46,1212,l)
);
},
{
alignment = -1;
ref = idotless;
}
);
width = 535;
},
{
guides = (
{
angle = 78.14;
pos = (-1754,0);
},
{
angle = 78.14;
pos = (-1951,0);
},
{
angle = 90;
pos = (426,0);
}
);
layerId = "7E1A2F3E-9482-4B58-A0D1-B49E7A5F97A9";
shapes = (
{
closed = 1;
nodes = (
(179,1226,l),
(449,1458,l),
(624,1226,l),
(689,1226,l),
(491,1558,l),
(431,1558,l),
(101,1226,l)
);
},
{
alignment = -1;
ref = idotless;
}
);
width = 505;
}
);
unicode = 238;
},
{
glyphname = idieresis;
lastChange = "2024-05-29 18:40:55 +0000";
layers = (
{
guides = (
{
angle = 78.157;
pos = (279,0);
}
);
layerId = "E4F99366-6C9B-4FE4-BFF6-3C09ACD21B57";
shapes = (
{
closed = 1;
nodes = (
(352,1258,l),
(401,1486,l),
(131,1486,l),
(82,1258,l)
);
},
{
alignment = -1;
ref = idotless;
},
{
closed = 1;
nodes = (
(759,1258,l),
(808,1486,l),
(538,1486,l),
(489,1258,l)
);
}
);
width = 563;
},
{
layerId = "4B48D498-D91D-4DFD-A68C-F91EB5F77E01";
shapes = (
{
closed = 1;
nodes = (
(319,1263,l),
(360,1456,l),
(164,1456,l),
(123,1263,l)
);
},
{
alignment = -1;
ref = idotless;
},
{
closed = 1;
nodes = (
(705,1263,l),
(746,1456,l),
(551,1456,l),
(510,1263,l)
);
}
);
width = 534;
},
{
guides = (
{
angle = 78.14;
pos = (158,0);
}
);
layerId = "7E1A2F3E-9482-4B58-A0D1-B49E7A5F97A9";
shapes = (
{
closed = 1;
nodes = (
(299,1346,l),
(322,1456,l),
(230,1456,l),
(207,1346,l)
);
},
{
alignment = -1;
ref = idotless;
},
{
closed = 1;
nodes = (
(636,1346,l),
(659,1456,l),
(567,1456,l),
(544,1346,l)
);
}
);
width = 511;
}
);
unicode = 239;
},
{
glyphname = igrave;
lastChange = "2024-05-29 18:40:36 +0000";
layers = (
{
guides = (
{
angle = 78.459;
pos = (380,0);
}
);
layerId = "E4F99366-6C9B-4FE4-BFF6-3C09ACD21B57";
shapes = (
{
closed = 1;
nodes = (
(656,1225,l),
(476,1557,l),
(90,1557,l),
(438,1225,l)
);
},
{
alignment = -1;
ref = idotless;
}
);
width = 563;
},
{
guides = (
{
angle = 90;
pos = (390,0);
}
);
layerId = "4B48D498-D91D-4DFD-A68C-F91EB5F77E01";
shapes = (
{
closed = 1;
nodes = (
(553,1211,l),
(350,1543,l),
(85,1543,l),
(404,1211,l)
);
},
{
alignment = -1;
ref = idotless;
}
);
width = 535;
},
{
guides = (
{
angle = 78.14;
pos = (202,0);
},
{
angle = 78.14;
pos = (-1063,0);
},
{
angle = 78.14;
pos = (-1156,0);
},
{
angle = 78.14;
pos = (291,0);
},
{
angle = 90;
pos = (426,0);
}
);
layerId = "7E1A2F3E-9482-4B58-A0D1-B49E7A5F97A9";
shapes = (
{
closed = 1;
nodes = (
(484,1226,l),
(282,1558,l),
(164,1558,l),
(419,1226,l)
);
},
{
alignment = -1;
ref = idotless;
}
);
width = 505;
}
);
unicode = 236;
},
{
color = (153,254,255,255);
glyphname = imacron;
lastChange = "2024-05-29 18:39:48 +0000";
layers = (
{
guides = (
{
angle = 78.459;
pos = (380,0);
}
);
layerId = "E4F99366-6C9B-4FE4-BFF6-3C09ACD21B57";
shapes = (
{
closed = 1;
nodes = (
(739.742,1297,l),
(781.837,1495,l),
(153.837,1495,l),
(111.742,1297,l)
);
},
{
alignment = -1;
ref = idotless;
}
);
width = 563;
},
{
layerId = "4B48D498-D91D-4DFD-A68C-F91EB5F77E01";
shapes = (
{
closed = 1;
nodes = (
(696.132,1320,l),
(727.597,1468,l),
(194.597,1468,l),
(163.132,1320,l)
);
},
{
alignment = -1;
ref = idotless;
}
);
width = 534;
},
{
guides = (
{
pos = (0,1555);
}
);
layerId = "7E1A2F3E-9482-4B58-A0D1-B49E7A5F97A9";
shapes = (
{
closed = 1;
nodes = (
(639.573,1355,l),
(654.88,1427,l),
(220.88,1427,l),
(205.573,1355,l)
);
},
{
alignment = -1;
ref = idotless;
}
);
width = 508;
}
);
unicode = 299;
},
{
glyphname = j;
lastChange = "2024-05-29 19:25:31 +0000";
layers = (
{
layerId = "E4F99366-6C9B-4FE4-BFF6-3C09ACD21B57";
shapes = (
{
closed = 1;
nodes = (
(110,-437,o),
(250,-304,o),
(312,-16,cs),
(556,1122,l),
(243,1122,l),
(-4,-41,ls),
(-27,-147,o),
(-76,-211,o),
(-160,-211,cs),
(-175,-211,o),
(-191,-209,o),
(-208,-204,c),
(-278,-409,l),
(-226,-426,o),
(-151,-437,o),
(-104,-437,cs)
);
},
{
closed = 1;
nodes = (
(596,1299,l),
(650,1560,l),
(337,1560,l),
(283,1299,l)
);
}
);
width = 567;
},
{
layerId = "4B48D498-D91D-4DFD-A68C-F91EB5F77E01";
shapes = (
{
closed = 1;
nodes = (
(58,-437,o),
(191,-314,o),
(249,-42,cs),
(487,1082,l),
(287,1082,l),
(41,-78,ls),
(14,-206,o),
(-58,-282,o),
(-160,-282,cs),
(-191,-282,o),
(-215,-277,o),
(-242,-271,c),
(-295,-417,l),
(-243,-430,o),
(-198,-437,o),
(-149,-437,cs)
);
},
{
closed = 1;
nodes = (
(544,1364,l),
(586,1560,l),
(386,1560,l),
(344,1364,l)
);
}
);
width = 543;
},
{
guides = (
{
pos = (0,1555);
},
{
pos = (0,-447);
}
);
layerId = "7E1A2F3E-9482-4B58-A0D1-B49E7A5F97A9";
shapes = (
{
closed = 1;
nodes = (
(21.611,-445.18,o),
(124.156,-329.509,o),
(185,-42,cs),
(418,1059,l),
(328,1059,l),
(92,-53,ls),
(49.923,-251.262,o),
(-12.389,-373.18,o),
(-178.389,-373.18,cs),
(-202.389,-373.18,o),
(-232.389,-366.18,o),
(-249.389,-362.18,c),
(-271.389,-425.18,l),
(-249.389,-433.18,o),
(-194.389,-445.18,o),
(-165.389,-445.18,cs)
);
},
{
closed = 1;
nodes = (
(480,1443,l),
(503,1555,l),
(405,1555,l),
(381,1443,l)
);
}
);
width = 515;
}
);
unicode = 106;
},
{
glyphname = k;
lastChange = "2024-05-27 15:08:00 +0000";
layers = (
{
guides = (
{
pos = (0,2045);
},
{
pos = (0,-21);
}
);
layerId = "E4F99366-6C9B-4FE4-BFF6-3C09ACD21B57";
shapes = (
{
closed = 1;
nodes = (
(866,-21,o),
(918,-10,o),
(922,-9,c),
(1000,168,l),
(995,168,o),
(971,170,o),
(955,174,cs),
(824,208,o),
(836,425,o),
(733,585,c),
(1169,1122,l),
(843,1122,l),
(511,688,l),
(462.96,688,l),
(653,1562,l),
(340,1562,l),
(8,2,l),
(321,2,l),
(416.47,468,l),
(440,468,ls),
(481,468,o),
(492,435,o),
(506,388,cs),
(598,88,o),
(679,-21,o),
(839,-21,cs)
);
}
);
width = 1058;
},
{
guides = (
{
pos = (0,2045);
},
{
pos = (0,-21);
}
);
layerId = "4B48D498-D91D-4DFD-A68C-F91EB5F77E01";
shapes = (
{
closed = 1;
nodes = (
(800,-21,o),
(833,-11,o),
(837,-10,c),
(892,131,l),
(887,131,o),
(865,133,o),
(849,137,cs),
(715,171,o),
(737,422,o),
(639,582,c),
(1068,1082,l),
(834,1082,l),
(490,653,l),
(391,653,l),
(584,1560,l),
(384,1560,l),
(53,0,l),
(253,0,l),
(358,497,l),
(408,497,ls),
(477,497,o),
(495,445,o),
(508,398,cs),
(583,124,o),
(625,-21,o),
(773,-21,cs)
);
}
);
width = 993;
},
{
guides = (
{
pos = (0,2045);
},
{
pos = (0,-21);
},
{
pos = (0,584);
},
{
pos = (0,1560);
},
{
angle = 78.14;
pos = (-381,0);
},
{
angle = 78.14;
pos = (761,0);
}
);
layerId = "7E1A2F3E-9482-4B58-A0D1-B49E7A5F97A9";
shapes = (
{
closed = 1;
nodes = (
(732,-20,o),
(747,-15,o),
(751,-14,c),
(772,52,l),
(767,52,o),
(763,50,o),
(747,51,cs,{
name = hr01;
}),
(633,57,o),
(675,494,o),
(539,584,c),
(959,1059,l),
(856,1059,l),
(470,615,l),
(315,615,l),
(519,1560,l),
(428,1560,l),
(98,0,l),
(184,0,l),
(303,545,l),
(387,545,ls),
(512,545,o),
(532,500,o),
(555,350,cs),
(584,161,o),
(609,-20,o),
(715,-20,cs)
);
}
);
width = 913;
}
);
unicode = 107;
},
{
glyphname = l;
lastChange = "2024-05-27 15:08:00 +0000";
layers = (
{
layerId = "E4F99366-6C9B-4FE4-BFF6-3C09ACD21B57";
shapes = (
{
closed = 1;
nodes = (
(344,-20,o),
(439,4,o),
(482,29,c),
(502,234,l),
(481,227,o),
(457,220,o),
(432,220,cs),
(397,220,o),
(381,249,o),
(381,292,cs),
(381,314,o),
(385,343,o),
(393,380,cs),
(646,1560,l),
(333,1560,l),
(74,355,ls),
(63,304,o),
(57,252,o),
(57,214,cs),
(57,69,o),
(133,-20,o),
(263,-20,cs)
);
}
);
width = 591;
},
{
layerId = "4B48D498-D91D-4DFD-A68C-F91EB5F77E01";
shapes = (
{
closed = 1;
nodes = (
(304,-21,o),
(369,-7,o),
(412,15,c),
(425,152,l),
(404,145,o),
(376,139,o),
(351,139,cs),
(316,139,o),
(299,158,o),
(299,203,cs),
(299,225,o),
(303,253,o),
(311,289,cs),
(581,1560,l),
(381,1560,l),
(110,286,ls),
(99,235,o),
(94,191,o),
(94,153,cs),
(94,33,o),
(147,-21,o),
(247,-21,cs)
);
}
);
width = 549;
},
{
guides = (
{
pos = (0,1560);
},
{
pos = (0,-21);
}
);
layerId = "7E1A2F3E-9482-4B58-A0D1-B49E7A5F97A9";
shapes = (
{
closed = 1;
nodes = (
(291,-20,o),
(321,-4,o),
(333,3,c),
(341,72,l),
(316,63,o),
(288,56,o),
(264,56,cs),
(233,56,o),
(209,71,o),
(211,117,c),
(211,123,o),
(218,161,o),
(221,176,cs),
(510,1560,l),
(422,1560,l),
(133,179,ls),
(131,167,o),
(123,129,o),
(123,98,cs),
(123,18,o),
(191,-20,o),
(241,-20,cs)
);
}
);
width = 523;
}
);
unicode = 108;
},
{
glyphname = lslash;
lastChange = "2024-05-29 15:33:54 +0000";
layers = (
{
layerId = "E4F99366-6C9B-4FE4-BFF6-3C09ACD21B57";
shapes = (
{
closed = 1;
nodes = (
(169.982,629.416,l),
(111,355,ls),
(100,304,o),
(94,252,o),
(94,214,cs),
(94,69,o),
(170,-20,o),
(300,-20,cs),
(381,-20,o),
(476,4,o),
(519,29,c),
(539,234,l),
(518,227,o),
(494,220,o),
(469,220,cs),
(434,220,o),
(418,249,o),
(418,292,cs),
(418,314,o),
(422,343,o),
(430,380,cs),
(510.528,755.583,l),
(679,818,l),
(729,1058,l),
(562.088,996.064,l),
(683,1560,l),
(370,1560,l),
(221.635,869.733,l),
(93,822,l),
(42,582,l)
);
}
);
width = 658;
},
{
layerId = "4B48D498-D91D-4DFD-A68C-F91EB5F77E01";
shapes = (
{
closed = 1;
nodes = (
(192.26,663.312,l),
(112,286,ls),
(101,235,o),
(96,191,o),
(96,153,cs),
(96,33,o),
(149,-21,o),
(249,-21,cs),
(306,-21,o),
(371,-7,o),
(414,15,c),
(427,152,l),
(406,145,o),
(378,139,o),
(353,139,cs),
(318,139,o),
(301,158,o),
(301,203,cs),
(301,225,o),
(305,253,o),
(313,289,cs),
(412.011,755.085,l),
(589,829,l),
(620,990,l),
(446.524,917.552,l),
(583,1560,l),
(383,1560,l),
(226.824,825.8,l),
(98,772,l),
(67,611,l)
);
}
);
width = 575;
},
{
guides = (
{
pos = (0,1560);
},
{
pos = (0,-21);
}
);
layerId = "7E1A2F3E-9482-4B58-A0D1-B49E7A5F97A9";
shapes = (
{
closed = 1;
nodes = (
(252.625,726.741,l),
(138,179,ls),
(136,167,o),
(128,129,o),
(128,98,cs),
(128,18,o),
(196,-20,o),
(246,-20,cs),
(296,-20,o),
(326,-4,o),
(338,3,c),
(346,72,l),
(321,63,o),
(293,56,o),
(269,56,cs),
(238,56,o),
(214,71,o),
(216,117,cs),
(216,123,o),
(223,161,o),
(226,176,cs),
(350.594,772.671,l),
(539,861,l),
(554,940,l),
(367.206,852.224,l),
(515,1560,l),
(427,1560,l),
(269.252,806.195,l),
(122,737,l),
(106,658,l)
);
}
);
width = 543;
}
);
unicode = 322;
},
{
glyphname = m;
kernRight = _n_dir;
lastChange = "2024-05-28 01:00:11 +0000";
layers = (
{
guides = (
{
pos = (0,902);
},
{
angle = 90;
pos = (1946,0);
}
);
layerId = "E4F99366-6C9B-4FE4-BFF6-3C09ACD21B57";
shapes = (
{
closed = 1;
nodes = (
(1204,53,o),
(1318.124,-1,o),
(1421,-20,c),
(1554,125,l),
(1517,150,o),
(1513,201,o),
(1516,249,cs,{
name = hr03;
}),
(1517,263,o),
(1518,278,o),
(1521,293,cs),
(1548,440,o),
(1581,562,o),
(1610,709,cs),
(1621,767,o),
(1627,819,o),
(1627,865,cs),
(1627,1017,o),
(1558,1142,o),
(1393,1142,cs),
(1241,1142,o),
(1097,1029,o),
(1045,953,c),
(1022,1063,o),
(951,1142,o),
(819,1142,cs),
(667,1142,o),
(545,1027,o),
(489,951,c,{
name = hr02;
}),
(510,1122,l),
(247,1122,l),
(7,0,l,{
name = hr01;
}),
(320,0,l),
(451,616,ls),
(487,784,o),
(573,897,o),
(660,897,cs),
(703,897,o),
(730,870,o),
(730,792,cs),
(730,759,o),
(725,712,o),
(715,665,cs),
(576,-1,l),
(889,-1,l),
(1017,616,ls),
(1052,784,o),
(1147,897,o),
(1234,897,cs),
(1281,897,o),
(1304,870,o),
(1304,792,cs),
(1304,759,o),
(1298,712,o),
(1289,665,cs),
(1259,514,o),
(1204,317,o),
(1204,200,cs)
);
}
);
width = 1701;
},
{
guides = (
{
pos = (0,902);
},
{
angle = 90;
pos = (243,0);
}
);
layerId = "4B48D498-D91D-4DFD-A68C-F91EB5F77E01";
shapes = (
{
closed = 1;
nodes = (
(1288,54,o),
(1351.474,1,o),
(1435,-21,c),
(1538,90,l),
(1496,118,o),
(1482,157,o),
(1482,201,cs,{
name = hr03;
}),
(1482,219,o),
(1483.698,231.858,o),
(1486,245,cs),
(1510,382,o),
(1545,511,o),
(1574,647,cs),
(1588,714,o),
(1595,774,o),
(1595,826,cs),
(1595,1011,o),
(1507,1101,o),
(1344,1101,cs,{
name = hr01;
}),
(1205,1101,o),
(1071,1031,o),
(1002,902,c),
(982,1035,o),
(890,1101,o),
(759,1101,cs),
(616,1101,o),
(497,1036,o),
(428,937,c),
(446,1082,l),
(278,1082,l,{
name = hr04;
}),
(49,0,l),
(249,0,l),
(381,620,l),
(425,811,o),
(553,943,o),
(677,943,cs),
(775,943,o),
(801,863,o),
(801,779,cs),
(801,732,o),
(793,683,o),
(785,646,cs),
(648,0,l),
(848,0,l),
(974,595,ls),
(1016,794,o),
(1146,943,o),
(1267,943,cs),
(1350,943,o),
(1392,902,o),
(1392,795,cs,{
name = hr02;
}),
(1392,755,o),
(1386,706,o),
(1374,646,cs),
(1344,503,o),
(1288,298,o),
(1288,172,cs)
);
}
);
width = 1711;
},
{
guides = (
{
pos = (0,876);
showMeasurement = 1;
},
{
pos = (0,677);
},
{
angle = 90;
pos = (278,0);
},
{
angle = 78.14;
pos = (124,0);
},
{
angle = 78.14;
pos = (721,0);
},
{
angle = 78.14;
pos = (854,0);
},
{
angle = 78.14;
pos = (1235,0);
},
{
angle = 78.14;
pos = (1359,0);
}
);
layerId = "7E1A2F3E-9482-4B58-A0D1-B49E7A5F97A9";
shapes = (
{
closed = 1;
nodes = (
(1345,30,o),
(1379.086,2.838,o),
(1426,-16,c),
(1467,38,l),
(1439,58,o),
(1433,80,o),
(1433,108,cs),
(1433,154,o),
(1442,198,o),
(1451,243,cs),
(1478,390,o),
(1513,517,o),
(1539,667,cs),
(1548,720,o),
(1561,790,o),
(1561,844,cs),
(1561,991,o),
(1481,1082,o),
(1314,1082,cs,{
name = hr01;
}),
(1170,1082,o),
(1027,998,o),
(949,876,c),
(950,948,o),
(890,1082,o),
(713,1082,cs),
(569,1082,o),
(426,959,o),
(374,880,c),
(393,1059,l),
(324,1059,l,{
name = hr03;
}),
(98,0,l),
(186,0,l),
(332,677,ls),
(354,787,o),
(499,1009,o),
(703,1009,cs),
(825,1009,o),
(864,914,o),
(864,825,cs),
(864,804,o),
(862,782,o),
(858,763,cs),
(703,0,l),
(787,0,l),
(933,677,ls),
(969,843,o),
(1106,1009,o),
(1304,1009,cs),
(1439,1009,o),
(1471,923,o),
(1471,829,cs),
(1471,773,o),
(1462,717,o),
(1450,663,cs),
(1418,513,o),
(1353.269,244.99,o),
(1349,134,cs)
);
}
);
width = 1719;
}
);
unicode = 109;
},
{
glyphname = n;
kernRight = _n_dir;
lastChange = "2024-05-28 01:02:44 +0000";
layers = (
{
anchors = (
{
name = top;
pos = (696,1122);
}
);
guides = (
{
angle = 90;
pos = (-912,0);
showMeasurement = 1;
},
{
pos = (0,1142);
},
{
angle = 78.459;
pos = (467,0);
}
);
layerId = "E4F99366-6C9B-4FE4-BFF6-3C09ACD21B57";
shapes = (
{
closed = 1;
nodes = (
(994,125,l),
(957,150,o),
(952,199,o),
(956,249,cs,{
name = hr03;
}),
(957.119,262.991,o),
(958,278,o),
(961,293,cs),
(988,440,o),
(1021,562,o),
(1050,709,cs),
(1061,767,o),
(1067,819,o),
(1067,865,cs),
(1067,1017,o),
(998,1142,o),
(833,1142,cs),
(681,1142,o),
(544,1029,o),
(492,953,c,{
name = hr02;
}),
(510,1122,l),
(247,1122,l),
(7,0,l,{
name = hr01;
}),
(320,0,l),
(451,616,ls),
(487,784,o),
(587,897,o),
(674,897,cs),
(721,897,o),
(744,870,o),
(744,792,cs),
(744,759,o),
(738,712,o),
(729,665,cs),
(699,514,o),
(644,317,o),
(644,200,cs),
(644,53,o),
(758.124,-1,o),
(861,-20,c)
);
}
);
width = 1141;
},
{
anchors = (
{
name = top;
pos = (685.942,1082);
}
);
guides = (
{
angle = 90;
pos = (244,0);
},
{
angle = 78.459;
pos = (465,0);
}
);
layerId = "4B48D498-D91D-4DFD-A68C-F91EB5F77E01";
shapes = (
{
closed = 1;
nodes = (
(963,90,l),
(921,118,o),
(907,157,o),
(907,201,cs,{
name = hr03;
}),
(907,215,o),
(908,230,o),
(911,245,cs),
(938,392,o),
(975,530,o),
(1005,677,cs),
(1017,735,o),
(1023,787,o),
(1023,833,cs),
(1023,1016,o),
(929,1101,o),
(762,1101,cs),
(604,1101,o),
(480,1017,o),
(428,941,c,{
name = hr02;
}),
(446,1082,l),
(278,1082,l),
(49,0,l,{
name = hr01;
}),
(249,0,l),
(379,619,l),
(427,836,o),
(577,942,o),
(688,942,cs),
(768,942,o),
(818,906,o),
(818,793,cs),
(818,760,o),
(814,721,o),
(805,674,cs),
(775,523,o),
(713,296,o),
(713,172,cs),
(713,54,o),
(776.474,1,o),
(860,-21,c)
);
}
);
width = 1138;
},
{
anchors = (
{
name = top;
pos = (684.245,1058);
}
);
guides = (
{
pos = (0,1118);
},
{
angle = 78.459;
pos = (468,0);
}
);
layerId = "7E1A2F3E-9482-4B58-A0D1-B49E7A5F97A9";
shapes = (
{
closed = 1;
nodes = (
(876,38,l),
(842.379,62.015,o),
(839.295,95.275,o),
(845,156,cs,{
name = hr02;
}),
(846.313,169.974,o),
(857,228,o),
(860,243,cs),
(887,390,o),
(923,517,o),
(949,667,cs),
(959,725,o),
(961,743,o),
(966,787,cs),
(988,967,o),
(920,1082,o),
(733,1082,cs),
(579,1082,o),
(426,959,o),
(374,880,c,{
name = hr01;
}),
(391,1059,l),
(322,1059,l),
(98,0,l),
(186,0,l),
(332,677,ls),
(354,787,o),
(509,1009,o),
(723,1009,cs),
(885,1009,o),
(894,877,o),
(876,763,cs),
(871,731,o),
(868,710,o),
(858,663,cs),
(826,513,o),
(762.722,244.972,o),
(758,134,cs),
(754,40,o),
(781.379,4.62,o),
(835,-16,c)
);
}
);
width = 1128;
}
);
unicode = 110;
},
{
glyphname = o;
kernLeft = _o;
kernRight = _o;
lastChange = "2024-05-29 19:17:43 +0000";
layers = (
{
anchors = (
{
name = top;
pos = (675,1122);
}
);
guides = (
{
pos = (0,2259);
},
{
pos = (0,23);
},
{
angle = 78.233;
pos = (873.669,-90);
},
{
angle = 78.233;
pos = (422,-90);
}
);
layerId = "E4F99366-6C9B-4FE4-BFF6-3C09ACD21B57";
shapes = (
{
closed = 1;
nodes = (
(838.35,-20,o),
(1060.665,362,o),
(1059.997,743,cs),
(1059.745,986,o),
(948.015,1142,o),
(697.015,1142,cs),
(254.015,1142,o),
(57.225,730,o),
(57.472,373,cs),
(57.55,140,o),
(165.35,-20,o),
(419.35,-20,cs)
);
},
{
closed = 1;
nodes = (
(409.272,213,o),
(368.467,259,o),
(368.157,391,cs),
(367.922,633,o),
(484.092,909,o),
(642.092,909,cs),
(712.092,909,o),
(748.88,864,o),
(749.137,735,cs),
(749.355,494,o),
(622.272,213,o),
(467.272,213,cs)
);
}
);
width = 1120;
},
{
anchors = (
{
name = top;
pos = (665.139,1082);
}
);
guides = (
{
pos = (0,-8399);
},
{
angle = 78.233;
pos = (421,-90);
}
);
layerId = "4B48D498-D91D-4DFD-A68C-F91EB5F77E01";
shapes = (
{
closed = 1;
nodes = (
(820.322,-19.856,o),
(1023.226,379.65,o),
(1023.76,729.39,cs),
(1024.104,954.306,o),
(889.018,1103.144,o),
(658.277,1103.144,cs),
(277.277,1103.144,o),
(80.604,695.287,o),
(80.419,352.144,cs),
(80.304,139.178,o),
(211.929,-19.856,o),
(446.929,-19.856,cs)
);
},
{
closed = 1;
nodes = (
(323.82,134.144,o),
(284.267,249.934,o),
(284.023,372.566,cs),
(283.609,581.287,o),
(409.475,947.144,o),
(638.007,947.144,cs),
(754.11,947.144,o),
(817.774,858.151,o),
(820.216,718.603,cs),
(823.487,531.685,o),
(699.757,134.144,o),
(467.234,134.144,cs)
);
}
);
width = 1105;
},
{
anchors = (
{
name = top;
pos = (647.43,1058);
}
);
guides = (
{
pos = (0,1121);
},
{
pos = (0,-151);
},
{
angle = 78.14;
pos = (-1092,0);
},
{
angle = 78.14;
pos = (-184,0);
},
{
angle = 78.14;
},
{
angle = 73.206;
pos = (3262.243,0);
showMeasurement = 1;
},
{
angle = 78.233;
pos = (408,-90);
}
);
layerId = "7E1A2F3E-9482-4B58-A0D1-B49E7A5F97A9";
shapes = (
{
closed = 1;
nodes = (
(750.322,-20,o),
(945.055,355,o),
(949.919,700.996,cs),
(952.73,900.999,o),
(888.624,1083,o),
(653.624,1083,cs),
(316.624,1083,o),
(125.662,706,o),
(121.014,361.005,cs),
(118.319,161.002,o),
(177.322,-20,o),
(415.322,-20,cs)
);
},
{
closed = 1;
nodes = (
(267.494,47,o),
(207.92,165,o),
(211.21,373.005,cs),
(216.792,726,o),
(408.43,1015,o),
(644.43,1015,cs),
(794.43,1015,o),
(863.385,905,o),
(859.726,688.996,cs),
(853.712,334,o),
(650.494,47,o),
(433.494,47,cs)
);
}
);
width = 1068;
}
);
unicode = 111;
},
{
glyphname = oslash;
kernLeft = _o;
kernRight = _o;
lastChange = "2024-05-29 00:24:06 +0000";
layers = (
{
layerId = "E4F99366-6C9B-4FE4-BFF6-3C09ACD21B57";
shapes = (
{
closed = 1;
nodes = (
(249.34,-137,l),
(334.88,-13.33,l),
(361,-17.71,o),
(389.12,-20,o),
(419.34,-20,cs),
(838.34,-20,o),
(1061.34,362,o),
(1060.34,743,c),
(1060.34,870.58,o),
(1029.43,974.15,o),
(963.79,1043.78,c),
(1117.34,1266,l),
(864.34,1266,l),
(775.07,1136.41,l),
(750.81,1140.08,o),
(724.93,1142,o),
(697.34,1142,cs),
(254.34,1142,o),
(57.34,730,o),
(57.34,373,c),
(57.85,253.53,o),
(86.25,153.26,o),
(148.03,83.9,c),
(-3.66,-137,l)
);
},
{
closed = 1;
nodes = (
(409.34,213,o),
(368.34,259,o),
(368.34,391,cs),
(368.34,633,o),
(484.34,909,o),
(642.34,909,cs),
(712.34,909,o),
(749.34,864,o),
(749.34,735,cs),
(749.34,494,o),
(622.34,213,o),
(467.34,213,cs)
);
}
);
width = 1120.34;
},
{
layerId = "4B48D498-D91D-4DFD-A68C-F91EB5F77E01";
shapes = (
{
closed = 1;
nodes = (
(220,-137,l),
(311.715,0.573,l),
(351.963,-12.713,o),
(397.125,-19.856,o),
(446.929,-19.856,cs),
(820.322,-19.856,o),
(1023.226,379.65,o),
(1023.76,729.39,cs),
(1023.931,841.406,o),
(990.511,934.552,o),
(928.411,999.84,c),
(1066,1211,l),
(877,1211,l),
(794.301,1082.949,l),
(753.713,1096.166,o),
(708.237,1103.144,o),
(658.277,1103.144,cs),
(277.277,1103.144,o),
(80.604,695.287,o),
(80.419,352.144,cs),
(80.361,244.52,o),
(113.947,150.67,o),
(177.517,84.158,c),
(31,-137,l)
);
},
{
closed = 1;
nodes = (
(323.82,134.144,o),
(284.267,249.934,o),
(284.023,372.566,cs),
(283.609,581.287,o),
(409.475,947.144,o),
(638.007,947.144,cs),
(754.11,947.144,o),
(817.774,858.151,o),
(820.216,718.603,cs),
(823.487,531.685,o),
(699.757,134.144,o),
(467.234,134.144,cs)
);
}
);
width = 1114.59;
},
{
guides = (
{
pos = (-3.57,1186);
},
{
pos = (-3.57,-139);
}
);
layerId = "7E1A2F3E-9482-4B58-A0D1-B49E7A5F97A9";
shapes = (
{
closed = 1;
nodes = (
(139.43,-137,l),
(246.43,31,l),
(289.43,-1,o),
(345.43,-20,o),
(416.43,-20,cs),
(770.43,-20,o),
(948.43,349,o),
(948.43,695,cs),
(948.43,806,o),
(926.43,910,o),
(869.43,983,c),
(1003.43,1186,l),
(920.43,1186,l),
(817.43,1033,l),
(773.43,1064,o),
(715.43,1083,o),
(641.43,1083,cs),
(302.43,1083,o),
(125.43,713,o),
(125.43,367,cs),
(125.43,259,o),
(144.43,158,o),
(195.43,86,c),
(56.43,-137,l)
);
},
{
closed = 1;
nodes = (
(282.43,47,o),
(215.43,165,o),
(215.43,379,cs),
(215.43,729,o),
(398.43,1015,o),
(636.43,1015,cs),
(784.43,1015,o),
(858.43,905,o),
(858.43,683,cs),
(858.43,333,o),
(668.43,47,o),
(430.43,47,cs)
);
}
);
width = 1071.96;
}
);
unicode = 248;
},
{
glyphname = oe;
kernLeft = _o;
kernRight = _e;
lastChange = "2024-05-29 15:17:46 +0000";
layers = (
{
layerId = "E4F99366-6C9B-4FE4-BFF6-3C09ACD21B57";
shapes = (
{
closed = 1;
nodes = (
(1296.25,-22,o),
(1470.25,74,o),
(1553.25,145,c),
(1452.25,331,l),
(1362.25,267,o),
(1273.25,220,o),
(1177.25,220,cs),
(1122.25,220,o),
(1031.25,249,o),
(1028.25,405,cs),
(1027.75,430.5,o),
(1028.72,455.91,o),
(1031.02,481,c),
(1094.5,458.27,o),
(1171.35,442,o),
(1230.25,442,cs),
(1531.25,442,o),
(1712.25,596,o),
(1711.25,835,c),
(1711.25,1041,o),
(1555.25,1140,o),
(1353.25,1140,cs),
(1194.28,1140,o),
(1069.53,1081.02,o),
(976.14,988.2,c),
(927.88,1083.45,o),
(839.87,1142,o),
(691.25,1142,cs),
(254.25,1142,o),
(57.25,730,o),
(57.25,373,c),
(58.25,140,o),
(165.25,-20,o),
(419.25,-20,cs),
(587,-20,o),
(718.67,43.64,o),
(815.9,143.12,c),
(873.7,43.34,o),
(974.45,-22,o),
(1119.25,-22,cs)
);
},
{
closed = 1;
nodes = (
(409.25,213,o),
(368.25,259,o),
(368.25,391,cs),
(368.25,633,o),
(484.25,909,o),
(642.25,909,cs),
(712.25,909,o),
(749.25,864,o),
(749.25,735,cs),
(749.25,494,o),
(622.25,213,o),
(467.25,213,cs)
);
},
{
closed = 1;
nodes = (
(1156.82,651,o),
(1115.7,662.81,o),
(1079.01,679.64,c),
(1132.85,811.83,o),
(1223.25,906,o),
(1316.25,906,cs),
(1370.25,906,o),
(1413.25,871,o),
(1414.25,815,cs),
(1415.25,728,o),
(1328.25,651,o),
(1197.25,651,cs)
);
}
);
width = 1714.25;
},
{
layerId = "4B48D498-D91D-4DFD-A68C-F91EB5F77E01";
shapes = (
{
closed = 1;
nodes = (
(1307,-21,o),
(1442,36,o),
(1525,108,c),
(1461,232,l),
(1372,168,o),
(1285,133,o),
(1197,133,cs),
(1061,133,o),
(999,202,o),
(999,379,cs),
(999,416,o),
(1002,458,o),
(1010,501,c),
(1023,497,o),
(1106,462,o),
(1227,462,cs),
(1481,462,o),
(1708,614,o),
(1708,832,cs),
(1708,1007,o),
(1580,1102,o),
(1383,1102,cs),
(1213,1102,o),
(1068,1016,o),
(990,900,c),
(949,1039,o),
(811,1102,o),
(660,1102,cs),
(257,1102,o),
(83,704,o),
(83,351,cs),
(83,138,o),
(208,-21,o),
(443,-21,cs),
(614,-21,o),
(742,63,o),
(839,178,c),
(884,63,o),
(995,-21,o),
(1154,-21,cs)
);
},
{
closed = 1;
nodes = (
(344,133,o),
(287,216,o),
(287,365,cs),
(287,586,o),
(413,946,o),
(657,946,cs),
(777,946,o),
(835,851,o),
(835,711,cs),
(835,487,o),
(694,133,o),
(466,133,cs)
);
},
{
closed = 1;
nodes = (
(1132,606,o),
(1072,629,o),
(1051,645,c),
(1112,807,o),
(1222,948,o),
(1370,948,cs),
(1437,948,o),
(1504,911,o),
(1504,822,cs),
(1504,691,o),
(1348,606,o),
(1213,606,cs)
);
}
);
width = 1723;
},
{
guides = (
{
pos = (0.43,2283);
},
{
angle = 90;
pos = (1624.43,0);
}
);
layerId = "7E1A2F3E-9482-4B58-A0D1-B49E7A5F97A9";
shapes = (
{
closed = 1;
nodes = (
(1317.43,-21,o),
(1433.43,52,o),
(1495.43,108,c),
(1460.43,162,l),
(1375.43,92,o),
(1271.43,55,o),
(1193.43,55,cs),
(1011.43,55,o),
(929.43,141,o),
(929.43,410,cs),
(929.43,447,o),
(936.43,516,o),
(944.43,559,c),
(974.43,547,o),
(1106.43,509,o),
(1237.43,509,cs),
(1491.43,509,o),
(1668.43,612,o),
(1668.43,830,cs),
(1668.43,985,o),
(1550.43,1082,o),
(1373.43,1082,cs),
(1156.43,1082,o),
(1011.43,963,o),
(931.43,803,c),
(917.43,975,o),
(823.43,1083,o),
(641.43,1083,cs),
(302.43,1083,o),
(125.43,713,o),
(125.43,367,cs),
(125.43,161,o),
(196.43,-20,o),
(416.43,-20,cs),
(613.43,-20,o),
(759.43,94,o),
(848.43,271,c),
(865.43,114,o),
(963.43,-21,o),
(1164.43,-21,cs)
);
},
{
closed = 1;
nodes = (
(282.43,47,o),
(215.43,165,o),
(215.43,379,cs),
(215.43,729,o),
(398.43,1015,o),
(636.43,1015,cs),
(784.43,1015,o),
(860.43,905,o),
(860.43,683,cs,{
name = hr01;
}),
(860.43,333,o),
(668.43,47,o),
(430.43,47,cs)
);
},
{
closed = 1;
nodes = (
(1169.43,581,o),
(997.43,612,o),
(958.43,632,c,{
name = hr02;
}),
(1006.43,798,o),
(1116.43,1011,o),
(1373.43,1011,cs),
(1525.43,1011,o),
(1575.43,914,o),
(1575.43,825,cs),
(1575.43,624,o),
(1371.43,581,o),
(1250.43,581,cs)
);
}
);
width = 1721.43;
}
);
unicode = 339;
},
{
glyphname = p;
lastChange = "2024-05-27 18:06:09 +0000";
layers = (
{
guides = (
{
pos = (0,-416);
},
{
pos = (0,615);
showMeasurement = 1;
},
{
pos = (0,813);
}
);
layerId = "E4F99366-6C9B-4FE4-BFF6-3C09ACD21B57";
shapes = (
{
closed = 1;
nodes = (
(232,-417,l),
(343.73,111.36,l),
(388.26,21.52,o),
(476.88,-20,o),
(568,-20,cs),
(856,-20,o),
(1075,349,o),
(1081,768,cs),
(1084,1003,o),
(962,1142,o),
(777,1142,cs),
(656.14,1142,o),
(570.06,1078.49,o),
(503.64,995.52,c),
(508,1143,l),
(250,1143,l),
(-81,-417,l)
);
},
{
closed = 1;
nodes = (
(440.17,220,o),
(407.96,263.5,o),
(389.73,328.8,c),
(457,647,l),
(501,825,o),
(571,912,o),
(658,912,cs),
(726,912,o),
(766,866,o),
(766,722,cs),
(766,513,o),
(659,220,o),
(503,220,cs)
);
}
);
width = 1137;
},
{
guides = (
{
pos = (0,-21);
},
{
pos = (0,-416);
},
{
pos = (0,615);
},
{
pos = (0,813);
}
);
layerId = "4B48D498-D91D-4DFD-A68C-F91EB5F77E01";
shapes = (
{
closed = 1;
nodes = (
(161,-416,l),
(279,119,l),
(306,65,o),
(412,-20,o),
(536,-20,cs),
(862,-20,o),
(1062,362,o),
(1062,718,cs),
(1062,973,o),
(908,1101,o),
(743,1101,cs),
(583,1101,o),
(488,1019,o),
(436,941,c),
(452,1082,l),
(286,1082,l),
(-39,-416,l)
);
},
{
closed = 1;
nodes = (
(410,136,o),
(331,216,o),
(320,311,c),
(384,615,l),
(429,813,o),
(570,942,o),
(693,942,cs,{
name = hr01;
}),
(779,942,o),
(858,879,o),
(858,690,cs),
(858,486,o),
(733,136,o),
(509,136,cs)
);
}
);
width = 1147;
},
{
guides = (
{
pos = (0,1082);
},
{
pos = (0,-435);
},
{
pos = (0,-21);
},
{
angle = 78.14;
pos = (144,0);
},
{
angle = 78.14;
pos = (233,0);
}
);
layerId = "7E1A2F3E-9482-4B58-A0D1-B49E7A5F97A9";
shapes = (
{
closed = 1;
nodes = (
(116,-435,l),
(238.1,142.91,l),
(273.1,55.91,o),
(374,-21,o),
(499,-21,cs),
(810,-21,o),
(1013,321,o),
(1013,704,cs),
(1013,939,o),
(868,1081,o),
(712,1081,cs),
(583.692,1081,o),
(477.428,1015.684,o),
(402.799,914.561,c),
(412,1059,l),
(344,1059,l),
(28,-435,l)
);
},
{
closed = 1;
nodes = (
(384,51,o),
(292.15,125.18,o),
(257.15,234.18,c),
(356.647,692.605,ls),
(393.064,853.85,o),
(522.768,1007,o),
(698.95,1007,cs),
(862,1007,o),
(925.63,831.96,o),
(922,684,cs),
(913.5,337,o),
(744,51,o),
(492,51,cs)
);
}
);
width = 1133;
}
);
unicode = 112;
},
{
glyphname = thorn;
kernLeft = _b;
kernRight = _b;
lastChange = "2024-05-27 18:05:50 +0000";
layers = (
{
layerId = "E4F99366-6C9B-4FE4-BFF6-3C09ACD21B57";
shapes = (
{
closed = 1;
nodes = (
(230,-416,l),
(343.41,115.05,l),
(387.49,23.2,o),
(476.97,-20,o),
(569,-20,cs),
(857,-20,o),
(1076,350,o),
(1082,769,cs),
(1085,1004,o),
(963,1142,o),
(778,1142,cs),
(677.66,1142,o),
(601.29,1098.74,o),
(540.24,1036.69,c),
(652,1560,l),
(339,1560,l),
(-81,-416,l)
);
},
{
closed = 1;
nodes = (
(440.22,221,o),
(407.99,265.83,o),
(389.91,332.79,c),
(458.51,653.98,l),
(502.61,827.93,o),
(572.98,913,o),
(659,913,cs),
(727,913,o),
(767,867,o),
(767,723,cs),
(767,514,o),
(660,221,o),
(504,221,cs)
);
}
);
width = 1138;
},
{
layerId = "4B48D498-D91D-4DFD-A68C-F91EB5F77E01";
shapes = (
{
closed = 1;
nodes = (
(161,-416,l),
(273,112,l),
(319,49,o),
(416,-20,o),
(534,-20,cs),
(860,-20,o),
(1060,362,o),
(1060,718,cs),
(1060,973,o),
(906,1101,o),
(741,1101,cs),
(631,1101,o),
(542,1059,o),
(454,966,c),
(580,1560,l),
(380,1560,l),
(-39,-416,l)
);
},
{
closed = 1;
nodes = (
(408,136,o),
(326,221,o),
(318,311,c),
(384,617,ls),
(427,813,o),
(568,942,o),
(691,942,cs),
(777,942,o),
(856,879,o),
(856,690,cs),
(856,486,o),
(731,136,o),
(507,136,cs)
);
}
);
width = 1145;
},
{
guides = (
{
pos = (0,1560);
},
{
pos = (0,-418);
}
);
layerId = "7E1A2F3E-9482-4B58-A0D1-B49E7A5F97A9";
shapes = (
{
closed = 1;
nodes = (
(116,-418,l),
(233,131,l),
(280,43,o),
(379,-21,o),
(495,-21,cs),
(811,-21,o),
(1006,321,o),
(1006,704,cs),
(1006,939,o),
(871,1081,o),
(693,1081,cs),
(582,1081,o),
(460,1008,o),
(402,927,c),
(536,1558,l),
(449,1558,l),
(28,-418,l)
);
},
{
closed = 1;
nodes = (
(387,51,o),
(292,120,o),
(253,227,c),
(350,698,l),
(388,857,o),
(528,1007,o),
(691,1007,cs),
(867,1007,o),
(915,832,o),
(915,684,cs),
(915,368,o),
(750,51,o),
(502,51,cs)
);
}
);
width = 1129;
}
);
unicode = 254;
},
{
glyphname = q;
lastChange = "2024-05-29 16:46:37 +0000";
layers = (
{
guides = (
{
pos = (0,-416);
},
{
pos = (0,1428);
},
{
pos = (0,1082);
}
);
layerId = "E4F99366-6C9B-4FE4-BFF6-3C09ACD21B57";
shapes = (
{
closed = 1;
nodes = (
(801,-417,l),
(1129,1122,l),
(873,1122,l),
(800.74,988.07,l),
(760.35,1092.89,o),
(665.12,1142,o),
(567,1142,cs),
(279,1142,o),
(60,772,o),
(54,353,cs),
(51,118,o),
(173,-20,o),
(358,-20,cs),
(457.91,-20,o),
(534.08,22.89,o),
(595,84.53,c),
(488,-417,l)
);
},
{
closed = 1;
nodes = (
(409,209,o),
(369,255,o),
(369,399,cs),
(369,608,o),
(476,901,o),
(632,901,cs),
(695.28,901,o),
(727.51,856.86,o),
(745.67,790.76,c),
(677.97,473.42,l),
(634,295,o),
(564,209,o),
(477,209,cs)
);
}
);
width = 1138;
},
{
guides = (
{
pos = (0,-416);
},
{
pos = (0,1428);
},
{
pos = (0,1082);
}
);
layerId = "4B48D498-D91D-4DFD-A68C-F91EB5F77E01";
shapes = (
{
closed = 1;
nodes = (
(771,-416,l),
(1091,1082,l),
(926,1082,l),
(875,945,l),
(818,1047,o),
(721,1101,o),
(629,1101,cs),
(283,1101,o),
(83,709,o),
(83,343,cs),
(83,108,o),
(237,-22,o),
(402,-22,cs),
(508,-22,o),
(614,31,o),
(688,108,c),
(571,-416,l)
);
},
{
closed = 1;
nodes = (
(366,132,o),
(287,182,o),
(287,371,cs,{
name = hr01;
}),
(287,585,o),
(412,942,o),
(646,942,cs),
(735,942,o),
(805,871,o),
(825,772,c,{
name = hr02;
}),
(760,467,ls),
(709,231,o),
(545,132,o),
(452,132,cs)
);
}
);
width = 1146;
},
{
guides = (
{
pos = (0,-435);
},
{
pos = (0,1428);
},
{
pos = (0,1082);
},
{
pos = (0,-20);
}
);
layerId = "7E1A2F3E-9482-4B58-A0D1-B49E7A5F97A9";
shapes = (
{
closed = 1;
nodes = (
(697,-435,l),
(1016,1059,l),
(948,1059,l),
(898.54,915.29,l),
(865.54,1004.29,o),
(764,1082,o),
(641,1082,c),
(326,1082,o),
(122,740,o),
(122,357,cs),
(122,122,o),
(267,-20,o),
(423,-20,cs),
(551.746,-20,o),
(659.523,51.518,o),
(732.637,151.481,c),
(610,-435,l)
);
},
{
closed = 1;
nodes = (
(273,54,o),
(209.37,229.04,o),
(213,377,cs),
(221.5,724,o),
(391,1010,o),
(648,1010,cs),
(760,1010,o),
(848.54,936.77,o),
(881.54,825.77,c),
(780,376,ls),
(745.973,211.868,o),
(614.824,54,o),
(436.05,54,cs)
);
}
);
width = 1109;
}
);
unicode = 113;
},
{
glyphname = r;
lastChange = "2024-05-27 18:07:57 +0000";
layers = (
{
guides = (
{
pos = (0,813);
},
{
pos = (0,615);
},
{
angle = 90;
pos = (-221,0);
}
);
layerId = "E4F99366-6C9B-4FE4-BFF6-3C09ACD21B57";
shapes = (
{
closed = 1;
nodes = (
(320,0,l),
(451,616,ls),
(484,777,o),
(569,861,o),
(673,861,cs),
(707,861,o),
(738,854,o),
(763,846,c),
(863,1123,l),
(835,1135,o),
(809,1142,o),
(771,1142,cs),
(632,1142,o),
(532,1029,o),
(489,951,c,{
name = hr02;
}),
(510,1122,l),
(247,1122,l),
(7,0,l,{
name = hr01;
})
);
}
);
width = 755;
},
{
guides = (
{
pos = (0,813);
},
{
pos = (0,615);
},
{
angle = 90;
pos = (248,0);
}
);
layerId = "4B48D498-D91D-4DFD-A68C-F91EB5F77E01";
shapes = (
{
closed = 1;
nodes = (
(249,0,l,{
name = hr01;
}),
(380,615,l),
(430,831,o),
(505,913,o),
(638,913,cs),
(659,913,o),
(701,910,o),
(731,906,c),
(795,1087,l),
(784,1092,o),
(749,1102,o),
(713,1102,cs,{
name = hr02;
}),
(605,1102,o),
(503,1052,o),
(428,941,c),
(446,1082,l),
(278,1082,l),
(49,0,l)
);
}
);
width = 718;
},
{
guides = (
{
pos = (0,1082);
},
{
pos = (0,615);
},
{
pos = (0,881);
},
{
pos = (0,779);
},
{
angle = 90;
pos = (321,0);
},
{
angle = 78.14;
pos = (122,0);
},
{
angle = 78.14;
pos = (212,0);
}
);
layerId = "7E1A2F3E-9482-4B58-A0D1-B49E7A5F97A9";
shapes = (
{
closed = 1;
nodes = (
(187,0,l,{
name = hr01;
}),
(335.394,694.841,ls),
(361.945,819.164,o),
(506,1001,o),
(636,1001,cs),
(656,1001,o),
(691,1002,o),
(722,991,c),
(748,1067,l),
(737,1072,o),
(700,1082,o),
(668,1082,cs,{
name = hr02;
}),
(545,1082,o),
(434,992,o),
(356.601,864.869,c),
(391,1059,l),
(322,1059,l),
(98,0,l)
);
}
);
width = 667;
}
);
unicode = 114;
},
{
glyphname = s;
lastChange = "2024-05-29 16:55:49 +0000";
layers = (
{
anchors = (
{
name = top;
pos = (571,1122);
}
);
guides = (
{
pos = (0,2469);
},
{
pos = (0,2405);
},
{
pos = (0,1313);
},
{
pos = (0,100);
},
{
angle = 90;
pos = (-3370,0);
},
{
angle = 90;
pos = (-2617,0);
},
{
angle = 90;
pos = (-2136,0);
showMeasurement = 1;
},
{
angle = 90;
pos = (-1190,0);
},
{
angle = 78.14;
pos = (335,0);
}
);
layerId = "E4F99366-6C9B-4FE4-BFF6-3C09ACD21B57";
shapes = (
{
closed = 1;
nodes = (
(616.75,-20,o),
(787.75,132,o),
(787.75,352,cs),
(787.75,552,o),
(653.8,628,o),
(549.3,693,cs),
(483.75,734,o),
(430.55,770,o),
(429.6,828,cs),
(428.65,890,o),
(475.2,929,o),
(567.35,929,cs),
(639.55,929,o),
(715.55,901,o),
(798.2,842,c),
(897.95,1020,l),
(842.85,1065,o),
(712.7,1142,o),
(545.5,1142,cs),
(297.55,1142,o),
(131.3,974,o),
(131.3,781,cs),
(131.3,620,o),
(209.723,539.157,o),
(292.275,482,cs),
(387.373,416.157,o),
(488.5,382,o),
(488.5,304,c),
(488.5,236,o),
(431.5,197,o),
(334.6,197,cs),
(228.2,197,o),
(123.7,245,o),
(56.25,298,c),
(-37.8,113,l),
(9.7,67,o),
(158.85,-22,o),
(346.95,-21,cs)
);
}
);
width = 900;
},
{
anchors = (
{
name = top;
pos = (578,1082);
}
);
guides = (
{
pos = (0,2469);
},
{
pos = (0,2405);
},
{
pos = (0,1313);
},
{
pos = (0,100);
},
{
angle = 90;
pos = (-32,0);
},
{
angle = 90;
pos = (760,0);
},
{
angle = 90;
pos = (1267,0);
},
{
angle = 90;
pos = (2263,0);
},
{
pos = (0,563);
},
{
angle = 78.14;
pos = (351,0);
}
);
layerId = "4B48D498-D91D-4DFD-A68C-F91EB5F77E01";
shapes = (
{
closed = 1;
nodes = (
(620,-21,o),
(790.432,132.005,o),
(789.099,315.998,cs),
(787.874,485,o),
(680.048,559.033,o),
(528,639,cs),
(398.664,707.022,o),
(366,754,o),
(366,818,cs),
(366,893,o),
(454,945,o),
(558,945,cs),
(634,945,o),
(739,918,o),
(826,854,c),
(902,981,l),
(844,1030,o),
(723,1102,o),
(552,1102,cs),
(297,1102,o),
(168,930,o),
(168,785,cs),
(168,642,o),
(238.486,570.381,o),
(429,463,cs),
(547.774,396.054,o),
(586.15,349,o),
(586.15,290,cs),
(586.15,201.663,o),
(501,136,o),
(379,136,cs),
(276,136,o),
(164,180,o),
(93,233,c),
(15,104,l),
(65,58,o),
(221,-21,o),
(398,-21,cs)
);
}
);
width = 921;
},
{
anchors = (
{
name = top;
pos = (538.394,1059);
}
);
guides = (
{
pos = (0,1081);
},
{
pos = (0,100);
},
{
pos = (0,-21);
},
{
pos = (0,1009);
},
{
pos = (0,1450);
},
{
pos = (0,56);
},
{
pos = (0,542);
},
{
angle = 78.14;
pos = (316,0);
},
{
angle = 90;
pos = (2240,0);
},
{
angle = 78.14;
pos = (-789,0);
}
);
layerId = "7E1A2F3E-9482-4B58-A0D1-B49E7A5F97A9";
shapes = (
{
closed = 1;
nodes = (
(564,-21,o),
(694,129,o),
(694,281,cs),
(694,427,o),
(630,503,o),
(479,579,cs),
(335,652,o),
(278,710,o),
(278,820,cs),
(278,940,o),
(408,1010,o),
(523,1010,cs),
(589,1010,o),
(679,994,o),
(764,942,c),
(799,996,l),
(741,1042,o),
(640,1081,o),
(519,1081,cs),
(284,1081,o),
(188,915,o),
(188,812,cs),
(188,690,o),
(236,610,o),
(417,517,cs),
(563,442,o),
(607,373,o),
(607,281,cs),
(607,129,o),
(454,54,o),
(332,54,cs),
(226,54,o),
(130,90,o),
(59,140,c),
(23,79,l),
(81,40,o),
(185,-21,o),
(332,-21,cs)
);
}
);
width = 860;
}
);
unicode = 115;
},
{
color = (153,255,154,255);
glyphname = germandbls;
lastChange = "2024-05-29 19:26:27 +0000";
layers = (
{
layerId = "E4F99366-6C9B-4FE4-BFF6-3C09ACD21B57";
shapes = (
{
closed = 1;
nodes = (
(94,-442,o),
(255,-333,o),
(319,-35,cs),
(566,1096,ls),
(597.793,1241.576,o),
(665.759,1342.275,o),
(746.759,1342.275,cs),
(807.759,1342.275,o),
(836.759,1298.275,o),
(836.759,1228.275,cs),
(836.759,1032.275,o),
(668,956,o),
(668,760,cs),
(668,577,o),
(837,524,o),
(837,378,cs,{
name = hr04;
}),
(837,270,o),
(763,199,o),
(678,199,cs,{
name = hr03;
}),
(605,199,o),
(538,239,o),
(498,269,c),
(411,75,l),
(466,33,o),
(575,-28,o),
(731,-28,cs),
(996,-28,o),
(1154,189,o),
(1154,391,cs),
(1154,609,o),
(971,711,o),
(971,834,cs),
(971,1001,o),
(1148.759,1064.275,o),
(1148.759,1299.275,cs),
(1148.759,1453.275,o),
(1016.759,1576.275,o),
(809.759,1576.275,cs),
(512.759,1576.275,o),
(319.417,1402.967,o),
(253,1101,cs),
(-5,-72,ls),
(-24,-160,o),
(-59,-212,o),
(-157,-212,cs),
(-182,-212,o),
(-219,-200,o),
(-234,-195,c),
(-304,-398,l),
(-243,-427,o),
(-172,-442,o),
(-113,-442,cs)
);
}
);
width = 1242;
},
{
layerId = "4B48D498-D91D-4DFD-A68C-F91EB5F77E01";
shapes = (
{
closed = 1;
nodes = (
(40.012,-439.088,o),
(198.909,-257.067,o),
(248.012,-26.088,cs),
(484,1084,ls),
(531.124,1305.637,o),
(631,1421.851,o),
(752,1421.851,cs),
(818,1421.851,o),
(869.178,1377.843,o),
(868,1290.851,cs),
(865.237,1086.851,o),
(653,992,o),
(653,803,cs),
(653,617,o),
(861,526,o),
(861,369,cs),
(861,263,o),
(785,132,o),
(638,132,cs),
(543,132,o),
(474,171,o),
(439,200,c),
(369,54,l),
(425,16,o),
(523,-21,o),
(641,-21,cs),
(860,-21,o),
(1068,158,o),
(1068,382,cs),
(1068,599,o),
(852.8,689.073,o),
(856.125,840.996,cs),
(859.584,999.046,o),
(1067.913,1105.851,o),
(1066.425,1319.851,cs),
(1065.311,1480.846,o),
(928,1575.851,o),
(772,1575.851,cs),
(495,1575.851,o),
(349.432,1384.542,o),
(279,1055,cs),
(49.012,-21.088,ls),
(22.079,-147.102,o),
(-50.988,-279.088,o),
(-162.988,-279.088,cs),
(-195.988,-279.088,o),
(-225.988,-273.088,o),
(-249.988,-268.088,c),
(-303.988,-418.088,l),
(-275.988,-427.088,o),
(-214.988,-439.088,o),
(-171.988,-439.088,cs)
);
}
);
width = 1155;
},
{
guides = (
{
angle = 78.14;
pos = (-178,0);
},
{
pos = (0,1570);
}
);
layerId = "7E1A2F3E-9482-4B58-A0D1-B49E7A5F97A9";
shapes = (
{
closed = 1;
nodes = (
(23,-444,o),
(126.718,-302.732,o),
(185,-30,cs),
(419,1065,ls),
(481.968,1359.66,o),
(619.766,1491,o),
(780.766,1491,cs),
(900.766,1491,o),
(949.766,1406,o),
(949.766,1320,cs),
(949.766,1116,o),
(655,933,o),
(655,772,cs),
(655,583,o),
(907,504,o),
(907,286,cs),
(907,165,o),
(804,54,o),
(639,54,cs),
(529,54,o),
(426,112,o),
(392,140,c),
(358,73,l),
(410,33,o),
(516,-21,o),
(644,-21,cs),
(823,-21,o),
(993,81,o),
(993,297,cs),
(993,534,o),
(749,631,o),
(745.027,778,cs),
(741,927,o),
(1035.766,1093,o),
(1035.766,1339,cs),
(1035.766,1410,o),
(997.766,1568,o),
(794.766,1568,cs),
(543.766,1568,o),
(399.35,1385.347,o),
(318,1002,cs),
(99,-30,ls),
(65.982,-185.591,o),
(1,-372,o),
(-148,-372,cs),
(-161,-372,o),
(-190,-369,o),
(-208,-364,c),
(-226,-429,l),
(-198,-438,o),
(-172,-444,o),
(-129,-444,cs)
);
}
);
width = 1138;
}
);
unicode = 223;
},
{
glyphname = t;
kernLeft = _t;
kernRight = _t;
lastChange = "2024-05-29 16:53:13 +0000";
layers = (
{
guides = (
{
angle = 90;
pos = (35,0);
},
{
angle = 90;
pos = (235,0);
},
{
angle = 90;
pos = (453,0);
}
);
layerId = "E4F99366-6C9B-4FE4-BFF6-3C09ACD21B57";
shapes = (
{
closed = 1;
nodes = (
(408,-20,o),
(521,15,o),
(566,33,c),
(578,240,l),
(566,234,o),
(533,222,o),
(499,222,cs),
(447,222,o),
(411,242,o),
(411,305,cs),
(411,321,o),
(412,340,o),
(417,361,cs),
(532.78,902,l),
(725,902,l),
(773,1122,l),
(579.86,1122,l),
(637,1389,l),
(324,1389,l,{
name = hr02;
}),
(266.98,1122,l),
(136,1122,l),
(86,902,l),
(220,902,l),
(94,312,ls),
(86,273,o),
(82,238,o),
(82,207,cs),
(82,42,o),
(201,-20,o),
(309,-20,cs)
);
}
);
width = 694;
},
{
guides = (
{
angle = 90;
pos = (77,0);
},
{
angle = 90;
pos = (277,0);
},
{
angle = 90;
pos = (495,0);
}
);
layerId = "4B48D498-D91D-4DFD-A68C-F91EB5F77E01";
shapes = (
{
closed = 1;
nodes = (
(381,-21,o),
(476,2,o),
(510,23,c),
(517,160,l),
(505,154,o),
(457,139,o),
(423,139,cs),
(369,139,o),
(330,162,o),
(330,230,cs),
(330,246,o),
(332,265,o),
(337,286,cs),
(475,936,l),
(692,936,l),
(723,1082,l),
(506,1082,l,{
name = hr01;
}),
(563,1347,l),
(363,1347,l,{
name = hr02;
}),
(306,1082,l),
(150,1082,l),
(119,936,l),
(275,936,l),
(137,283,ls),
(129,244,o),
(125,209,o),
(125,178,cs),
(125,33,o),
(212,-21,o),
(324,-21,cs)
);
}
);
width = 668;
},
{
guides = (
{
pos = (0,991);
},
{
pos = (0,-21);
},
{
angle = 78.14;
pos = (117,0);
},
{
angle = 78.14;
pos = (207,0);
},
{
angle = 78.14;
pos = (-38,0);
},
{
angle = 78.14;
pos = (445,0);
}
);
layerId = "7E1A2F3E-9482-4B58-A0D1-B49E7A5F97A9";
shapes = (
{
closed = 1;
nodes = (
(361,-21,o),
(423,5,o),
(437,15,c),
(431,75,l),
(392,59,o),
(356,54,o),
(322,54,cs),
(278,54,o),
(218,77,o),
(218,145,cs),
(218,161,o),
(220,180,o),
(225,201,cs),
(394,991,l),
(630,991,l),
(645,1059,l),
(407,1059,l),
(468,1347,l),
(378,1347,l),
(317,1059,l),
(162,1059,l),
(148,991,l),
(304,991,l),
(152,283,ls),
(144,244,o),
(130,179,o),
(130,148,cs),
(130,43,o),
(199,-21,o),
(311,-21,cs)
);
}
);
width = 584;
}
);
unicode = 116;
},
{
glyphname = u;
kernLeft = _u;
kernRight = _u;
lastChange = "2024-05-28 01:06:20 +0000";
layers = (
{
anchors = (
{
name = top;
pos = (681,1122);
}
);
guides = (
{
angle = 78.14;
pos = (445,0);
}
);
layerId = "E4F99366-6C9B-4FE4-BFF6-3C09ACD21B57";
shapes = (
{
closed = 1;
nodes = (
(454,-20,o),
(595,89,o),
(651,165,c,{
name = hr02;
}),
(651,63,o),
(750.75,-1,o),
(808,-20,c),
(976,105,l),
(960,133,o),
(945,181,o),
(948,247,cs),
(948.409,255.991,o),
(950.393,286.118,o),
(954,303,cs),
(1129,1122,l,{
name = hr01;
}),
(816,1122,l),
(684,505,ls),
(648,337,o),
(548,224,o),
(461,224,cs),
(415,224,o),
(391,251,o),
(391,329,cs),
(391,362,o),
(396,409,o),
(406,456,cs),
(548,1122,l),
(235,1122,l),
(85,412,ls),
(73,354,o),
(67,302,o),
(67,256,cs),
(67,104,o),
(137,-20,o),
(302,-20,cs)
);
}
);
width = 1139;
},
{
anchors = (
{
name = top;
pos = (669.224,1082);
}
);
guides = (
{
angle = 78.14;
pos = (442,0);
}
);
layerId = "4B48D498-D91D-4DFD-A68C-F91EB5F77E01";
shapes = (
{
closed = 1;
nodes = (
(491,-21,o),
(618,30,o),
(704,141,c),
(703,61,o),
(790,-8,o),
(824,-20,c),
(940,80,l),
(908,111,o),
(898,148,o),
(898,187,cs),
(898,203,o),
(899,222,o),
(904,245,cs),
(1081,1082,l),
(879,1082,l),
(750,463,l),
(706,259,o),
(573,140,o),
(443,140,cs),
(356,140,o),
(302,192,o),
(302,312,cs),
(302,349,o),
(307,391,o),
(318,441,cs),
(454,1082,l),
(254,1082,l),
(119,443,ls),
(108,390,o),
(102,340,o),
(102,295,cs),
(102,97,o),
(206,-21,o),
(373,-21,cs)
);
}
);
width = 1143;
},
{
anchors = (
{
name = top;
pos = (658.394,1059);
}
);
guides = (
{
angle = 78.14;
pos = (436,0);
}
);
layerId = "7E1A2F3E-9482-4B58-A0D1-B49E7A5F97A9";
shapes = (
{
closed = 1;
nodes = (
(545,-21,o),
(690,94,o),
(758,197,c),
(747,75,o),
(786,4,o),
(825,-15,c),
(871,31,l),
(842,55,o),
(834,106,o),
(835,156,cs),
(836,181,o),
(839,204,o),
(843,222,cs),
(1021,1059,l),
(933,1059,l),
(787,389,ls),
(765,288,o),
(615,52,o),
(401,52,cs),
(239,52,o),
(210,182,o),
(228,296,cs),
(233,328,o),
(236,349,o),
(246,396,cs),
(386,1059,l),
(295,1059,l),
(155,392,l),
(145,334,o),
(143,316,o),
(138,272,cs),
(116,92,o),
(204,-21,o),
(391,-21,cs)
);
}
);
width = 1117;
}
);
unicode = 117;
},
{
glyphname = v;
kernLeft = _v;
kernRight = _v;
lastChange = "2024-05-29 16:59:55 +0000";
layers = (
{
guides = (
{
pos = (0,269);
}
);
layerId = "E4F99366-6C9B-4FE4-BFF6-3C09ACD21B57";
shapes = (
{
closed = 1;
nodes = (
(488,0,l),
(547,77,o),
(925,608,o),
(994,865,cs),
(1008,917,o),
(1013,956,o),
(1013,992,cs),
(1013,1079,o),
(983,1126,o),
(973,1142,c),
(679,1083,l),
(688,1058,o),
(692,1029,o),
(692,997,cs),
(692,973,o),
(690,938,o),
(686,911,cs),
(651,682,o),
(462,372,o),
(411,270,c),
(406,270,l),
(417,322,o),
(433,496,o),
(441,617,cs),
(449,748,o),
(442,908,o),
(378,1021,cs),
(348,1075,o),
(304,1118,o),
(244,1142,c,{
name = hr01;
}),
(28,951,l),
(47,941,o),
(87,900,o),
(121,794,cs),
(185,597,o),
(173,49,o),
(174,0,c)
);
}
);
width = 974;
},
{
layerId = "4B48D498-D91D-4DFD-A68C-F91EB5F77E01";
shapes = (
{
closed = 1;
nodes = (
(412,0,l),
(480,74,o),
(888,567,o),
(957,824,cs),
(971,876,o),
(976,920,o),
(976,956,cs),
(976,1043,o),
(946,1086,o),
(936,1102,c),
(762,1068,l),
(763,1064,o),
(774,1035,o),
(774,983,cs),
(774,945,o),
(768,896,o),
(749,836,cs),
(691,656,o),
(449,306,o),
(389,213,c),
(385,213,l),
(389,291,o),
(398,425,o),
(398,563,cs),
(398,714,o),
(386,869,o),
(339,961,cs),
(288,1060,o),
(225,1097,o),
(200,1102,c,{
name = hr01;
}),
(66,986,l),
(85,976,o),
(125,935,o),
(159,829,cs),
(223,632,o),
(232,49,o),
(233,0,c)
);
}
);
width = 973;
},
{
guides = (
{
pos = (0,1076);
}
);
layerId = "7E1A2F3E-9482-4B58-A0D1-B49E7A5F97A9";
shapes = (
{
closed = 1;
nodes = (
(328,0,l),
(402,94,o),
(778,554,o),
(849,841,cs),
(857,872,o),
(861,916,o),
(861,942,cs),
(861,1019,o),
(833,1063,o),
(823,1076,c),
(754,1046,l),
(771,1007,o),
(772,958,o),
(772,933,cs),
(772,912,o),
(768,872,o),
(762,847,cs),
(703,617,o),
(392,212,o),
(325,95,c),
(319,95,l),
(323,173,o),
(317,425,o),
(308,563,cs),
(298,714,o),
(279,883,o),
(243,963,cs),
(215,1024,o),
(168,1065,o),
(131,1076,c),
(76,1028,l),
(101,1009,o),
(141,970,o),
(167,905,cs),
(231,741,o),
(255,49,o),
(256,0,c)
);
}
);
width = 914;
}
);
unicode = 118;
},
{
glyphname = w;
lastChange = "2024-05-29 16:53:54 +0000";
layers = (
{
anchors = (
{
name = top;
pos = (848,1122);
}
);
guides = (
{
pos = (0,1348);
},
{
pos = (0,-95);
},
{
pos = (0,-1368);
},
{
pos = (0,868);
},
{
pos = (0,269);
}
);
layerId = "E4F99366-6C9B-4FE4-BFF6-3C09ACD21B57";
shapes = (
{
closed = 1;
nodes = (
(468,0,l),
(521,83,o),
(767.188,539,o),
(806.039,876,c),
(810.039,876,l),
(815.039,844,o),
(816.747,780.055,o),
(816.747,724.997,cs),
(816.747,458.662,o),
(727.894,70.629,o),
(710,0,c),
(992,0,l),
(1055,72,o),
(1437.027,598.991,o),
(1523,864,cs),
(1534.027,897.991,o),
(1544,953,o),
(1544,994,cs),
(1544,1072,o),
(1520,1118,o),
(1504,1142,c),
(1207,1082,l),
(1208,1078,o),
(1220,1048,o),
(1220,996,cs,{
name = hr01;
}),
(1220,958,o),
(1211.013,897.25,o),
(1196,836,cs),
(1149.417,645.946,o),
(1017.039,355,o),
(965.039,262,c),
(960.039,262,l),
(989.039,362,o),
(1029.338,549,o),
(1027.213,723,cs),
(1025.27,881.988,o),
(1004.787,1038,o),
(927.787,1140,c),
(631.638,1085,l,{
name = hr02;
}),
(636.449,845,o),
(441.589,357.933,o),
(394.323,258.915,c),
(389.284,259,l),
(411.284,360,o),
(440.899,505.001,o),
(443,661,cs),
(444.899,802.001,o),
(430.809,937.886,o),
(382,1020,cs),
(345.809,1080.887,o),
(291,1123,o),
(246,1142,c),
(32,951,l),
(45,941,o),
(86.179,914.058,o),
(124,798,cs),
(188.179,601.058,o),
(188,49,o),
(189,0,c)
);
}
);
width = 1502;
},
{
anchors = (
{
name = top;
pos = (861,1082);
}
);
guides = (
{
pos = (0,213);
},
{
pos = (0,1348);
},
{
pos = (0,184);
},
{
pos = (0,-1368);
},
{
pos = (0,868);
}
);
layerId = "4B48D498-D91D-4DFD-A68C-F91EB5F77E01";
shapes = (
{
closed = 1;
nodes = (
(401,0,l),
(450,53,o),
(796,581,o),
(831,867,c),
(838,867,l),
(843,841,o),
(846,804,o),
(846,761,cs),
(846,521,o),
(777,34,o),
(778,0,c),
(959,0,l),
(1027,74,o),
(1434,567,o),
(1503,824,cs),
(1517,876,o),
(1522,920,o),
(1522,956,cs),
(1522,1043,o),
(1492,1086,o),
(1482,1102,c),
(1308,1068,l),
(1309,1064,o),
(1320,1035,o),
(1320,983,cs,{
name = hr01;
}),
(1320,945,o),
(1314,896,o),
(1295,836,cs),
(1237,656,o),
(998,277,o),
(938,184,c),
(934,184,l),
(954,284,o),
(1001,519,o),
(1001,703,cs),
(1001,862,o),
(982,997,o),
(906,1099,c),
(721,1067,l,{
name = hr02;
}),
(701,726,o),
(423,272,o),
(362,184,c),
(358,184,l),
(364,252,o),
(391,444,o),
(391,607,cs),
(391,744,o),
(379,881,o),
(338,961,cs),
(287,1060,o),
(224,1097,o),
(199,1102,c),
(65,986,l),
(78,976,o),
(120,945,o),
(158,829,cs),
(222,632,o),
(221,49,o),
(222,0,c)
);
}
);
width = 1518;
},
{
anchors = (
{
name = top;
pos = (803,1058);
}
);
guides = (
{
pos = (0,92);
},
{
pos = (0,265);
},
{
pos = (0,-1368);
},
{
pos = (0,1076);
}
);
layerId = "7E1A2F3E-9482-4B58-A0D1-B49E7A5F97A9";
shapes = (
{
closed = 1;
nodes = (
(338,0,l),
(417,107,o),
(771,671,o),
(784,964,c),
(788,964,l),
(795,926,o),
(807,852,o),
(815,797,cs),
(853,537,o),
(863,37,o),
(864,0,c),
(936,0,l),
(1010,94,o),
(1325,554,o),
(1396,841,cs),
(1404,872,o),
(1408,909,o),
(1408,935,cs),
(1408,1012,o),
(1380,1063,o),
(1370,1076,c),
(1301,1046,l),
(1318,1007,o),
(1321,951,o),
(1321,926,cs,{
name = hr01;
}),
(1321,905,o),
(1317,872,o),
(1311,847,cs),
(1252,617,o),
(999,209,o),
(932,92,c),
(926,92,l),
(930,170,o),
(927,425,o),
(916,563,cs),
(905,693,o),
(888,959,o),
(812,1077,c),
(725,1050,l,{
name = hr02;
}),
(717,843,o),
(617,600,o),
(333,92,c),
(327,92,l),
(331,170,o),
(325,425,o),
(316,563,cs),
(306,714,o),
(287,867,o),
(251,947,cs),
(223,1008,o),
(178,1065,o),
(141,1076,c),
(86,1028,l),
(111,1009,o),
(151,954,o),
(177,889,cs),
(241,725,o),
(265,49,o),
(266,0,c)
);
}
);
width = 1459;
}
);
unicode = 119;
},
{
glyphname = x;
lastChange = "2024-05-29 17:00:57 +0000";
layers = (
{
anchors = (
{
name = top;
pos = (585,1122);
}
);
guides = (
{
pos = (0,568);
},
{
angle = 78.14;
pos = (350,0);
}
);
layerId = "E4F99366-6C9B-4FE4-BFF6-3C09ACD21B57";
shapes = (
{
closed = 1;
nodes = (
(764,-20,o),
(818,-6,o),
(822,-5,c),
(880,179,l),
(876,178,o),
(852,176,o),
(841,177,cs,{
name = hr01;
}),
(735.86,187.81,o),
(715.564,293.85,o),
(628.564,563.51,c),
(1063,1121,l),
(747,1121,l),
(543.464,809.73,l),
(461.874,1077.01,o),
(389.31,1142,o),
(266,1142,cs),
(212,1142,o),
(157,1129,o),
(144,1124,c),
(87,939,l),
(93,941,o),
(117,944,o),
(131,941,cs),
(225.89,922.02,o),
(250.576,806.03,o),
(323.296,595.21,c),
(-140,0,l),
(194,0,l),
(412.116,346.43,l),
(483.846,94.11,o),
(551.59,-20,o),
(738,-20,cs)
);
}
);
width = 951;
},
{
anchors = (
{
name = top;
pos = (575,1081.932);
}
);
guides = (
{
pos = (0,546);
},
{
angle = 78.14;
pos = (348,0);
}
);
layerId = "4B48D498-D91D-4DFD-A68C-F91EB5F77E01";
shapes = (
{
closed = 1;
nodes = (
(764,-21,o),
(796,-8,o),
(800,-7,c),
(847,137,l),
(843,136,o),
(818,135,o),
(807,136,cs,{
name = hr01;
}),
(694,147,o),
(681,262,o),
(575,545,c),
(1012,1082,l),
(781,1082,l),
(512,717,l),
(433,943,o),
(395,1102,o),
(222,1102,cs),
(187,1102,o),
(152,1093,o),
(145,1088,c),
(98,944,l),
(102,945,o),
(127,946,o),
(138,945,cs),
(235,937,o),
(275,810,o),
(365,559,c),
(-86,0,l),
(144,0,l),
(428,384,l),
(510,147,o),
(561,-21,o),
(737,-21,cs)
);
}
);
width = 935;
},
{
anchors = (
{
name = top;
pos = (524.394,1059);
}
);
guides = (
{
pos = (0,546);
},
{
angle = 78.14;
pos = (302,0);
}
);
layerId = "7E1A2F3E-9482-4B58-A0D1-B49E7A5F97A9";
shapes = (
{
closed = 1;
nodes = (
(681,-21,o),
(690,-20,o),
(707,-13,c),
(726,64,l),
(714,60,o),
(696,59,o),
(681,62,cs,{
name = hr01;
}),
(612,76,o),
(547,252,o),
(467,528,c),
(905,1059,l),
(801,1059,l),
(443,612,l),
(349,935,o),
(310,1073,o),
(188,1073,cs),
(160,1073,o),
(134,1066,o),
(130,1064,c),
(117,993,l),
(135,999,o),
(160,1000,o),
(176,996,cs),
(263,972,o),
(316,729,o),
(372,546,c),
(-83,0,l),
(23,0,l),
(398,462,l),
(447,289,o),
(526,-21,o),
(662,-21,cs)
);
}
);
width = 851;
}
);
unicode = 120;
},
{
glyphname = y;
kernLeft = _v;
kernRight = _v;
lastChange = "2024-05-29 19:22:33 +0000";
layers = (
{
anchors = (
{
name = top;
pos = (573,1122);
}
);
guides = (
{
angle = 77.546;
pos = (325,0);
}
);
layerId = "E4F99366-6C9B-4FE4-BFF6-3C09ACD21B57";
shapes = (
{
closed = 1;
nodes = (
(84,-437,o),
(230,-316,o),
(361,-157,cs),
(377,-137,o),
(426,-80,o),
(488,0,cs),
(547,77,o),
(925,608,o),
(994,865,cs),
(1008,917,o),
(1013,956,o),
(1013,992,cs),
(1013,1079,o),
(983,1126,o),
(973,1142,c),
(679,1083,l),
(688,1058,o),
(692,1029,o),
(692,997,cs),
(692,973,o),
(690,938,o),
(686,911,cs),
(651,682,o),
(462,372,o),
(411,270,c),
(406,270,l),
(417,322,o),
(433,496,o),
(441,617,cs),
(449,748,o),
(441,908,o),
(378,1021,cs),
(347,1075,o),
(304,1118,o),
(244,1142,c,{
name = hr01;
}),
(28,951,l),
(47,941,o),
(87,900,o),
(121,794,cs),
(185,597,o),
(180,49,o),
(181,0,c),
(98,-117,o),
(8,-198,o),
(-114,-198,cs),
(-150,-198,o),
(-220,-186,o),
(-219,-186,c),
(-295,-394,l),
(-281,-400,o),
(-193,-437,o),
(-90,-437,cs)
);
}
);
width = 974;
},
{
anchors = (
{
name = top;
pos = (563.962,1082);
}
);
guides = (
{
angle = 77.546;
pos = (325,0);
}
);
layerId = "4B48D498-D91D-4DFD-A68C-F91EB5F77E01";
shapes = (
{
closed = 1;
nodes = (
(54,-437,o),
(181.993,-315.995,o),
(312,-157,cs),
(329.993,-134.995,o),
(383,-68,o),
(452,22,cs),
(628,253,o),
(907,639,o),
(957,824,cs),
(971,876,o),
(976,920,o),
(976,956,cs),
(976,1043,o),
(946,1086,o),
(936,1102,c),
(762,1068,l),
(763,1064,o),
(774,1035,o),
(774,983,cs),
(774,945,o),
(768,896,o),
(749,836,cs),
(691,656,o),
(452,306,o),
(392,213,c),
(388,213,l),
(392,288,o),
(400,416,o),
(400,549,cs),
(400,704,o),
(387,866,o),
(339,961,cs),
(288,1060,o),
(225,1097,o),
(200,1102,c),
(66,986,l),
(79,978,o),
(122,943,o),
(159,829,cs),
(215,655,o),
(229,171,o),
(232,28,c),
(152,-90,o),
(5,-275,o),
(-143,-275,cs),
(-183,-275,o),
(-217,-263,o),
(-216,-263,c),
(-269,-411,l),
(-255,-417,o),
(-199,-437,o),
(-139,-437,cs)
);
}
);
width = 972;
},
{
anchors = (
{
name = top;
pos = (524.883,1059);
}
);
guides = (
{
pos = (0,21);
},
{
angle = 77.546;
pos = (291,0);
}
);
layerId = "7E1A2F3E-9482-4B58-A0D1-B49E7A5F97A9";
shapes = (
{
closed = 1;
nodes = (
(7,-446,o),
(151,-247,o),
(207,-170,cs),
(250,-110,o),
(296,-49,o),
(344,14,cs),
(542,275,o),
(758,560,o),
(849,837,cs),
(859,868,o),
(861,916,o),
(861,942,cs),
(861,1019,o),
(833,1061,o),
(823,1074,c),
(754,1044,l),
(771,1005,o),
(772,958,o),
(772,933,cs),
(772,912,o),
(768,872,o),
(762,847,cs),
(703,617,o),
(392,212,o),
(325,95,c),
(319,95,l),
(323,173,o),
(317,425,o),
(308,563,cs),
(298,714,o),
(279,883,o),
(243,963,cs),
(215,1024,o),
(168,1065,o),
(131,1076,c),
(76,1028,l),
(101,1009,o),
(141,970,o),
(167,905,cs),
(231,741,o),
(249,70,o),
(250,21,c),
(205,-49,o),
(0,-361,o),
(-147,-361,cs),
(-187,-361,o),
(-231,-349,o),
(-230,-349,c),
(-253,-420,l),
(-239,-426,o),
(-213,-446,o),
(-153,-446,cs)
);
}
);
width = 914;
}
);
unicode = 121;
},
{
glyphname = z;
lastChange = "2024-05-29 16:54:17 +0000";
layers = (
{
anchors = (
{
name = top;
pos = (557,1122);
}
);
guides = (
{
angle = 77.547;
pos = (428,0);
}
);
layerId = "E4F99366-6C9B-4FE4-BFF6-3C09ACD21B57";
shapes = (
{
closed = 1;
nodes = (
(742,-17,o),
(848,59,o),
(854,61,c),
(861,278,l),
(854,274,o),
(759,206,o),
(597,206,cs),
(530,206,o),
(430,219,o),
(371,219,cs),
(359,219,o),
(342,218,o),
(335,217,c),
(926,929,l),
(967,1122,l),
(168,1122,l,{
name = hr02;
}),
(123,902,l),
(555,902,l),
(-31,200,l,{
name = hr01;
}),
(-57,0,l),
(-31,2,o),
(14,4,o),
(42,4,cs),
(178,4,o),
(380,-17,o),
(488,-17,cs)
);
}
);
width = 946;
},
{
anchors = (
{
name = top;
pos = (570,1082);
}
);
layerId = "4B48D498-D91D-4DFD-A68C-F91EB5F77E01";
shapes = (
{
closed = 1;
nodes = (
(697,-17,o),
(787,59,o),
(793,61,c),
(800,203,l),
(793,199,o),
(675,131,o),
(513,131,cs),
(446,131,o),
(337,144,o),
(278,144,cs),
(266,144,o),
(253,143,o),
(246,142,c),
(931,963,l),
(956,1082,l),
(201,1082,l,{
name = hr02;
}),
(170,936,l),
(667,936,l),
(-10,125,l,{
name = hr01;
}),
(-36,0,l),
(-10,2,o),
(17,3,o),
(45,3,cs),
(181,3,o),
(337,-17,o),
(445,-17,cs)
);
}
);
width = 922;
},
{
anchors = (
{
name = top;
pos = (533.821,1059);
}
);
guides = (
{
pos = (0,68);
},
{
pos = (0,991);
},
{
angle = 78.14;
pos = (703,0);
},
{
angle = 78.14;
pos = (-6,0);
}
);
layerId = "7E1A2F3E-9482-4B58-A0D1-B49E7A5F97A9";
shapes = (
{
closed = 1;
nodes = (
(653,-16,o),
(753,59,o),
(759,61,c),
(762,129,l),
(755,125,o),
(607,55,o),
(405,55,cs),
(338,55,o),
(184,70,o),
(125,70,cs),
(113,70,o),
(100,69,o),
(93,68,c),
(891,1000,l),
(903,1059,l),
(186,1059,l,{
name = hr02;
}),
(174,991,l),
(776,991,l),
(-18,60,l,{
name = hr01;
}),
(-30,0,l),
(-4,2,o),
(23,3,o),
(51,3,cs),
(187,3,o),
(313,-16,o),
(421,-16,cs)
);
}
);
width = 877;
}
);
unicode = 122;
},
{
color = (255,153,153,255);
glyphname = itilde.alt;
lastChange = "2024-05-29 19:15:49 +0000";
layers = (
{
layerId = "E4F99366-6C9B-4FE4-BFF6-3C09ACD21B57";
shapes = (
{
closed = 1;
nodes = (
(321.782,1301,o),
(339.585,1333,o),
(369.585,1333,cs,{
name = hr01;
}),
(415.585,1333,o),
(412.411,1224,o),
(528.411,1224,cs),
(642.411,1224,o),
(738.986,1349,o),
(778.916,1518,c),
(623.144,1552,l),
(600.412,1478,o),
(579.758,1442,o),
(547.758,1442,cs,{
name = hr01;
}),
(492.758,1442,o),
(493.144,1552,o),
(395.144,1552,cs),
(280.144,1552,o),
(187.569,1427,o),
(148.64,1258,c),
(303.411,1224,l)
);
},
{
alignment = -1;
ref = idotless;
}
);
width = 563;
},
{
layerId = "4B48D498-D91D-4DFD-A68C-F91EB5F77E01";
shapes = (
{
closed = 1;
nodes = (
(320,1318,o),
(346,1346,o),
(365,1346,cs,{
name = hr01.1;
}),
(416,1346,o),
(427,1265,o),
(517,1265,cs),
(588,1265,o),
(664,1338,o),
(707,1494,c),
(599,1514,l),
(581,1458,o),
(559,1418,o),
(536,1418,cs,{
name = hr02;
}),
(496,1418,o),
(462,1499,o),
(385,1499,cs),
(305,1499,o),
(231,1421,o),
(188,1270,c),
(296,1250,l)
);
},
{
alignment = -1;
ref = idotless;
}
);
width = 534;
},
{
guides = (
{
pos = (0,1555);
}
);
layerId = "7E1A2F3E-9482-4B58-A0D1-B49E7A5F97A9";
shapes = (
{
closed = 1;
nodes = (
(263.462,1331,o),
(304.937,1405,o),
(350.937,1405,cs,{
name = hr01;
}),
(405.937,1405,o),
(423.837,1301,o),
(519.837,1301,cs),
(598.837,1301,o),
(637.312,1375,o),
(667.15,1476,c),
(616.287,1489,l),
(597.775,1426,o),
(570.225,1374,o),
(532.225,1374,cs,{
name = hr02;
}),
(476.225,1374,o),
(466.325,1478,o),
(374.325,1478,cs),
(297.325,1478,o),
(230.2,1408,o),
(199.362,1307,c),
(253.4,1296,l)
);
},
{
alignment = -1;
ref = idotless;
}
);
width = 508;
}
);
},
{
color = 2;
glyphname = oslash.light;
kernLeft = _o;
kernRight = _o;
lastChange = "2024-05-29 14:19:23 +0000";
layers = (
{
layerId = "7E1A2F3E-9482-4B58-A0D1-B49E7A5F97A9";
shapes = (
{
closed = 1;
nodes = (
(750.322,-20,o),
(945.055,355,o),
(949.919,700.996,cs),
(951.476,811.749,o),
(932.512,916.981,o),
(875.373,988.846,c),
(1004.606,1186,l,{
name = ._.105553357429792;
}),
(924.606,1186,l),
(825.932,1035.465,l),
(782.839,1065.529,o),
(726.434,1083,o),
(653.624,1083,cs),
(316.624,1083,o),
(125.662,706,o),
(121.014,361.005,cs),
(119.51,249.425,o),
(137.21,143.759,o),
(194.481,72.136,c),
(57.394,-137,l,{
name = ._.105553357428752;
}),
(137.394,-137,l),
(244.182,25.914,l),
(286.797,-3.163,o),
(342.735,-20,o),
(415.322,-20,cs)
);
},
{
closed = 1;
nodes = (
(371.365,47,o),
(324.143,63.53,o),
(289.547,95.121,c),
(823.166,909.2,l),
(849.346,855.779,o),
(861.306,782.271,o),
(859.726,688.996,cs),
(853.712,334,o),
(650.494,47,o),
(433.494,47,cs)
);
},
{
closed = 1;
nodes = (
(216.792,726,o),
(408.43,1015,o),
(644.43,1015,cs),
(701.653,1015,o),
(747.081,998.992,o),
(781.183,967.197,c),
(247.287,152.696,l),
(220.538,207.02,o),
(209.759,281.257,o),
(211.21,373.005,cs)
);
}
);
width = 1067.49;
},
{
layerId = "4B48D498-D91D-4DFD-A68C-F91EB5F77E01";
shapes = (
{
closed = 1;
nodes = (
(820.322,-19.856,o),
(1023.226,379.65,o),
(1023.76,729.39,cs),
(1023.934,843.374,o),
(988.042,935.507,o),
(923.212,999.834,c),
(1059.538,1212,l),
(900.538,1212,l),
(810.894,1072.486,l),
(765.967,1090.431,o),
(714.808,1100.89,o),
(658.277,1103.144,cs),
(277.579,1118.322,o),
(80.604,695.287,o),
(80.419,352.144,cs),
(80.361,245.083,o),
(113.597,151.652,o),
(176.522,85.203,c),
(32.462,-139,l),
(191.462,-139,l),
(287.032,9.738,l),
(333.217,-9.401,o),
(386.675,-19.856,o),
(446.929,-19.856,cs)
);
},
{
closed = 1;
nodes = (
(432.008,134.144,o),
(403.048,141.13,o),
(379.398,153.487,c),
(805.849,817.18,l),
(814.735,788.251,o),
(819.576,755.162,o),
(820.216,718.603,cs),
(823.487,531.685,o),
(699.757,134.144,o),
(467.234,134.144,cs)
);
},
{
closed = 1;
nodes = (
(283.609,581.287,o),
(409.475,947.144,o),
(638.007,947.144,cs),
(668.665,947.144,o),
(695.667,940.939,o),
(718.85,929.236,c),
(295.642,270.59,l),
(287.447,302.258,o),
(284.094,337.126,o),
(284.023,372.566,cs)
);
}
);
width = 1104.59;
},
{
layerId = "E4F99366-6C9B-4FE4-BFF6-3C09ACD21B57";
shapes = (
{
closed = 1;
nodes = (
(838.35,-20,o),
(1060.665,362,o),
(1059.997,743,cs),
(1059.868,867.294,o),
(1030.573,968.826,o),
(968.394,1038.362,c),
(1113.108,1259,l,{
name = ._.105553357387520;
}),
(905.108,1259,l),
(818.761,1127.351,l),
(782.55,1136.984,o),
(742.021,1142,o),
(697.015,1142,cs),
(254.015,1142,o),
(57.225,730,o),
(57.472,373,cs),
(57.51,258.517,o),
(83.555,161.658,o),
(140.169,92.742,c),
(-15.108,-144,l,{
name = ._.105553357386480;
}),
(192.892,-144,l),
(285.998,-2.047,l),
(324.974,-13.794,o),
(369.327,-20,o),
(419.35,-20,cs)
);
},
{
closed = 1;
nodes = (
(454.618,209,o),
(441.735,211.38,o),
(429.323,216.472,c),
(771.137,737,ls),
(771.142,731.469,o),
(771.074,725.914,o),
(770.933,720.339,cs),
(764.958,482.978,o),
(628.485,209,o),
(467.272,209,cs)
);
},
{
closed = 1;
nodes = (
(357.862,658.21,o),
(481.862,912,o),
(642.092,912,cs),
(653.434,912,o),
(664.482,910.792,o),
(675.034,908.22,c),
(346.328,407.06,l),
(346.458,412.952,o),
(346.662,418.86,o),
(346.94,424.782,cs)
);
}
);
width = 1119.43;
}
);
},
{
glyphname = f_f;
kernLeft = _f;
kernRight = _f;
lastChange = "2024-05-29 19:30:57 +0000";
layers = (
{
layerId = "E4F99366-6C9B-4FE4-BFF6-3C09ACD21B57";
shapes = (
{
closed = 1;
nodes = (
(110.8,-439,o),
(271.8,-330,o),
(335.8,-32,cs),
(540.14,903,l),
(892.57,903,l),
(680.8,-66,ls),
(661.8,-154,o),
(626.8,-206,o),
(528.8,-206,cs),
(503.8,-206,o),
(466.8,-194,o),
(451.8,-189,c),
(381.8,-392,l),
(442.8,-421,o),
(513.8,-436,o),
(572.8,-436,cs),
(779.8,-436,o),
(939.8,-327,o),
(1004.8,-29,cs),
(1208.49,903,l),
(1391.8,903,l),
(1439.8,1123,l),
(1256.48,1122.58,l),
(1275.8,1211,ls),
(1294.8,1299,o),
(1329.8,1351,o),
(1427.8,1351,cs),
(1452.8,1351,o),
(1489.8,1339,o),
(1504.8,1334,c),
(1574.8,1537,l),
(1513.8,1566,o),
(1442.8,1581,o),
(1383.8,1581,cs),
(1176.8,1581,o),
(1016.8,1472,o),
(951.8,1174,cs),
(940.39,1121.84,l),
(587.79,1121.03,l),
(606.8,1208,ls),
(625.8,1296,o),
(660.8,1348,o),
(758.8,1348,cs),
(783.8,1348,o),
(820.8,1336,o),
(835.8,1331,c),
(905.8,1534,l),
(844.8,1563,o),
(773.8,1578,o),
(714.8,1578,cs),
(507.8,1578,o),
(346.8,1469,o),
(282.8,1171,cs),
(271.72,1120.3,l),
(139.8,1120,l),
(89.8,903,l),
(224.23,903,l),
(11.8,-69,ls),
(-7.2,-157,o),
(-42.2,-209,o),
(-140.2,-209,cs),
(-165.2,-209,o),
(-202.2,-197,o),
(-217.2,-192,c),
(-287.2,-395,l),
(-226.2,-424,o),
(-155.2,-439,o),
(-96.2,-439,cs)
);
}
);
width = 1337.8;
},
{
layerId = "4B48D498-D91D-4DFD-A68C-F91EB5F77E01";
shapes = (
{
closed = 1;
nodes = (
(80.594,-438.328,o),
(241.499,-245.308,o),
(288.594,-22.328,cs),
(491,936,l),
(924,936,l),
(722.594,-17.328,ls),
(695.958,-143.405,o),
(622.594,-278.328,o),
(510.594,-278.328,cs),
(477.594,-278.328,o),
(447.594,-272.328,o),
(423.594,-267.328,c),
(369.594,-417.328,l),
(397.594,-426.328,o),
(458.594,-438.328,o),
(501.594,-438.328,cs),
(713.594,-438.328,o),
(874.499,-245.308,o),
(921.594,-22.328,cs),
(1124,936,l),
(1349,936,l),
(1380,1082,l),
(1155,1082,l),
(1185,1220,ls),
(1212,1349,o),
(1278,1421,o),
(1381,1421,cs),
(1414,1421,o),
(1444,1415,o),
(1468,1410,c),
(1522,1560,l),
(1494,1569,o),
(1433,1581,o),
(1390,1581,cs),
(1182,1581,o),
(1033,1448,o),
(985,1220,cs),
(955,1082,l),
(522,1082,l),
(552,1220,ls),
(579,1349,o),
(645,1421,o),
(748,1421,cs),
(781,1421,o),
(811,1415,o),
(835,1410,c),
(889,1560,l),
(861,1569,o),
(800,1581,o),
(757,1581,cs),
(549,1581,o),
(400,1448,o),
(352,1220,cs),
(322,1082,l),
(167,1082,l),
(136,936,l),
(291,936,l),
(89.594,-17.328,ls),
(62.958,-143.405,o),
(-10.406,-278.328,o),
(-122.406,-278.328,cs),
(-155.406,-278.328,o),
(-185.406,-272.328,o),
(-209.406,-267.328,c),
(-263.406,-417.328,l),
(-235.406,-426.328,o),
(-174.406,-438.328,o),
(-131.406,-438.328,cs)
);
}
);
width = 1285;
},
{
layerId = "7E1A2F3E-9482-4B58-A0D1-B49E7A5F97A9";
shapes = (
{
closed = 1;
nodes = (
(33.576,-446.707,o),
(138.251,-308.64,o),
(196.576,-36.707,cs),
(417,991,l),
(895,991,l),
(680.576,-36.707,ls),
(648.249,-191.644,o),
(581.576,-374.707,o),
(432.576,-374.707,cs),
(419.576,-374.707,o),
(390.576,-371.707,o),
(372.576,-366.707,c),
(354.576,-431.707,l),
(382.576,-440.707,o),
(408.576,-446.707,o),
(451.576,-446.707,cs),
(603.576,-446.707,o),
(708.251,-308.64,o),
(766.576,-36.707,cs),
(987,991,l),
(1222,991,l),
(1233,1059,l),
(998,1059,l),
(1029,1220,ls),
(1056,1349,o),
(1097,1499,o),
(1260,1499,cs),
(1293,1499,o),
(1322,1494,o),
(1346,1487,c),
(1369,1552,l),
(1341,1561,o),
(1297,1570,o),
(1254,1570,cs),
(1066,1570,o),
(984,1448,o),
(939,1220,cs),
(908,1059,l),
(428,1059,l),
(459,1220,ls),
(486,1349,o),
(527,1499,o),
(690,1499,cs),
(723,1499,o),
(752,1494,o),
(776,1487,c),
(799,1552,l),
(771,1561,o),
(727,1570,o),
(684,1570,cs),
(496,1570,o),
(414,1448,o),
(369,1220,cs),
(338,1059,l),
(159,1059,l),
(148,991,l),
(325,991,l),
(110.576,-36.707,ls),
(78.249,-191.644,o),
(11.576,-374.707,o),
(-137.424,-374.707,cs),
(-150.424,-374.707,o),
(-179.424,-371.707,o),
(-197.424,-366.707,c),
(-215.424,-431.707,l),
(-187.424,-440.707,o),
(-161.424,-446.707,o),
(-118.424,-446.707,cs)
);
}
);
width = 1144;
}
);
unicode = 64256;
},
{
glyphname = f_f_i;
kernLeft = _f;
kernRight = _i;
lastChange = "2024-05-31 14:59:21 +0000";
layers = (
{
layerId = "E4F99366-6C9B-4FE4-BFF6-3C09ACD21B57";
shapes = (
{
closed = 1;
nodes = (
(110.58,-440,o),
(270.58,-331,o),
(335.58,-33,cs),
(539.92,902,l),
(885.08,902,l),
(672.58,-70,ls),
(653.58,-158,o),
(618.58,-210,o),
(520.58,-210,cs),
(495.58,-210,o),
(458.58,-198,o),
(443.58,-193,c),
(373.58,-396,l),
(434.58,-425,o),
(505.58,-440,o),
(564.58,-440,cs),
(771.58,-440,o),
(931.58,-331,o),
(996.58,-33,cs),
(1201.06,902,l),
(1391.58,902,l),
(1439.58,1122,l),
(1249.17,1122,l),
(1251.58,1133,ls),
(1277.58,1254,o),
(1346.58,1333,o),
(1498.58,1333,cs),
(1631.58,1333,o),
(1818.58,1275,o),
(1853.58,1258,c),
(1938.58,1458,l),
(1889.58,1486,o),
(1689.58,1581,o),
(1468.58,1578,cs),
(1134.58,1574,o),
(997.58,1415,o),
(935.58,1133,cs),
(933.17,1122,l),
(588,1122,l),
(606.58,1207,ls),
(625.58,1295,o),
(660.58,1347,o),
(758.58,1347,cs),
(783.58,1347,o),
(820.58,1335,o),
(835.58,1330,c),
(905.58,1533,l),
(844.58,1562,o),
(773.58,1577,o),
(714.58,1577,cs),
(507.58,1577,o),
(347.58,1468,o),
(282.58,1170,cs),
(272.09,1122,l),
(139.58,1122,l),
(89.58,902,l),
(224.01,902,l),
(11.58,-70,ls),
(-7.42,-158,o),
(-42.42,-210,o),
(-140.42,-210,cs),
(-165.42,-210,o),
(-202.42,-198,o),
(-217.42,-193,c),
(-287.42,-396,l),
(-226.42,-425,o),
(-155.42,-440,o),
(-96.42,-440,cs)
);
},
{
closed = 1;
nodes = (
(1769,124,l),
(1731,151,o),
(1705,204,o),
(1710,250,cs,{
name = hr03;
}),
(1711,260,o),
(1713,279,o),
(1716,294,cs),
(1743,441,o),
(1863,975,o),
(1892,1122,c),
(1579,1122,l),
(1549,972,o),
(1401,326,o),
(1401,212,cs),
(1401,61,o),
(1517.635,4.023,o),
(1636,-21,c)
);
}
);
width = 1904.47;
},
{
layerId = "4B48D498-D91D-4DFD-A68C-F91EB5F77E01";
shapes = (
{
closed = 1;
nodes = (
(80.594,-438.328,o),
(241.499,-245.308,o),
(288.594,-22.328,cs),
(491,936,l),
(924,936,l),
(722.594,-17.328,ls),
(695.958,-143.405,o),
(622.594,-278.328,o),
(510.594,-278.328,cs),
(477.594,-278.328,o),
(447.594,-272.328,o),
(423.594,-267.328,c),
(369.594,-417.328,l),
(397.594,-426.328,o),
(458.594,-438.328,o),
(501.594,-438.328,cs),
(713.594,-438.328,o),
(874.499,-245.308,o),
(921.594,-22.328,cs),
(1124,936,l),
(1351,936,l),
(1382,1082,l),
(1155,1082,l),
(1176,1179,ls),
(1214,1352,o),
(1310,1412,o),
(1467,1412,cs),
(1587,1412,o),
(1700,1373,o),
(1761,1343,c),
(1826,1490,l),
(1737,1534,o),
(1598,1581,o),
(1459,1581,cs),
(1180,1581,o),
(1035,1445,o),
(977,1182,cs),
(955,1082,l),
(522,1082,l),
(552,1220,ls),
(579,1349,o),
(645,1421,o),
(748,1421,cs),
(781,1421,o),
(811,1415,o),
(835,1410,c),
(889,1560,l),
(861,1569,o),
(800,1581,o),
(757,1581,cs),
(549,1581,o),
(400,1448,o),
(352,1220,cs),
(322,1082,l),
(167,1082,l),
(136,936,l),
(291,936,l),
(89.594,-17.328,ls),
(62.958,-143.405,o),
(-10.406,-278.328,o),
(-122.406,-278.328,cs),
(-155.406,-278.328,o),
(-185.406,-272.328,o),
(-209.406,-267.328,c),
(-263.406,-417.328,l),
(-235.406,-426.328,o),
(-174.406,-438.328,o),
(-131.406,-438.328,cs)
);
},
{
closed = 1;
nodes = (
(1632,90,l),
(1591,120,o),
(1576,160,o),
(1576,203,cs),
(1576,217,o),
(1577,231,o),
(1580,245,c),
(1638,521,o),
(1699,806,o),
(1757,1082,c),
(1557,1082,l),
(1499,779,o),
(1382,304,o),
(1382,172,cs,{
name = hr01;
}),
(1382,51,o),
(1442.553,6.203,o),
(1529,-21,c)
);
}
);
width = 1816;
},
{
layerId = "7E1A2F3E-9482-4B58-A0D1-B49E7A5F97A9";
shapes = (
{
closed = 1;
nodes = (
(33.576,-446.707,o),
(138.251,-308.64,o),
(196.576,-36.707,cs),
(417,991,l),
(895,991,l),
(680.576,-36.707,ls),
(648.249,-191.644,o),
(581.576,-374.707,o),
(432.576,-374.707,cs),
(419.576,-374.707,o),
(390.576,-371.707,o),
(372.576,-366.707,c),
(354.576,-431.707,l),
(382.576,-440.707,o),
(408.576,-446.707,o),
(451.576,-446.707,cs),
(603.576,-446.707,o),
(708.251,-308.64,o),
(766.576,-36.707,cs),
(987,991,l),
(1253,991,l),
(1264,1059,l),
(999,1059,l),
(1030,1220,ls),
(1057,1360,o),
(1109,1510,o),
(1341,1510,cs),
(1464,1510,o),
(1552,1465,o),
(1596,1436,c),
(1618,1500,l),
(1592,1524,o),
(1469,1580,o),
(1348,1580,cs),
(1117,1580,o),
(988,1469,o),
(940,1220,cs),
(909,1059,l),
(428,1059,l),
(459,1220,ls),
(486,1349,o),
(527,1499,o),
(690,1499,cs),
(723,1499,o),
(752,1494,o),
(776,1487,c),
(799,1552,l),
(771,1561,o),
(727,1570,o),
(684,1570,cs),
(496,1570,o),
(414,1448,o),
(369,1220,cs),
(338,1059,l),
(159,1059,l),
(148,991,l),
(325,991,l),
(110.576,-36.707,ls),
(78.249,-191.644,o),
(11.576,-374.707,o),
(-137.424,-374.707,cs),
(-150.424,-374.707,o),
(-179.424,-371.707,o),
(-197.424,-366.707,c),
(-215.424,-431.707,l),
(-187.424,-440.707,o),
(-161.424,-446.707,o),
(-118.424,-446.707,cs)
);
},
{
closed = 1;
nodes = (
(1419,38,l),
(1375.536,68.68,o),
(1371.91,107.352,o),
(1377,168,cs),
(1377.425,172.976,o),
(1379,188,o),
(1383,216,c),
(1440,494,o),
(1498,781,o),
(1555,1059,c),
(1466,1059,l),
(1408,756,o),
(1299.988,304,o),
(1291,172,cs),
(1282.607,48.74,o),
(1326.19,5.518,o),
(1378,-17,c)
);
}
);
width = 1659;
}
);
unicode = 64259;
},
{
glyphname = f_t;
kernLeft = _f;
kernRight = _t;
lastChange = "2024-05-29 19:32:04 +0000";
layers = (
{
layerId = "E4F99366-6C9B-4FE4-BFF6-3C09ACD21B57";
shapes = (
{
closed = 1;
nodes = (
(111.22,-437,o),
(272.22,-328,o),
(336.22,-30,cs),
(539.91,902,l),
(881.85,902,l),
(755.22,312,ls),
(747.22,273,o),
(743.22,238,o),
(743.22,207,cs),
(743.22,42,o),
(862.22,-20,o),
(970.22,-20,cs),
(1069.22,-20,o),
(1182.22,15,o),
(1227.22,33,c),
(1239.22,240,l),
(1227.22,234,o),
(1194.22,222,o),
(1160.22,222,cs),
(1108.22,222,o),
(1072.22,242,o),
(1072.22,305,cs),
(1072.22,321,o),
(1073.22,340,o),
(1078.22,361,cs),
(1194.62,902,l),
(1386.22,902,l),
(1434.22,1122,l),
(1241.95,1122,l),
(1291.22,1351,l),
(978.22,1351,l,{
name = hr02;
}),
(929.07,1122,l),
(587.99,1122,l),
(607.22,1210,ls),
(626.22,1298,o),
(661.22,1350,o),
(759.22,1350,cs),
(784.22,1350,o),
(821.22,1338,o),
(836.22,1333,c),
(906.22,1536,l),
(845.22,1565,o),
(774.22,1580,o),
(715.22,1580,cs),
(508.22,1580,o),
(347.22,1471,o),
(283.22,1173,cs),
(272.07,1122,l),
(140.22,1122,l),
(90.22,902,l),
(223.99,902,l),
(12.22,-67,ls),
(-6.78,-155,o),
(-41.78,-207,o),
(-139.78,-207,cs),
(-164.78,-207,o),
(-201.78,-195,o),
(-216.78,-190,c),
(-286.78,-393,l),
(-225.78,-422,o),
(-154.78,-437,o),
(-95.78,-437,cs)
);
}
);
width = 1355.22;
},
{
layerId = "4B48D498-D91D-4DFD-A68C-F91EB5F77E01";
shapes = (
{
closed = 1;
nodes = (
(80.594,-438.328,o),
(241.499,-245.308,o),
(288.594,-22.328,cs),
(491,936,l),
(921,936,l),
(783,283,ls),
(775,244,o),
(771,209,o),
(771,178,cs),
(771,33,o),
(858,-21,o),
(970,-21,cs),
(1027,-21,o),
(1122,2,o),
(1156,23,c),
(1163,160,l),
(1151,154,o),
(1103,139,o),
(1069,139,cs),
(1015,139,o),
(976,162,o),
(976,230,cs),
(976,246,o),
(978,265,o),
(983,286,cs),
(1121,936,l),
(1338,936,l),
(1369,1082,l),
(1152,1082,l,{
name = hr01;
}),
(1209,1347,l),
(1009,1347,l,{
name = hr02;
}),
(952,1082,l),
(522,1082,l),
(552,1220,ls),
(579,1349,o),
(645,1421,o),
(748,1421,cs),
(781,1421,o),
(811,1415,o),
(835,1410,c),
(889,1560,l),
(861,1569,o),
(800,1581,o),
(757,1581,cs),
(549,1581,o),
(400,1448,o),
(352,1220,cs),
(322,1082,l),
(167,1082,l),
(136,936,l),
(291,936,l),
(89.594,-17.328,ls),
(62.958,-143.405,o),
(-10.406,-278.328,o),
(-122.406,-278.328,cs),
(-155.406,-278.328,o),
(-185.406,-272.328,o),
(-209.406,-267.328,c),
(-263.406,-417.328,l),
(-235.406,-426.328,o),
(-174.406,-438.328,o),
(-131.406,-438.328,cs)
);
}
);
width = 1314;
},
{
layerId = "7E1A2F3E-9482-4B58-A0D1-B49E7A5F97A9";
shapes = (
{
closed = 1;
nodes = (
(33.576,-446.707,o),
(138.251,-308.64,o),
(196.576,-36.707,cs),
(417,991,l),
(874,991,l),
(722,283,ls),
(714,244,o),
(700,179,o),
(700,148,cs),
(700,43,o),
(769,-21,o),
(881,-21,cs),
(931,-21,o),
(993,5,o),
(1007,15,c),
(1001,75,l),
(962,59,o),
(926,54,o),
(892,54,cs),
(848,54,o),
(788,77,o),
(788,145,cs),
(788,161,o),
(790,180,o),
(795,201,cs),
(964,991,l),
(1200,991,l),
(1215,1059,l),
(977,1059,l),
(1038,1347,l),
(948,1347,l),
(887,1059,l),
(428,1059,l),
(459,1220,ls),
(486,1349,o),
(527,1499,o),
(690,1499,cs),
(723,1499,o),
(752,1494,o),
(776,1487,c),
(799,1552,l),
(771,1561,o),
(727,1570,o),
(684,1570,cs),
(496,1570,o),
(414,1448,o),
(369,1220,cs),
(338,1059,l),
(159,1059,l),
(148,991,l),
(325,991,l),
(110.576,-36.707,ls),
(78.249,-191.644,o),
(11.576,-374.707,o),
(-137.424,-374.707,cs),
(-150.424,-374.707,o),
(-179.424,-371.707,o),
(-197.424,-366.707,c),
(-215.424,-431.707,l),
(-187.424,-440.707,o),
(-161.424,-446.707,o),
(-118.424,-446.707,cs)
);
}
);
width = 1173;
}
);
},
{
glyphname = fi;
kernLeft = _f;
kernRight = _i;
lastChange = "2024-05-31 15:00:18 +0000";
layers = (
{
guides = (
{
pos = (-3.42,1150);
}
);
layerId = "E4F99366-6C9B-4FE4-BFF6-3C09ACD21B57";
shapes = (
{
closed = 1;
nodes = (
(110.58,-440,o),
(270.58,-331,o),
(335.58,-33,cs),
(540.06,902,l),
(730.58,902,l),
(778.58,1122,l),
(587.98,1121.1,l),
(590.58,1133,ls),
(616.58,1254,o),
(685.58,1333,o),
(837.58,1333,cs),
(970.58,1333,o),
(1157.58,1275,o),
(1192.58,1258,c),
(1277.58,1458,l),
(1228.58,1486,o),
(1028.58,1581,o),
(807.58,1578,cs),
(473.58,1574,o),
(336.301,1417.061,o),
(274.58,1135,cs),
(271.65,1121.61,l),
(139.58,1121,l),
(89.58,902,l),
(224.08,902,l),
(11.58,-70,ls),
(-7.42,-158,o),
(-42.42,-210,o),
(-140.42,-210,cs),
(-165.42,-210,o),
(-202.42,-198,o),
(-217.42,-193,c),
(-287.42,-396,l),
(-226.42,-425,o),
(-155.42,-440,o),
(-96.42,-440,cs)
);
},
{
closed = 1;
nodes = (
(1109,124,l),
(1071,151,o),
(1045,204,o),
(1050,250,cs,{
name = hr03;
}),
(1051,260,o),
(1053,279,o),
(1056,294,cs),
(1083,441,o),
(1203,975,o),
(1232,1122,c),
(919,1122,l),
(889,972,o),
(741,326,o),
(741,212,cs),
(741,61,o),
(857.635,4.023,o),
(976,-21,c)
);
}
);
width = 1244.47;
},
{
layerId = "4B48D498-D91D-4DFD-A68C-F91EB5F77E01";
shapes = (
{
closed = 1;
nodes = (
(80.594,-438.328,o),
(241.499,-245.308,o),
(288.594,-22.328,cs),
(491,936,l),
(718,936,l),
(749,1082,l),
(522,1082,l),
(543,1179,ls),
(581,1352,o),
(677,1412,o),
(834,1412,cs),
(954,1412,o),
(1067,1373,o),
(1128,1343,c),
(1193,1490,l),
(1104,1534,o),
(965,1581,o),
(826,1581,cs),
(547,1581,o),
(402,1445,o),
(344,1182,cs),
(322,1082,l),
(166,1082,l),
(135,936,l),
(291,936,l),
(89.594,-17.328,ls),
(62.958,-143.405,o),
(-10.406,-278.328,o),
(-122.406,-278.328,cs),
(-155.406,-278.328,o),
(-185.406,-272.328,o),
(-209.406,-267.328,c),
(-263.406,-417.328,l),
(-235.406,-426.328,o),
(-174.406,-438.328,o),
(-131.406,-438.328,cs)
);
},
{
closed = 1;
nodes = (
(1000,90,l),
(959,120,o),
(944,160,o),
(944,203,cs),
(944,217,o),
(945,231,o),
(948,245,c),
(1006,521,o),
(1067,806,o),
(1125,1082,c),
(925,1082,l),
(867,779,o),
(750,304,o),
(750,172,cs,{
name = hr01;
}),
(750,51,o),
(810.553,6.203,o),
(897,-21,c)
);
}
);
width = 1183;
},
{
guides = (
{
pos = (0,1581);
},
{
angle = 78.14;
pos = (754,0);
}
);
layerId = "7E1A2F3E-9482-4B58-A0D1-B49E7A5F97A9";
shapes = (
{
closed = 1;
nodes = (
(33.576,-446.707,o),
(138.251,-308.64,o),
(196.576,-36.707,cs),
(417,991,l),
(682,991,l),
(693,1059,l),
(428,1059,l),
(459,1220,ls),
(486,1360,o),
(538,1511,o),
(770,1511,cs),
(893,1511,o),
(981,1464,o),
(1025,1435,c),
(1047,1500,l),
(1021,1524,o),
(898,1580,o),
(777,1580,cs),
(546,1580,o),
(417,1469,o),
(369,1220,cs),
(338,1059,l),
(159,1059,l),
(148,991,l),
(325,991,l),
(110.576,-36.707,ls),
(78.249,-191.644,o),
(11.576,-374.707,o),
(-137.424,-374.707,cs),
(-150.424,-374.707,o),
(-179.424,-371.707,o),
(-197.424,-366.707,c),
(-215.424,-431.707,l),
(-187.424,-440.707,o),
(-161.424,-446.707,o),
(-118.424,-446.707,cs)
);
},
{
closed = 1;
nodes = (
(848,38,l),
(804.536,68.68,o),
(800.91,107.352,o),
(806,168,cs),
(806.425,172.976,o),
(808,188,o),
(812,216,c),
(869,494,o),
(927,781,o),
(984,1059,c),
(895,1059,l),
(837,756,o),
(728.988,304,o),
(720,172,cs),
(711.607,48.74,o),
(755.19,5.518,o),
(807,-17,c)
);
}
);
width = 1088;
}
);
unicode = 64257;
},
{
glyphname = t_t;
kernLeft = _t;
kernRight = _t;
lastChange = "2024-05-27 15:08:00 +0000";
layers = (
{
layerId = "E4F99366-6C9B-4FE4-BFF6-3C09ACD21B57";
shapes = (
{
closed = 1;
nodes = (
(408,-20,o),
(521,15,o),
(566,33,c),
(578,240,l),
(566,234,o),
(533,222,o),
(499,222,cs),
(447,222,o),
(411,242,o),
(411,305,cs),
(411,321,o),
(412,340,o),
(417,361,cs),
(533.4,902,l),
(903.63,902,l),
(777,312,ls),
(769,273,o),
(765,238,o),
(765,207,cs),
(765,42,o),
(884,-20,o),
(992,-20,cs),
(1091,-20,o),
(1204,15,o),
(1249,33,c),
(1261,240,l),
(1249,234,o),
(1216,222,o),
(1182,222,cs),
(1130,222,o),
(1094,242,o),
(1094,305,cs),
(1094,321,o),
(1095,340,o),
(1100,361,cs),
(1216.4,902,l),
(1408,902,l),
(1456,1122,l),
(1263.73,1122,l),
(1313,1351,l),
(1000,1351,l,{
name = hr02;
}),
(950.85,1122,l),
(580.73,1122,l),
(630,1351,l),
(317,1351,l,{
name = hr02;
}),
(267.85,1122,l),
(136,1122,l),
(86,902,l),
(220.63,902,l),
(94,312,ls),
(86,273,o),
(82,238,o),
(82,207,cs),
(82,42,o),
(201,-20,o),
(309,-20,cs)
);
}
);
width = 1377;
},
{
layerId = "4B48D498-D91D-4DFD-A68C-F91EB5F77E01";
shapes = (
{
closed = 1;
nodes = (
(381,-21,o),
(476,2,o),
(510,23,c),
(517,160,l),
(505,154,o),
(457,139,o),
(423,139,cs),
(369,139,o),
(330,162,o),
(330,230,cs),
(330,246,o),
(332,265,o),
(337,286,cs),
(475,936,l),
(934,936,l),
(796,283,ls),
(788,244,o),
(784,209,o),
(784,178,cs),
(784,33,o),
(871,-21,o),
(983,-21,cs),
(1040,-21,o),
(1135,2,o),
(1169,23,c),
(1176,160,l),
(1164,154,o),
(1116,139,o),
(1082,139,cs),
(1028,139,o),
(989,162,o),
(989,230,cs),
(989,246,o),
(991,265,o),
(996,286,cs,{
name = hr03;
}),
(1134,936,l),
(1351,936,l,{
name = hr02;
}),
(1382,1082,l),
(1165,1082,l,{
name = hr01;
}),
(1222,1347,l),
(1022,1347,l,{
name = hr04;
}),
(965,1082,l),
(506,1082,l),
(563,1347,l),
(363,1347,l),
(306,1082,l),
(150,1082,l),
(119,936,l),
(275,936,l),
(137,283,ls),
(129,244,o),
(125,209,o),
(125,178,cs),
(125,33,o),
(212,-21,o),
(324,-21,cs)
);
}
);
width = 1327;
},
{
guides = (
{
angle = 90;
pos = (768,0);
}
);
layerId = "7E1A2F3E-9482-4B58-A0D1-B49E7A5F97A9";
shapes = (
{
closed = 1;
nodes = (
(361,-21,o),
(423,5,o),
(437,15,c),
(431,75,l),
(392,59,o),
(356,54,o),
(322,54,cs),
(278,54,o),
(218,77,o),
(218,145,cs),
(218,161,o),
(220,180,o),
(225,201,cs),
(394,991,l),
(893,991,l),
(741,283,ls),
(733,244,o),
(719,179,o),
(719,148,cs),
(719,43,o),
(788,-21,o),
(900,-21,cs),
(950,-21,o),
(1012,5,o),
(1026,15,c),
(1020,75,l),
(981,59,o),
(945,54,o),
(911,54,cs),
(867,54,o),
(807,77,o),
(807,145,cs),
(807,161,o),
(809,180,o),
(814,201,cs),
(983,991,l),
(1219,991,l),
(1234,1059,l),
(996,1059,l),
(1057,1347,l),
(967,1347,l),
(906,1059,l),
(407,1059,l),
(468,1347,l),
(378,1347,l),
(317,1059,l),
(162,1059,l),
(148,991,l),
(304,991,l),
(152,283,ls),
(144,244,o),
(130,179,o),
(130,148,cs),
(130,43,o),
(199,-21,o),
(311,-21,cs)
);
}
);
width = 1154;
}
);
},
{
glyphname = ordfeminine;
lastChange = "2024-05-27 20:21:16 +0000";
layers = (
{
layerId = "E4F99366-6C9B-4FE4-BFF6-3C09ACD21B57";
shapes = (
{
closed = 1;
nodes = (
(451,694,o),
(514,750,o),
(561,818,c),
(563,733,o),
(633,706,o),
(661,695,c),
(790,780,l),
(780,799,o),
(772,829,o),
(772,873,cs),
(772,875,o),
(773,901,o),
(776,913,c),
(894,1466,l,{
name = hr01;
}),
(721,1466,l),
(666,1385,l),
(637,1447,o),
(574,1480,o),
(505,1480,cs),
(289,1480,o),
(131.447,1231.008,o),
(128,988,cs),
(125.447,808.007,o),
(211,694,o),
(355,694,cs)
);
},
{
closed = 1;
nodes = (
(642.182,349,l),
(682.993,541,l),
(104.993,541,l),
(64.182,349,l)
);
},
{
closed = 1;
nodes = (
(389,860,o),
(360,898,o),
(360,980,cs),
(360,1120,o),
(441,1313,o),
(561,1313,cs),
(591,1313,o),
(611,1295,o),
(624,1266,c),
(573,1029,l),
(543,909,o),
(489,860,o),
(439,860,cs)
);
}
);
width = 805;
},
{
layerId = "4B48D498-D91D-4DFD-A68C-F91EB5F77E01";
shapes = (
{
closed = 1;
nodes = (
(499,691,o),
(587,740,o),
(624,791,c),
(639,721,o),
(697,700,o),
(718,692,c),
(810,761,l),
(787,782,o),
(781,811,o),
(781,837,cs),
(781,851,o),
(783,865,o),
(785,877,c),
(910,1463,l,{
name = hr01;
}),
(775,1463,l),
(743,1379,l),
(703,1450,o),
(630,1477,o),
(576,1477,cs),
(333,1477,o),
(179,1203,o),
(179,946,cs),
(179,772,o),
(301,691,o),
(416,691,cs)
);
},
{
closed = 1;
nodes = (
(652.234,376,l),
(681.78,515,l),
(138.78,515,l),
(109.234,376,l)
);
},
{
closed = 1;
nodes = (
(391,823,o),
(342,864,o),
(342,966,cs),
(342,1115,o),
(421,1342,o),
(583,1342,cs),
(640,1342,o),
(689,1302,o),
(703,1233,c),
(657,1020,ls),
(621.394,855.13,o),
(506,823,o),
(461,823,cs)
);
}
);
width = 857;
},
{
guides = (
{
pos = (0,1478);
},
{
pos = (0,691);
},
{
angle = 78.14;
pos = (27,0);
}
);
layerId = "7E1A2F3E-9482-4B58-A0D1-B49E7A5F97A9";
shapes = (
{
closed = 1;
nodes = (
(512,691,o),
(625,730,o),
(685,832,c),
(679,749,o),
(720,707,o),
(748,694,c),
(790,734,l),
(766,755,o),
(758,790,o),
(757,826,cs),
(756,853,o),
(760,880,o),
(765,901,cs),
(885,1470,l),
(828,1469,l),
(791,1365,l),
(731,1452,o),
(659,1479,o),
(576,1479,cs),
(339,1479,o),
(196,1237,o),
(196,956,cs),
(196,790,o),
(299,691,o),
(443,691,cs)
);
},
{
closed = 1;
nodes = (
(649.211,415,l),
(663.452,482,l),
(145.452,482,l),
(131.211,415,l)
);
},
{
closed = 1;
nodes = (
(329,757,o),
(276,866,o),
(276,970,cs),
(276,1186,o),
(382,1420,o),
(581,1420,cs),
(659,1420,o),
(728,1386,o),
(771,1294,c),
(701,970,ls),
(675,849,o),
(548,757,o),
(440,757,cs)
);
}
);
width = 816;
}
);
unicode = 170;
},
{
glyphname = ordmasculine;
lastChange = "2024-05-27 15:08:00 +0000";
layers = (
{
layerId = "E4F99366-6C9B-4FE4-BFF6-3C09ACD21B57";
shapes = (
{
closed = 1;
nodes = (
(705,692,o),
(867.089,962.002,o),
(863,1198,cs),
(860.089,1366.002,o),
(762,1477,o),
(587,1477,cs),
(314,1477,o),
(153.917,1208.999,o),
(158,971,cs),
(160.917,800.999,o),
(259,692,o),
(435,692,cs)
);
},
{
closed = 1;
nodes = (
(643.182,349,l),
(683.993,541,l),
(105.993,541,l),
(65.182,349,l)
);
},
{
closed = 1;
nodes = (
(412,880,o),
(390,916,o),
(389,971,cs),
(387,1069,o),
(444,1288,o),
(562,1288,cs),
(623,1288,o),
(639,1245,o),
(640,1195,cs),
(642,1099,o),
(586,880,o),
(469,880,cs)
);
}
);
width = 816;
},
{
layerId = "4B48D498-D91D-4DFD-A68C-F91EB5F77E01";
shapes = (
{
closed = 1;
nodes = (
(662,691,o),
(867,901,o),
(867,1199,cs),
(867,1360,o),
(774,1477,o),
(613,1477,cs),
(368,1477,o),
(193,1250,o),
(193,965,cs),
(193,803,o),
(288,691,o),
(448,691,cs)
);
},
{
closed = 1;
nodes = (
(646.234,376,l),
(675.78,515,l),
(132.78,515,l),
(103.234,376,l)
);
},
{
closed = 1;
nodes = (
(393,823,o),
(353,870,o),
(353,960,cs),
(353,1085,o),
(418,1342,o),
(585,1342,cs),
(667,1342,o),
(708,1288,o),
(708,1198,cs),
(708,1075,o),
(620,823,o),
(466,823,cs)
);
}
);
width = 842;
},
{
layerId = "7E1A2F3E-9482-4B58-A0D1-B49E7A5F97A9";
shapes = (
{
closed = 1;
nodes = (
(632,690,o),
(818.947,873.076,o),
(825,1201,cs),
(828.304,1380.01,o),
(729,1477,o),
(594,1477,cs),
(387,1477,o),
(202.836,1297,o),
(206,953,cs),
(207.361,805.003,o),
(296,690,o),
(428,690,cs)
);
},
{
closed = 1;
nodes = (
(639.211,415,l),
(653.452,482,l),
(135.452,482,l),
(121.211,415,l)
);
},
{
closed = 1;
nodes = (
(344,751,o),
(287.599,843,o),
(287.425,960,cs),
(287,1246,o),
(409,1416,o),
(584,1416,cs),
(722,1416,o),
(748,1283,o),
(748,1200,cs),
(748,943,o),
(610,751,o),
(447,751,cs)
);
}
);
width = 810;
}
);
unicode = 186;
},
{
glyphname = mu;
lastChange = "2024-05-28 01:10:56 +0000";
layers = (
{
layerId = "E4F99366-6C9B-4FE4-BFF6-3C09ACD21B57";
shapes = (
{
closed = 1;
nodes = (
(234,-417,l),
(317.2,-18.96,l),
(384,-19,o),
(448,3,o),
(504,33,cs),
(575,71,o),
(632,124,o),
(663,166,c,{
name = hr02;
}),
(663,61,o),
(776,-4,o),
(820,-19,c),
(988,106,l),
(973,134,o),
(960,183,o),
(960,248,cs),
(960,257,o),
(962,286,o),
(966,304,c),
(1141,1123,l,{
name = hr01;
}),
(828,1123,l),
(696,506,ls),
(660,338,o),
(560,225,o),
(473,225,cs),
(427,225,o),
(403,252,o),
(403,330,cs),
(403,363,o),
(408,410,o),
(418,457,cs),
(560,1123,l),
(247,1123,l),
(-79,-417,l)
);
}
);
width = 1151;
},
{
layerId = "4B48D498-D91D-4DFD-A68C-F91EB5F77E01";
shapes = (
{
closed = 1;
nodes = (
(164,-416,l),
(257,18,l),
(298,-7,o),
(347,-21,o),
(404,-21,cs),
(522,-21,o),
(649,30,o),
(735,141,c),
(734,61,o),
(821,-9,o),
(855,-20,c),
(971,80,l),
(939,111,o),
(929,150,o),
(929,189,c),
(930,207,o),
(931,227,o),
(935,245,c),
(1112,1082,l),
(910,1082,l),
(781,463,ls),
(738,259,o),
(604,140,o),
(474,140,cs),
(363,140,o),
(334,228,o),
(334,317,cs),
(334,361,o),
(341,406,o),
(349,441,cs),
(485,1082,l),
(285,1082,l),
(-35,-416,l)
);
}
);
width = 1177;
},
{
layerId = "7E1A2F3E-9482-4B58-A0D1-B49E7A5F97A9";
shapes = (
{
closed = 1;
nodes = (
(118,-417,l),
(221,73,l),
(262,12,o),
(333,-23,o),
(436,-23,cs),
(590,-23,o),
(735,94,o),
(803,197,c),
(792,75,o),
(831,4,o),
(870,-15,c),
(916,31,l),
(885,57,o),
(874,118,o),
(880,169,cs),
(882,186,o),
(884,205,o),
(888,222,c),
(1066,1059,l),
(975,1059,l),
(832,389,ls),
(810,288,o),
(660,50,o),
(446,50,cs),
(284,50,o),
(255,182,o),
(273,296,cs),
(278,328,o),
(281,349,o),
(291,396,cs),
(431,1059,l),
(340,1059,l),
(27,-417,l)
);
}
);
width = 1162;
}
);
unicode = 956;
},
{
glyphname = zero;
lastChange = "2024-05-27 15:08:00 +0000";
layers = (
{
guides = (
{
pos = (0,1190);
},
{
angle = 77.977;
pos = (567,0);
}
);
layerId = "E4F99366-6C9B-4FE4-BFF6-3C09ACD21B57";
shapes = (
{
closed = 1;
nodes = (
(935,-21,o),
(1113,636,o),
(1113,1041,cs),
(1113,1314,o),
(979,1477,o),
(756,1477,cs),
(385,1477,o),
(84,994,o),
(84,398,c),
(84,125,o),
(218,-21,o),
(444,-21,cs)
);
},
{
closed = 1;
nodes = (
(413,226,o),
(390,304,o),
(390,421,cs),
(390,597,o),
(517,1229,o),
(719,1229,cs),
(785,1229,o),
(807,1154,o),
(807,1037,cs),
(807,849,o),
(678,226,o),
(479,226,cs)
);
}
);
width = 1129;
},
{
guides = (
{
pos = (0,1190);
}
);
layerId = "4B48D498-D91D-4DFD-A68C-F91EB5F77E01";
shapes = (
{
closed = 1;
nodes = (
(847.575,-21,o),
(1084.662,538,o),
(1085.512,1062,cs),
(1085.978,1349,o),
(933.575,1477,o),
(750.575,1477,cs),
(332.978,1477,o),
(95.891,918,o),
(95.041,394,cs),
(94.575,107,o),
(245.978,-21,o),
(428.978,-21,cs)
);
},
{
closed = 1;
nodes = (
(346.575,132,o),
(297.925,232.996,o),
(297.891,380,cs),
(297.775,875.001,o),
(501.978,1324,o),
(727.978,1324,cs),
(833.978,1324,o),
(882.628,1223.004,o),
(882.662,1076,cs),
(882.777,580.999,o),
(678.575,132,o),
(452.575,132,cs)
);
}
);
width = 1104;
},
{
guides = (
{
pos = (0,769);
},
{
pos = (0,718);
}
);
layerId = "7E1A2F3E-9482-4B58-A0D1-B49E7A5F97A9";
shapes = (
{
closed = 1;
nodes = (
(855,-21,o),
(1062,687,o),
(1062,1075,cs),
(1062,1152,o),
(1062,1477,o),
(761,1477,cs),
(359,1477,o),
(136,875,o),
(136,391,cs),
(136,256,o),
(168,-21,o),
(433,-21,cs)
);
},
{
closed = 1;
nodes = (
(273,49,o),
(224,209,o),
(224,410,cs),
(224,808,o),
(423,1407,o),
(762,1407,cs),
(944,1407,o),
(975,1196,o),
(975,1106,cs),
(975,660,o),
(756,49,o),
(445,49,cs)
);
}
);
width = 1102;
}
);
unicode = 48;
},
{
glyphname = one;
lastChange = "2024-05-27 15:08:00 +0000";
layers = (
{
guides = (
{
angle = 90;
pos = (893,0);
},
{
angle = 90;
pos = (932,0);
}
);
layerId = "E4F99366-6C9B-4FE4-BFF6-3C09ACD21B57";
shapes = (
{
closed = 1;
nodes = (
(774,0,l),
(826,244,l),
(585,244,l),
(842,1456,l),
(686,1456,l),
(228,1330,l),
(217,1133,l),
(468,1158,l),
(274,244,l),
(11,244,l),
(-41,0,l)
);
}
);
width = 930;
},
{
guides = (
{
angle = 90;
pos = (-65,0);
},
{
angle = 90;
pos = (-26,0);
}
);
layerId = "4B48D498-D91D-4DFD-A68C-F91EB5F77E01";
shapes = (
{
closed = 1;
nodes = (
(660,0,l),
(692,154,l),
(456,154,l),
(733,1456,l),
(644,1456,l),
(252,1363,l),
(243,1227,l),
(490,1251,l),
(257,154,l),
(5,154,l),
(-27,0,l)
);
}
);
width = 831;
},
{
guides = (
{
angle = 78.14;
pos = (-1126,0);
},
{
angle = 78.14;
pos = (30,0);
},
{
angle = 78.14;
pos = (-437,0);
},
{
angle = 78.14;
pos = (602,0);
}
);
layerId = "7E1A2F3E-9482-4B58-A0D1-B49E7A5F97A9";
shapes = (
{
closed = 1;
nodes = (
(573,0,l),
(588,70,l),
(357,70,l),
(652,1456,l),
(590,1456,l),
(294,1394,l),
(293,1331,l),
(543,1367,l),
(267,70,l),
(19,70,l),
(4,0,l)
);
}
);
width = 767;
}
);
unicode = 49;
},
{
glyphname = two;
lastChange = "2024-05-27 15:08:00 +0000";
layers = (
{
layerId = "E4F99366-6C9B-4FE4-BFF6-3C09ACD21B57";
shapes = (
{
closed = 1;
nodes = (
(809,0,l),
(861,244,l),
(326,244,l),
(498,398,ls),
(702,580,o),
(1022,875,o),
(1022,1154,cs),
(1022,1374,o),
(870,1477,o),
(658,1477,cs),
(437,1477,o),
(256,1346,o),
(214,1319,c),
(282,1110,l),
(304,1127,o),
(430,1228,o),
(565,1228,c),
(649,1228,o),
(707,1180,o),
(707,1092,cs),
(707,920,o),
(429,664,o),
(309,548,cs),
(-46,206,l),
(-90,0,l)
);
}
);
width = 990;
},
{
layerId = "4B48D498-D91D-4DFD-A68C-F91EB5F77E01";
shapes = (
{
closed = 1;
nodes = (
(728,0,l),
(760,154,l),
(189,154,l),
(548,505,l),
(747,705,o),
(946,894,o),
(946,1169,cs),
(946,1365,o),
(809,1477,o),
(627,1477,cs),
(405,1477,o),
(270,1373,o),
(219,1334,c),
(266,1186,l),
(317,1226,o),
(432,1319,o),
(579,1319,cs),
(671,1319,o),
(739,1259,o),
(739,1150,cs),
(739,945,o),
(555,763,o),
(458,661,c),
(-55,135,l),
(-83,0,l)
);
}
);
width = 923;
},
{
guides = (
{
angle = 90;
pos = (805,0);
},
{
angle = 90;
pos = (59,0);
},
{
angle = 90;
pos = (-1081,0);
},
{
angle = 90;
pos = (-184,0);
}
);
layerId = "7E1A2F3E-9482-4B58-A0D1-B49E7A5F97A9";
shapes = (
{
closed = 1;
nodes = (
(699,0,l),
(714,70,l),
(70,70,l),
(409,413,l),
(630,643,o),
(909,940,o),
(909,1185,cs),
(909,1371,o),
(804,1477,o),
(592,1477,cs),
(456,1477,o),
(334,1405,o),
(261,1347,c),
(283,1285,l),
(344,1335,o),
(463,1404,o),
(586,1404,cs),
(718,1404,o),
(817,1359,o),
(817,1169,cs),
(817,1033,o),
(702,844,o),
(391,507,c),
(-28,70,l),
(-43,0,l)
);
}
);
width = 900;
}
);
unicode = 50;
},
{
glyphname = three;
lastChange = "2024-05-27 15:08:00 +0000";
layers = (
{
guides = (
{
angle = 90;
pos = (848,0);
},
{
angle = 90;
pos = (1699,0);
}
);
layerId = "E4F99366-6C9B-4FE4-BFF6-3C09ACD21B57";
shapes = (
{
closed = 1;
nodes = (
(655,-21,o),
(921,185,o),
(921,491,cs),
(921,622,o),
(845,711,o),
(748,747,c),
(902,823,o),
(1034,986,o),
(1034,1162,cs),
(1034,1370,o),
(884,1479,o),
(661,1476,cs),
(425,1473,o),
(255,1370,o),
(205,1332,c),
(263,1124,l),
(331,1171,o),
(462,1231,o),
(576,1231,cs),
(676,1231,o),
(720,1171,o),
(720,1101,cs),
(720,973,o),
(611,861,o),
(467,861,cs),
(330,861,l),
(279,622,l),
(409,622,ls),
(549,622,o),
(605,578,o),
(605,483,cs),
(605,304,o),
(474,219,o),
(337,219,c),
(197,219,o),
(101,275,o),
(57,312,c),
(-71,133,l),
(-34,89,o),
(107,-21,o),
(329,-21,cs)
);
}
);
width = 1018;
},
{
guides = (
{
angle = 90;
pos = (-71,0);
},
{
angle = 90;
pos = (780,0);
}
);
layerId = "4B48D498-D91D-4DFD-A68C-F91EB5F77E01";
shapes = (
{
closed = 1;
nodes = (
(656,-21,o),
(874,199,o),
(874,493,cs),
(874,606,o),
(811,719,o),
(707,754,c),
(889,836,o),
(997,997,o),
(997,1175,cs),
(997,1355,o),
(868,1477,o),
(656,1477,cs,{
name = hr02;
}),
(444,1477,o),
(293,1384,o),
(241,1345,c),
(287,1197,l),
(339,1237,o),
(465,1319,o),
(607,1322,c),
(735,1322,o),
(791,1257,o),
(791,1145,cs),
(791,1015,o),
(691,827,o),
(462,827,cs),
(357,827,l),
(325,674,l),
(440,674,ls),
(620,674,o),
(671,603,o),
(671,488,cs),
(671,316,o),
(556,137,o),
(338,133,c,{
name = hr01;
}),
(195,135,o),
(64,210,o),
(42,233,c),
(-50,109,l),
(-16,70,o),
(117,-21,o),
(330,-21,cs)
);
}
);
width = 992;
},
{
guides = (
{
angle = 90;
pos = (407,0);
}
);
layerId = "7E1A2F3E-9482-4B58-A0D1-B49E7A5F97A9";
shapes = (
{
closed = 1;
nodes = (
(560,-21,o),
(808,154,o),
(808,471,cs),
(808,578,o),
(771,718,o),
(641,762,c),
(788,803,o),
(931,1002,o),
(931,1193,cs),
(931,1316,o),
(857,1478,o),
(612,1478,cs),
(434,1478,o),
(319,1408,o),
(266,1374,c),
(282,1314,l),
(326,1341,o),
(455,1408,o),
(580,1408,cs),
(778,1408,o),
(843,1301,o),
(843,1178,cs),
(843,989,o),
(693,795,o),
(502,795,cs),
(369,795,l),
(354,724,l),
(487,724,ls),
(669,724,o),
(720,608,o),
(720,470,cs),
(720,194,o),
(500,51,o),
(332,51,cs),
(174,51,o),
(76,95,o),
(14,150,c),
(-29,92,l),
(46,31,o),
(146,-21,o),
(325,-21,cs)
);
}
);
width = 942;
}
);
unicode = 51;
},
{
glyphname = four;
lastChange = "2024-05-29 18:28:29 +0000";
layers = (
{
layerId = "E4F99366-6C9B-4FE4-BFF6-3C09ACD21B57";
shapes = (
{
closed = 1;
nodes = (
(816,0,l),
(882,312,l),
(1018,312,l),
(1070,556,l),
(934,556,l),
(1125,1456,l),
(800,1456,l),
(30,517,l),
(-14,312,l),
(571,312,l),
(505,0,l)
);
},
{
closed = 1;
nodes = (
(729,1033,l),
(623,556,l),
(340,556,l)
);
}
);
width = 1142;
},
{
layerId = "4B48D498-D91D-4DFD-A68C-F91EB5F77E01";
shapes = (
{
closed = 1;
nodes = (
(726,0,l),
(798,339,l),
(976,339,l),
(1008,493,l),
(830,493,l),
(1035,1456,l,{
name = hr03;
}),
(817,1456,l),
(27,451,l,{
name = hr02;
}),
(4,339,l),
(599,339,l,{
name = hr01;
}),
(527,0,l)
);
},
{
closed = 1;
nodes = (
(775,1167,l),
(631,493,l),
(253,493,l)
);
}
);
width = 1086;
},
{
layerId = "7E1A2F3E-9482-4B58-A0D1-B49E7A5F97A9";
shapes = (
{
closed = 1;
nodes = (
(670,0,l),
(750,374,l),
(970,374,l),
(985,444,l),
(765,444,l),
(980,1456,l),
(868,1456,l),
(49,427,l),
(38,374,l),
(657,374,l),
(577,0,l)
);
},
{
closed = 1;
nodes = (
(870,1348,l),
(672,444,l),
(162,444,l)
);
}
);
width = 1081;
}
);
unicode = 52;
},
{
glyphname = five;
lastChange = "2024-05-27 15:08:00 +0000";
layers = (
{
layerId = "E4F99366-6C9B-4FE4-BFF6-3C09ACD21B57";
shapes = (
{
closed = 1;
nodes = (
(695,-21,o),
(951,229,o),
(951,565,cs),
(951,780,o),
(808,909,o),
(593,909,cs),
(545,909,o),
(504,905,o),
(449,895,c),
(551,1212,l),
(1051,1212,l),
(1102,1456,l),
(349,1456,l),
(138,751,l),
(232,656,l),
(290,672,o),
(372,687,o),
(439,687,cs),
(559,687,o),
(639,638,o),
(639,515,cs),
(639,384,o),
(529,220,o),
(331,220,cs),
(224,220,o),
(157,258,o),
(74,319,c),
(-54,140,l),
(-11,95,o),
(111,-21,o),
(345,-21,cs)
);
}
);
width = 1031;
},
{
layerId = "4B48D498-D91D-4DFD-A68C-F91EB5F77E01";
shapes = (
{
closed = 1;
nodes = (
(715,-21,o),
(917,293,o),
(917,567,cs),
(917,776,o),
(778,892,o),
(563,892,cs),
(506,892,o),
(450,886,o),
(383,873,c),
(519,1302,l),
(1034,1301,l),
(1067,1456,l),
(376,1456,l),
(171,782,l),
(245,709,l),
(323,727,o),
(411,743,o),
(489,743,cs),
(636,743,o),
(715,699,o),
(715,533,cs),
(715,366,o),
(578,132,o),
(348,132,cs),
(212,132,o),
(112,202,o),
(72,234,c),
(-32,126,l),
(3,87,o),
(140,-21,o),
(352,-21,cs)
);
}
);
width = 1020;
},
{
guides = (
{
pos = (0,366);
},
{
angle = 90;
pos = (128,0);
}
);
layerId = "7E1A2F3E-9482-4B58-A0D1-B49E7A5F97A9";
shapes = (
{
closed = 1;
nodes = (
(627,-21,o),
(862,203,o),
(862,577,cs),
(862,748,o),
(739,877,o),
(507,877,cs),
(421,877,o),
(380,872,o),
(296,849,c),
(459,1386,l),
(1009,1386,l),
(1024,1456,l),
(395,1456,l),
(200,813,l),
(245,768,l),
(309,792,o),
(392,809,o),
(481,809,cs),
(687,809,o),
(773,694,o),
(773,562,cs),
(773,246,o),
(561,51,o),
(378,51,cs),
(241,51,o),
(124,115,o),
(66,169,c),
(22,111,l),
(102,40,o),
(217,-21,o),
(367,-21,cs)
);
}
);
width = 981;
}
);
unicode = 53;
},
{
glyphname = six;
lastChange = "2024-05-27 15:08:00 +0000";
layers = (
{
layerId = "E4F99366-6C9B-4FE4-BFF6-3C09ACD21B57";
shapes = (
{
closed = 1;
nodes = (
(809,-21,o),
(1054,290,o),
(1054,621,cs),
(1054,828,o),
(956,978,o),
(746,978,cs),
(634,978,o),
(529,927,o),
(472,883,c),
(519,1088,o),
(638,1239,o),
(814,1239,cs),
(902,1239,o),
(949,1222,o),
(1013,1197,c),
(1104,1398,l),
(1031,1445,o),
(924,1477,o),
(815,1477,cs),
(282,1477,o),
(86,849,o),
(86,421,cs),
(86,113,o),
(230,-21,o),
(463,-21,cs)
);
},
{
closed = 1;
nodes = (
(428,226,o),
(394,298,o),
(394,400,cs),
(394,466,o),
(399,536,o),
(426,653,c),
(469,695,o),
(534,744,o),
(620,744,cs),
(698,744,o),
(743,687,o),
(743,588,cs),
(743,464,o),
(652,226,o),
(494,226,cs)
);
}
);
width = 1112;
},
{
layerId = "4B48D498-D91D-4DFD-A68C-F91EB5F77E01";
shapes = (
{
closed = 1;
nodes = (
(745,-21,o),
(999,281,o),
(999,608,cs),
(999,818,o),
(869,943,o),
(675,943,cs),
(587,943,o),
(457,918,o),
(375,823,c),
(432,1099,o),
(588,1323,o),
(797,1323,cs),
(888,1323,o),
(961,1299,o),
(1007,1277,c),
(1065,1418,l),
(994,1456,o),
(892,1477,o),
(799,1477,cs),
(304,1477,o),
(116,911,o),
(116,368,cs),
(116,116,o),
(247,-21,o),
(453,-21,cs)
);
},
{
closed = 1;
nodes = (
(366,133,o),
(300,191,o),
(300,347,cs),
(300,417,o),
(305,497,o),
(330,615,c),
(384,700,o),
(487,790,o),
(621,790,cs),
(735,790,o),
(795,714,o),
(795,575,cs),
(795,366,o),
(627,133,o),
(462,133,cs)
);
}
);
width = 1080;
},
{
guides = (
{
pos = (0,636);
},
{
angle = 90;
pos = (527,0);
}
);
layerId = "7E1A2F3E-9482-4B58-A0D1-B49E7A5F97A9";
shapes = (
{
closed = 1;
nodes = (
(703,-21,o),
(958,242,o),
(958,603,cs),
(958,789,o),
(880,927,o),
(656,927,cs),
(532,927,o),
(349,848,o),
(268,735,c),
(352,1165,o),
(571,1406,o),
(802,1406,cs),
(902,1406,o),
(974,1381,o),
(1028,1347,c),
(1058,1413,l),
(1005,1447,o),
(930,1477,o),
(799,1477,cs),
(420,1477,o),
(145,991,o),
(145,413,cs),
(145,140,o),
(265,-21,o),
(450,-21,cs)
);
},
{
closed = 1;
nodes = (
(312,49,o),
(235,209,o),
(235,365,cs),
(235,447,o),
(233,484,o),
(252,619,c),
(333,749,o),
(484,857,o),
(654,857,cs),
(837,857,o),
(867,704,o),
(867,588,cs),
(867,285,o),
(644,49,o),
(473,49,cs)
);
}
);
width = 1041;
}
);
unicode = 54;
},
{
glyphname = seven;
lastChange = "2024-05-29 18:33:24 +0000";
layers = (
{
layerId = "E4F99366-6C9B-4FE4-BFF6-3C09ACD21B57";
shapes = (
{
closed = 1;
nodes = (
(419,0,l),
(540,486,o),
(743,854,o),
(1077,1212,c),
(1128,1456,l),
(200,1456,l),
(149,1212,l),
(776,1212,l),
(496,945,o),
(247,548,o),
(107,0,c)
);
}
);
width = 1015;
},
{
layerId = "4B48D498-D91D-4DFD-A68C-F91EB5F77E01";
shapes = (
{
closed = 1;
nodes = (
(341,0,l),
(478,623,o),
(619,889,o),
(1075,1300,c),
(1108,1456,l),
(190,1456,l),
(157,1300,l),
(864,1300,l),
(573,1080,o),
(257,628,o),
(142,0,c)
);
}
);
width = 994;
},
{
guides = (
{
pos = (0,1387);
},
{
angle = 90;
pos = (-1232,0);
},
{
angle = 90;
pos = (-305,0);
},
{
angle = 90;
pos = (1060,0);
},
{
angle = 90;
pos = (1978,0);
}
);
layerId = "7E1A2F3E-9482-4B58-A0D1-B49E7A5F97A9";
shapes = (
{
closed = 1;
nodes = (
(290,0,l),
(387,430,o),
(577,893,o),
(1040,1384,c),
(1056,1456,l),
(227,1456,l),
(212,1386,l),
(953,1386,l),
(489,906,o),
(330,510,o),
(192,0,c)
);
}
);
width = 931;
}
);
unicode = 55;
},
{
glyphname = eight;
lastChange = "2024-05-27 15:08:00 +0000";
layers = (
{
layerId = "E4F99366-6C9B-4FE4-BFF6-3C09ACD21B57";
shapes = (
{
closed = 1;
nodes = (
(715,-21,o),
(999,173,o),
(999,480,cs),
(999,596,o),
(942,694,o),
(840,745,c),
(1005,821,o),
(1115,978,o),
(1115,1161,cs),
(1115,1356,o),
(969,1477,o),
(742,1477,c),
(464,1477,o),
(198,1275,o),
(198,991,cs),
(198,879,o),
(249,795,o),
(334,745,c,{
name = hr01;
}),
(153,670,o),
(41,522,o),
(41,329,cs),
(41,109,o),
(187,-21,o),
(426,-21,cs)
);
},
{
closed = 1;
nodes = (
(404,224,o),
(349,274,o),
(349,366,cs),
(349,483,o),
(430,623,o),
(560,623,cs,{
name = hr02;
}),
(635,623,o),
(691,569,o),
(691,477,cs),
(691,360,o),
(608,224,o),
(480,224,cs)
);
},
{
closed = 1;
nodes = (
(551,867,o),
(509,913,o),
(509,998,cs),
(509,1095,o),
(574,1231,o),
(690,1231,cs),
(755,1231,o),
(797,1187,o),
(797,1107,cs),
(797,1005,o),
(729,867,o),
(614,867,cs)
);
}
);
width = 1098;
},
{
layerId = "4B48D498-D91D-4DFD-A68C-F91EB5F77E01";
shapes = (
{
closed = 1;
nodes = (
(697,-21,o),
(963,154,o),
(963,459,cs),
(963,586,o),
(892,697,o),
(774,747,c),
(952,807,o),
(1077,952,o),
(1077,1160,cs),
(1077,1340,o),
(945,1477,o),
(742,1477,cs),
(463,1477,o),
(243,1285,o),
(243,1004,cs,{
name = hr01;
}),
(243,872,o),
(322,788,o),
(399,748,c),
(204,697,o),
(58,543,o),
(58,305,cs),
(58,105,o),
(200,-21,o),
(426,-21,cs)
);
},
{
closed = 1;
nodes = (
(335,133,o),
(262,202,o),
(262,322,cs,{
name = hr02;
}),
(262,483,o),
(384,671,o),
(571,671,cs),
(691,671,o),
(765,578,o),
(765,458,cs),
(765,296,o),
(633,133,o),
(459,133,cs)
);
},
{
closed = 1;
nodes = (
(501,825,o),
(443,892,o),
(443,998,cs),
(443,1140,o),
(539,1321,o),
(709,1321,cs,{
name = hr03;
}),
(811,1321,o),
(870,1244,o),
(870,1138,cs),
(870,998,o),
(751,825,o),
(606,825,cs)
);
}
);
width = 1089;
},
{
guides = (
{
pos = (0,388);
},
{
pos = (0,751);
},
{
angle = 90;
pos = (528,0);
}
);
layerId = "7E1A2F3E-9482-4B58-A0D1-B49E7A5F97A9";
shapes = (
{
closed = 1;
nodes = (
(716,-21,o),
(922,194,o),
(922,452,cs),
(922,600,o),
(863,705,o),
(724,753,c),
(883,802,o),
(1033,941,o),
(1033,1170,cs),
(1033,1296,o),
(961,1477,o),
(719,1477,cs),
(483,1477,o),
(283,1285,o),
(283,1007,cs),
(283,947,o),
(304,803,o),
(443,754,c),
(264,718,o),
(89,552,o),
(89,327,cs),
(89,119,o),
(215,-21,o),
(431,-21,cs)
);
},
{
closed = 1;
nodes = (
(244,49,o),
(177,184,o),
(177,326,cs),
(177,532,o),
(366,716,o),
(566,716,cs),
(753,716,o),
(835,611,o),
(835,435,cs),
(835,208,o),
(628,49,o),
(446,49,cs)
);
},
{
closed = 1;
nodes = (
(423,786,o),
(372,897,o),
(372,1020,cs),
(372,1205,o),
(514,1407,o),
(709,1407,cs),
(896,1407,o),
(945,1280,o),
(945,1146,cs),
(945,962,o),
(763,786,o),
(597,786,cs)
);
}
);
width = 1053;
}
);
unicode = 56;
},
{
glyphname = nine;
lastChange = "2024-05-27 15:08:00 +0000";
layers = (
{
layerId = "E4F99366-6C9B-4FE4-BFF6-3C09ACD21B57";
shapes = (
{
closed = 1;
nodes = (
(899,-21,o),
(1095,607,o),
(1095,1035,cs),
(1095,1343,o),
(951,1477,o),
(718,1477,cs),
(372,1477,o),
(127,1166,o),
(127,835,cs),
(127,628,o),
(225,478,o),
(435,478,cs),
(547,478,o),
(652,529,o),
(709,573,c),
(662,368,o),
(543,217,o),
(367,217,cs),
(279,217,o),
(232,234,o),
(168,259,c),
(77,58,l),
(150,11,o),
(257,-21,o),
(366,-21,cs)
);
},
{
closed = 1;
nodes = (
(483,712,o),
(438,769,o),
(438,868,cs),
(438,992,o),
(529,1230,o),
(687,1230,cs),
(753,1230,o),
(787,1158,o),
(787,1056,cs),
(787,990,o),
(782,920,o),
(755,803,c),
(713,761,o),
(647,712,o),
(561,712,cs)
);
}
);
width = 1111;
},
{
layerId = "4B48D498-D91D-4DFD-A68C-F91EB5F77E01";
shapes = (
{
closed = 1;
nodes = (
(844,-21,o),
(1054,603,o),
(1054,1085,cs),
(1054,1372,o),
(910,1477,o),
(705,1477,cs),
(343,1477,o),
(159,1146,o),
(159,840,cs),
(159,639,o),
(280,513,o),
(494,513,cs),
(582,513,o),
(715,555,o),
(783,628,c),
(691,306,o),
(521,133,o),
(352,133,cs),
(291,133,o),
(223,149,o),
(154,188,c),
(97,46,l),
(168,8,o),
(256,-21,o),
(359,-21,cs)
);
},
{
closed = 1;
nodes = (
(423,666,o),
(363,732,o),
(363,871,cs),
(363,1090,o),
(511,1323,o),
(677,1323,cs),
(783,1323,o),
(859,1257,o),
(859,1089,cs),
(859,1029,o),
(845,875,o),
(822,829,c),
(768,744,o),
(651,666,o),
(537,666,cs)
);
}
);
width = 1098;
},
{
layerId = "7E1A2F3E-9482-4B58-A0D1-B49E7A5F97A9";
shapes = (
{
closed = 1;
nodes = (
(708,-21,o),
(983,465,o),
(983,1043,cs),
(983,1316,o),
(863,1477,o),
(678,1477,cs),
(425,1477,o),
(170,1214,o),
(170,853,cs),
(170,667,o),
(248,529,o),
(472,529,cs),
(596,529,o),
(779,608,o),
(860,721,c),
(776,291,o),
(557,50,o),
(326,50,cs),
(226,50,o),
(154,75,o),
(100,109,c),
(70,43,l),
(123,9,o),
(198,-21,o),
(329,-21,cs)
);
},
{
closed = 1;
nodes = (
(291,599,o),
(261,752,o),
(261,868,cs),
(261,1171,o),
(484,1407,o),
(655,1407,cs),
(816,1407,o),
(893,1247,o),
(893,1091,cs),
(893,1009,o),
(895,972,o),
(876,837,c),
(795,707,o),
(644,599,o),
(474,599,cs)
);
}
);
width = 1041;
}
);
unicode = 57;
},
